<svg xmlns="http://www.w3.org/2000/svg" xmlns:xlink="http://www.w3.org/1999/xlink" width="540" height="540" viewBox="0 0 540 540">
  <defs>
    <clipPath id="clip-path">
      <rect id="Rectangle_1309" data-name="Rectangle 1309" width="540" height="540" transform="translate(360 1255)" fill="#fff"/>
    </clipPath>
    <linearGradient id="linear-gradient" y1="0.5" x2="1" y2="0.5" gradientUnits="objectBoundingBox">
      <stop offset="0" stop-color="#5761d7"/>
      <stop offset="0.073" stop-color="#5471d8"/>
      <stop offset="0.279" stop-color="#4d9bda"/>
      <stop offset="0.48" stop-color="#48bddd"/>
      <stop offset="0.672" stop-color="#44d4de"/>
      <stop offset="0.849" stop-color="#42e3df"/>
      <stop offset="1" stop-color="#42e8e0"/>
    </linearGradient>
    <radialGradient id="radial-gradient" cx="0.722" cy="0.311" r="0.282" gradientTransform="translate(0 0.021) scale(1 0.933)" gradientUnits="objectBoundingBox">
      <stop offset="0" stop-color="#fddd4d"/>
      <stop offset="1" stop-color="#f8c332"/>
    </radialGradient>
    <linearGradient id="linear-gradient-24" x1="0.93" y1="0.349" x2="0.675" y2="1" gradientUnits="objectBoundingBox">
      <stop offset="0" stop-color="#453c9e"/>
      <stop offset="1" stop-color="#041d6f"/>
    </linearGradient>
    <linearGradient id="linear-gradient-25" x1="1" y1="0.045" x2="0.048" y2="0.954" gradientUnits="objectBoundingBox">
      <stop offset="0" stop-color="#453c9e"/>
      <stop offset="1" stop-color="#19307c"/>
    </linearGradient>
    <linearGradient id="linear-gradient-26" x1="0.659" y1="0.769" x2="0.723" y2="0.322" gradientTransform="matrix(1, 0, 0, 1, 0, 0)" xlink:href="#radial-gradient"/>
    <linearGradient id="linear-gradient-27" x1="0.742" y1="0.456" x2="0.202" y2="-0.282" gradientTransform="matrix(1, 0, 0, 1, 0, 0)" xlink:href="#radial-gradient"/>
    <linearGradient id="linear-gradient-28" x1="1.312" y1="-0.184" x2="0" y2="1.039" xlink:href="#linear-gradient-24"/>
    <linearGradient id="linear-gradient-29" x1="-0.312" y1="-0.184" x2="1" y2="1.039" xlink:href="#linear-gradient-24"/>
  </defs>
  <g id="Mask_Group_4" data-name="Mask Group 4" transform="translate(-360 -1255)" clip-path="url(#clip-path)">
    <g id="Group_1560" data-name="Group 1560" transform="translate(177.223 1283.44)">
      <g id="Group_1561" data-name="Group 1561" transform="translate(146.937 193.202)">
        <path id="Path_36544" data-name="Path 36544" d="M625.465,295.392l.243-.419L494.328,219.1c-1.513-.874-2.346-2.021-2.346-3.23s.833-2.359,2.346-3.233l23.12-13.378-.243-.419-23.119,13.378c-1.67.966-2.589,2.262-2.589,3.652s.92,2.687,2.589,3.649Z" transform="translate(-491.498 -104.751)" fill="#42e8e0"/>
        <path id="Path_36545" data-name="Path 36545" d="M428.319,324.415a6.831,6.831,0,0,0,3.332-.831l106-61.392a2.587,2.587,0,0,0,1.514-2.075,1.94,1.94,0,0,0-1.109-1.646l-105.3-60.748a6.6,6.6,0,0,0-5.919.236l-106,61.392a2.589,2.589,0,0,0-1.516,2.075,1.943,1.943,0,0,0,1.109,1.646l105.3,60.748A5.285,5.285,0,0,0,428.319,324.415Zm109.07-62.674-106,61.393a5.99,5.99,0,0,1-5.4.234l-105.3-60.748a1.441,1.441,0,0,1-.848-1.194A2.1,2.1,0,0,1,321.1,259.8l106-61.392a5.986,5.986,0,0,1,5.4-.236l105.3,60.748a1.443,1.443,0,0,1,.849,1.194,2.1,2.1,0,0,1-1.256,1.623Z" transform="translate(-123.031 -115.144)" fill="#42e8e0"/>
        <path id="Path_36547" data-name="Path 36547" d="M291.17,201.017a13.158,13.158,0,0,0,6.434-1.536l29.685-17.152c1.766-1.02,2.739-2.394,2.739-3.867s-.972-2.849-2.737-3.867l-29.685-17.15a14.23,14.23,0,0,0-12.867,0l-29.686,17.15c-1.765,1.02-2.737,2.394-2.737,3.869s.972,2.847,2.737,3.867l29.686,17.15A13.148,13.148,0,0,0,291.17,201.017Zm6.174-1.988a13.646,13.646,0,0,1-12.348,0l-29.685-17.15c-1.6-.922-2.476-2.135-2.476-3.415s.879-2.494,2.478-3.418L285,157.9a13.652,13.652,0,0,1,12.347,0l29.686,17.15c1.6.924,2.476,2.135,2.476,3.416s-.879,2.493-2.476,3.415Z" transform="translate(205.133 -59.295)" fill="#42e8e0"/>
        <path id="Path_36548" data-name="Path 36548" d="M491.982,300.724a11.443,11.443,0,0,0,5.595-1.337l29.686-17.152a3.59,3.59,0,0,0,0-6.767l-29.685-17.15a12.393,12.393,0,0,0-11.189,0L456.7,275.47a3.59,3.59,0,0,0,0,6.767l29.685,17.15A11.434,11.434,0,0,0,491.982,300.724Zm5.335-1.789a11.794,11.794,0,0,1-10.672,0l-29.683-17.15a3.082,3.082,0,0,1,0-5.863l29.685-17.152a11.793,11.793,0,0,1,10.672,0L527,275.921a3.082,3.082,0,0,1,0,5.863Z" transform="translate(-339.637 -75.579)" fill="#42e8e0"/>
        <path id="Path_36550" data-name="Path 36550" d="M411.493,345.383a14.011,14.011,0,0,0,6.851-1.637l119.277-68.912c1.88-1.086,2.914-2.544,2.914-4.109s-1.034-3.023-2.914-4.107L512.47,252.109l-.26.451,25.151,14.508c1.711.99,2.653,2.287,2.653,3.657s-.942,2.669-2.653,3.658L418.084,343.294a14.573,14.573,0,0,1-13.182,0l-87.293-50.249-.26.452,87.293,50.249A14.011,14.011,0,0,0,411.493,345.383Z" transform="translate(-144.973 -78.025)" fill="#42e8e0"/>
        <path id="Path_36552" data-name="Path 36552" d="M320.194,316.379a13.427,13.427,0,0,0,6.566-1.569l29.686-17.152c1.85-1.068,2.869-2.523,2.869-4.1s-1.019-3.029-2.869-4.1l-29.685-17.151a14.521,14.521,0,0,0-13.133,0l-29.685,17.15c-1.852,1.068-2.869,2.523-2.871,4.1s1.019,3.028,2.869,4.1l29.686,17.15A13.423,13.423,0,0,0,320.194,316.379Zm6.04-2.479a13.36,13.36,0,0,1-12.082,0l-29.684-17.148c-1.511-.874-2.344-2.006-2.344-3.188s.833-2.314,2.344-3.187l29.686-17.15a13.36,13.36,0,0,1,12.082,0l29.685,17.152c1.511.872,2.344,2,2.344,3.187s-.833,2.313-2.344,3.187Z" transform="translate(136.687 -63.674)" fill="#453c9e"/>
      </g>
      <g id="Group_1529" data-name="Group 1529" transform="translate(261.667 327.804)">
        <g id="Group_1523" data-name="Group 1523" transform="translate(0 38.442)" opacity="0.11">
          <path id="Path_36554" data-name="Path 36554" d="M368.938,340.806a12.776,12.776,0,0,0-12.763-.007l-29.608,16.842a1.8,1.8,0,0,0,0,3.11l31.466,18.093a11.262,11.262,0,0,0,11.263,0l30.36-17.266a1.8,1.8,0,0,0,0-3.11Z" transform="translate(-325.67 -339.095)" fill="url(#linear-gradient)"/>
        </g>
        <g id="Group_1524" data-name="Group 1524" transform="translate(0 25.628)" opacity="0.11">
          <path id="Path_36555" data-name="Path 36555" d="M368.938,331.693a12.773,12.773,0,0,0-12.763-.007l-29.608,16.842a1.8,1.8,0,0,0,0,3.11l31.466,18.093a11.261,11.261,0,0,0,11.263,0l30.36-17.267a1.8,1.8,0,0,0,0-3.112Z" transform="translate(-325.67 -329.981)" fill="url(#linear-gradient)"/>
        </g>
        <g id="Group_1525" data-name="Group 1525" transform="translate(0 12.814)" opacity="0.11">
          <path id="Path_36556" data-name="Path 36556" d="M368.938,322.579a12.776,12.776,0,0,0-12.763-.006l-29.608,16.841a1.8,1.8,0,0,0,0,3.112l31.466,18.093a11.261,11.261,0,0,0,11.263,0l30.36-17.266a1.8,1.8,0,0,0,0-3.112Z" transform="translate(-325.67 -320.868)" fill="url(#linear-gradient)"/>
        </g>
        <g id="Group_1526" data-name="Group 1526" opacity="0.11">
          <path id="Path_36557" data-name="Path 36557" d="M368.938,313.466a12.773,12.773,0,0,0-12.763-.006L326.567,330.3a1.8,1.8,0,0,0,0,3.112l31.466,18.093a11.261,11.261,0,0,0,11.263,0l30.36-17.266a1.8,1.8,0,0,0,0-3.112Z" transform="translate(-325.67 -311.755)" fill="url(#linear-gradient)"/>
        </g>
        <path id="Path_36558" data-name="Path 36558" d="M399.656,331.128l-30.718-17.662a12.773,12.773,0,0,0-12.763-.006L326.567,330.3a1.778,1.778,0,0,0-.9,1.556V370.3a1.778,1.778,0,0,0,.9,1.555l31.466,18.093a11.261,11.261,0,0,0,11.263,0l30.36-17.267a1.779,1.779,0,0,0,.9-1.555V332.683h0A1.779,1.779,0,0,0,399.656,331.128Z" transform="translate(-325.67 -311.755)" opacity="0.5" fill="url(#linear-gradient)"/>
        <g id="Group_1527" data-name="Group 1527" opacity="0.11">
          <path id="Path_36559" data-name="Path 36559" d="M368.938,313.466a12.773,12.773,0,0,0-12.763-.006L326.567,330.3a1.8,1.8,0,0,0,0,3.112l31.466,18.093a11.261,11.261,0,0,0,11.263,0l30.36-17.266a1.8,1.8,0,0,0,0-3.112Z" transform="translate(-325.67 -311.755)" fill="url(#linear-gradient)"/>
        </g>
        <path id="Path_36560" data-name="Path 36560" d="M399.656,326.919,369.3,344.186a11.262,11.262,0,0,1-11.263,0l-31.466-18.093a1.782,1.782,0,0,1-.667-.671,1.8,1.8,0,0,0,.667,2.441l31.466,18.093a11.261,11.261,0,0,0,11.263,0l30.36-17.267a1.8,1.8,0,0,0,.666-2.441A1.783,1.783,0,0,1,399.656,326.919Z" transform="translate(-325.67 -306.205)" fill="url(#linear-gradient)"/>
      </g>
      <g id="Group_1535" data-name="Group 1535" transform="translate(564.292 351.313)">
        <g id="Group_1530" data-name="Group 1530" transform="translate(0 39.768)" opacity="0.11">
          <path id="Path_36561" data-name="Path 36561" d="M370.431,340.865a13.217,13.217,0,0,0-13.2-.007L326.6,358.281a1.858,1.858,0,0,0,0,3.218l32.552,18.718a11.65,11.65,0,0,0,11.651,0l31.408-17.862a1.857,1.857,0,0,0,0-3.218Z" transform="translate(-325.67 -339.095)" fill="url(#linear-gradient)"/>
        </g>
        <g id="Group_1531" data-name="Group 1531" transform="translate(0 26.512)" opacity="0.11">
          <path id="Path_36562" data-name="Path 36562" d="M370.431,331.753a13.213,13.213,0,0,0-13.2-.007L326.6,349.168a1.858,1.858,0,0,0,0,3.218L359.151,371.1a11.65,11.65,0,0,0,11.651,0l31.408-17.863a1.858,1.858,0,0,0,0-3.219Z" transform="translate(-325.67 -329.981)" fill="url(#linear-gradient)"/>
        </g>
        <g id="Group_1532" data-name="Group 1532" transform="translate(0 13.256)" opacity="0.11">
          <path id="Path_36563" data-name="Path 36563" d="M370.431,322.638a13.217,13.217,0,0,0-13.2-.006L326.6,340.054a1.859,1.859,0,0,0,0,3.219l32.552,18.718a11.65,11.65,0,0,0,11.651,0l31.408-17.862a1.858,1.858,0,0,0,0-3.219Z" transform="translate(-325.67 -320.868)" fill="url(#linear-gradient)"/>
        </g>
        <g id="Group_1533" data-name="Group 1533" opacity="0.11">
          <path id="Path_36564" data-name="Path 36564" d="M370.431,313.525a13.213,13.213,0,0,0-13.2-.006L326.6,330.941a1.859,1.859,0,0,0,0,3.219l32.552,18.718a11.65,11.65,0,0,0,11.651,0l31.408-17.862a1.858,1.858,0,0,0,0-3.219Z" transform="translate(-325.67 -311.755)" fill="url(#linear-gradient)"/>
        </g>
        <path id="Path_36565" data-name="Path 36565" d="M402.209,331.8l-31.779-18.271a13.214,13.214,0,0,0-13.2-.006L326.6,330.941a1.84,1.84,0,0,0-.928,1.61v39.767a1.839,1.839,0,0,0,.928,1.609l32.552,18.718a11.65,11.65,0,0,0,11.651,0l31.408-17.862a1.841,1.841,0,0,0,.93-1.609V333.405h0A1.841,1.841,0,0,0,402.209,331.8Z" transform="translate(-325.67 -311.755)" opacity="0.5" fill="url(#linear-gradient)"/>
        <g id="Group_1534" data-name="Group 1534">
          <path id="Path_36566" data-name="Path 36566" d="M370.431,313.525a13.213,13.213,0,0,0-13.2-.006L326.6,330.941a1.859,1.859,0,0,0,0,3.219l32.552,18.718a11.65,11.65,0,0,0,11.651,0l31.408-17.862a1.858,1.858,0,0,0,0-3.219Z" transform="translate(-325.67 -311.755)" fill="url(#radial-gradient)"/>
        </g>
        <path id="Path_36567" data-name="Path 36567" d="M402.209,326.971,370.8,344.834a11.65,11.65,0,0,1-11.651,0L326.6,326.116a1.844,1.844,0,0,1-.69-.694,1.86,1.86,0,0,0,.69,2.525l32.552,18.718a11.65,11.65,0,0,0,11.651,0L402.209,328.8a1.861,1.861,0,0,0,.689-2.525A1.844,1.844,0,0,1,402.209,326.971Z" transform="translate(-325.67 -305.542)" fill="url(#linear-gradient)"/>
      </g>
      <g id="Group_1564" data-name="Group 1564" transform="translate(302.777 22.56)">
        <path id="Path_36578" data-name="Path 36578" d="M539.617,248.644v-1.4q-.3-1.5-.7-2.985v1.4q.392,1.486.7,2.986Zm-1.573-5.956v-1.4q-.48-1.47-1.046-2.92v1.4q.566,1.451,1.046,2.92Zm-2.26-5.8v-1.4q-.65-1.433-1.382-2.845v1.4q.733,1.412,1.382,2.845Zm-2.936-5.666v-1.4q-.813-1.392-1.706-2.763v1.4q.892,1.371,1.706,2.763Zm-3.569-5.482v-1.4q-.974-1.357-2.029-2.69v1.4q1.054,1.332,2.029,2.689Zm-4.2-5.317v-1.4q-1.122-1.3-2.316-2.576v1.4q1.195,1.275,2.316,2.576Zm-4.792-5.117v-1.4q-1.266-1.25-2.6-2.473v1.4q1.336,1.224,2.6,2.473Zm-5.344-4.89v-1.4q-1.405-1.2-2.877-2.362v1.4q1.473,1.166,2.877,2.362Zm-5.9-4.68v-1.4q-1.538-1.135-3.138-2.242v1.4q1.6,1.107,3.138,2.242Zm-6.4-4.422v-1.4q-1.673-1.082-3.408-2.13v1.4q1.736,1.049,3.408,2.13Zm-6.915-4.18v-1.4q-1.783-1.008-3.625-1.983v1.4q1.84.974,3.625,1.983Zm-7.385-3.906v-1.4q-1.9-.939-3.849-1.842v1.4q1.951.9,3.849,1.842Zm51.277,52.441v-1.426q-.3-1.5-.7-2.986v1.427q.392,1.486.7,2.985Zm-1.573-5.956v-1.426q-.48-1.47-1.046-2.92v1.426q.566,1.451,1.046,2.92Zm-5.2-11.468v-1.426q-.813-1.392-1.706-2.763v1.427q.892,1.369,1.706,2.763Zm-3.569-5.482v-1.426q-.974-1.357-2.029-2.689v1.425q1.054,1.334,2.029,2.69Zm-4.2-5.317v-1.425q-1.122-1.3-2.316-2.577v1.426q1.195,1.275,2.316,2.576Zm-4.792-5.117V210.9q-1.266-1.25-2.6-2.473v1.426q1.336,1.222,2.6,2.473Zm-5.344-4.892v-1.425q-1.405-1.195-2.877-2.362v1.426q1.473,1.166,2.877,2.361Zm-19.223-13.28v-1.427q-1.783-1.008-3.625-1.983v1.426q1.84.974,3.625,1.983Zm-7.385-3.908v-1.425q-1.9-.939-3.849-1.842v1.426q1.951.9,3.849,1.84Zm51.277,52.419v-1.4q-.3-1.5-.7-2.986v1.4q.392,1.486.7,2.986Zm-1.573-5.956v-1.4q-.48-1.469-1.046-2.92v1.4q.566,1.451,1.046,2.92Zm-8.765-16.95v-1.4q-.974-1.357-2.029-2.69v1.4q1.054,1.334,2.029,2.69Zm-4.2-5.317v-1.4q-1.122-1.3-2.316-2.576v1.4q1.195,1.275,2.316,2.576Zm-4.792-5.117v-1.4q-1.266-1.25-2.6-2.473v1.4q1.336,1.224,2.6,2.473Zm-5.344-4.89v-1.4q-1.405-1.195-2.877-2.361v1.4q1.473,1.166,2.877,2.362Zm-19.223-13.281v-1.4q-1.783-1.008-3.625-1.983v1.4q1.84.974,3.625,1.983Zm-7.385-3.906v-1.4q-1.9-.939-3.849-1.84v1.4q1.951.9,3.849,1.842Zm51.277,52.441v-1.427q-.3-1.5-.7-2.985v1.426q.392,1.484.7,2.986Zm-1.573-5.956v-1.426q-.48-1.47-1.046-2.92v1.426q.566,1.451,1.046,2.92Zm-12.961-22.266v-1.427q-1.122-1.3-2.316-2.576v1.425q1.195,1.277,2.316,2.577Zm-4.792-5.117v-1.426q-1.266-1.25-2.6-2.473v1.426q1.336,1.222,2.6,2.473Zm-5.344-4.892v-1.425q-1.405-1.2-2.877-2.362V199.1q1.473,1.166,2.877,2.361ZM455.3,176.9v-8.335a235.31,235.31,0,0,0-40.691-7.317v8.336A235.185,235.185,0,0,1,455.3,176.9Zm-46.019-7.753v-8.335q-7.9-.566-16.048-.65-5.992-.061-11.876.146v8.335q5.88-.205,11.876-.146,8.139.082,16.048.65Zm130.333,67.545v-1.4q-.3-1.5-.7-2.986v1.4q.392,1.486.7,2.985Zm-1.573-5.956v-1.4q-.48-1.47-1.046-2.92v1.4q.566,1.451,1.046,2.92Zm-12.961-22.266v-1.4q-1.122-1.3-2.316-2.577v1.4q1.195,1.275,2.316,2.576Zm-4.792-5.117v-1.4q-1.266-1.25-2.6-2.473v1.4q1.336,1.224,2.6,2.473Zm19.325,30.365v-1.4q-.3-1.5-.7-2.985v1.4q.392,1.484.7,2.986ZM525.083,205.5v-1.4q-1.122-1.3-2.316-2.577v1.4q1.195,1.277,2.316,2.577Zm-4.792-5.118v-1.4q-1.266-1.248-2.6-2.473v1.4q1.336,1.221,2.6,2.472Zm12.557,24.866V209.8q-.813-1.394-1.706-2.764v15.444q.892,1.371,1.706,2.763ZM468.63,168.228v-8.31a226.879,226.879,0,0,0-54.018-11.479v8.312a226.883,226.883,0,0,1,54.018,11.477Zm-59.346-11.913V148q-7.9-.566-16.048-.65a255.483,255.483,0,0,0-43.094,3.166v8.31a255.49,255.49,0,0,1,43.094-3.166q8.139.082,16.048.652Zm93.356,28.67V174.093q-1.673-1.08-3.408-2.129v24.243q1.736,1.049,3.408,2.129V184.985Zm26.639,31.8v-19.13q-.974-1.357-2.029-2.69V214.1q1.054,1.334,2.029,2.69Zm6.5,17.123v-25.45q-.65-1.433-1.382-2.845v25.45q.733,1.412,1.382,2.845Zm-40.059-46.048V165.61q-1.783-1.008-3.625-1.983V185.88q1.84.976,3.625,1.983Zm29.359,14.511V186.291q-1.122-1.3-2.316-2.576V199.8q1.195,1.275,2.316,2.576Zm-16.04.385V171.6q-1.538-1.135-3.138-2.242v31.154q1.6,1.1,3.138,2.242Zm29,23.6V207.771q-.48-1.469-1.046-2.92v19.993q.566,1.451,1.046,2.919v-1.4Zm-23.1-27.9V174.12q-1.405-1.195-2.877-2.361V196.1q1.473,1.166,2.877,2.362Zm-41.286-41.226v-8.312q-1.944-.744-3.93-1.455v8.312q1.985.709,3.93,1.455Zm-7.56-2.715v-8.31q-2.022-.68-4.085-1.323v8.31q2.063.644,4.085,1.323Zm-7.88-2.466v-8.312q-2.083-.6-4.2-1.176v8.312q2.12.57,4.2,1.176Zm-8.13-2.192v-8.312q-2.153-.535-4.342-1.033v8.31q2.189.5,4.342,1.034Zm-9.26-2.095v-8.312a242.892,242.892,0,0,0-26.22-3.856v8.312a242.562,242.562,0,0,1,26.22,3.856Zm-31.548-4.293v-8.312q-7.9-.564-16.048-.65a260.1,260.1,0,0,0-27.979,1.215v8.31a260.43,260.43,0,0,1,27.979-1.213q8.139.082,16.048.65Zm130.333,86.9V208.268q-.3-1.5-.7-2.985v22.106q.392,1.486.7,2.986Zm-51.277-46.418V152.85q-1.9-.939-3.849-1.84v31.105q1.951.9,3.849,1.842Zm31.952,13.3V174.24q-1.266-1.25-2.6-2.473v23.016q1.336,1.224,2.6,2.473ZM340.566,129.762a252.048,252.048,0,0,1,52.67-4.911c81.076.816,146,38.507,147.37,84.813v53.31c-1.366-46.306-66.294-84-147.37-84.812a251.958,251.958,0,0,0-52.67,4.909v-53.31Z" transform="translate(-240.606 -124.838)" opacity="0.2" fill="url(#linear-gradient)"/>
        <path id="Union_81" data-name="Union 81" d="M3567.779,5365.157v-1.4q.392,1.487.7,2.985v1.4Q3568.171,5366.641,3567.779,5365.157Zm0-2.976v-1.425h0q.392,1.485.7,2.985v1.427Q3568.171,5363.665,3567.779,5362.181Zm-1.923-2.916v-1.4q.566,1.451,1.046,2.919v1.4Q3566.421,5360.717,3565.856,5359.265Zm1.923-.083v-1.4q.392,1.485.7,2.985v1.4Q3568.171,5360.666,3567.779,5359.182Zm-1.923-2.891v-1.427q.566,1.451,1.046,2.919v1.427Q3566.421,5357.741,3565.856,5356.291Zm1.923-.085v-1.427q.392,1.485.7,2.986v1.426Q3568.171,5357.689,3567.779,5356.206Zm-4.52-2.666v-1.4q.734,1.412,1.382,2.845v1.4Q3563.993,5354.953,3563.259,5353.54Zm2.6-.248v-1.4q.566,1.451,1.046,2.919v1.4Q3566.421,5354.742,3565.856,5353.292Zm1.923-.085v-1.4q.392,1.485.7,2.985v1.4Q3568.171,5354.692,3567.779,5353.207Zm-4.52-2.643v-25.449q.734,1.411,1.382,2.844v25.45Q3563.993,5351.976,3563.259,5350.563Zm2.6-.248v-1.428q.566,1.451,1.046,2.92v1.427Q3566.421,5351.764,3565.856,5350.315Zm1.923-.083v-1.4q.392,1.483.7,2.985v1.4Q3568.171,5351.716,3567.779,5350.232Zm-7.779-2.277v-1.4q.893,1.37,1.706,2.763v1.4Q3560.893,5349.326,3560,5347.955Zm5.856-.64v-1.4q.566,1.451,1.046,2.918v1.4Q3566.421,5348.765,3565.856,5347.315Zm1.923-.429V5324.78q.392,1.485.7,2.985v22.107Q3568.171,5348.373,3567.779,5346.887Zm-7.779-1.908v-1.426q.893,1.372,1.706,2.763v1.425Q3560.893,5346.349,3560,5344.979Zm5.856-.638v-19.993q.566,1.451,1.046,2.921v19.992Q3566.421,5345.793,3565.856,5344.341Zm-9.747-1.793v-1.4q1.053,1.336,2.028,2.69v1.4Q3557.163,5343.881,3556.109,5342.547Zm3.891-.567v-15.445q.893,1.373,1.706,2.765v15.442Q3560.893,5343.352,3560,5341.98Zm-3.891-2.412v-1.424q1.053,1.332,2.028,2.689v1.425Q3557.163,5340.9,3556.109,5339.569Zm-4.485-2.226v-1.4q1.2,1.275,2.317,2.576v1.4Q3552.82,5338.62,3551.624,5337.343Zm4.485-.773v-1.4q1.053,1.334,2.028,2.69v1.4Q3557.163,5337.9,3556.109,5336.57Zm-4.485-2.2v-1.425q1.2,1.273,2.317,2.577v1.424Q3552.82,5335.644,3551.624,5334.367Zm4.485-.772v-19.131q1.053,1.334,2.028,2.69v19.131Q3557.163,5334.928,3556.109,5333.6Zm-9.562-1.265v-1.4q1.336,1.225,2.6,2.474v1.4Q3547.882,5333.553,3546.547,5332.33Zm5.078-.962v-1.4q1.2,1.275,2.317,2.576v1.4Q3552.82,5332.644,3551.624,5331.368Zm-5.078-2.014v-1.427q1.336,1.223,2.6,2.474v1.425Q3547.882,5330.577,3546.547,5329.354Zm5.078-.962v-1.425q1.2,1.275,2.317,2.575v1.427Q3552.82,5329.667,3551.624,5328.392Zm-10.7-.842v-1.4q1.471,1.168,2.876,2.363v1.4Q3542.4,5328.717,3540.928,5327.55Zm5.618-1.2v-1.4q1.336,1.221,2.6,2.472v1.4Q3547.882,5327.576,3546.547,5326.354Zm5.078-.961v-1.4q1.2,1.277,2.317,2.577v1.4Q3552.82,5326.67,3551.624,5325.393Zm-10.7-.819v-1.427q1.471,1.166,2.876,2.362v1.425Q3542.4,5325.74,3540.928,5324.574Zm5.618-1.2v-1.427q1.336,1.225,2.6,2.474v1.426Q3547.882,5324.6,3546.547,5323.378Zm-11.784-.388v-1.4q1.6,1.105,3.139,2.242v1.4Q3536.364,5324.1,3534.762,5322.99Zm16.862-.573v-1.4q1.2,1.275,2.317,2.577v1.4Q3552.82,5323.693,3551.624,5322.417Zm-10.7-.842v-1.4q1.471,1.166,2.876,2.362v1.4Q3542.4,5322.74,3540.928,5321.575Zm5.618-1.2v-1.4q1.336,1.222,2.6,2.473v1.4Q3547.882,5321.6,3546.547,5320.379Zm-11.784-.364V5288.86q1.6,1.106,3.139,2.242v31.154Q3536.364,5321.122,3534.762,5320.015Zm16.862-.719v-16.082q1.2,1.275,2.317,2.575v16.083Q3552.82,5320.572,3551.624,5319.3Zm-10.7-.7v-1.427q1.471,1.166,2.876,2.362v1.425Q3542.4,5319.765,3540.928,5318.6Zm-12.839.081v-1.4q1.736,1.049,3.408,2.13v1.4Q3529.825,5319.729,3528.09,5318.68Zm18.457-1.276V5316q1.336,1.222,2.6,2.473v1.4Q3547.882,5318.628,3546.547,5317.4Zm-5.618-1.8v-24.343q1.471,1.166,2.876,2.36v24.344Q3542.4,5316.766,3540.928,5315.6Zm-12.839.1v-24.242q1.736,1.047,3.408,2.127v24.245Q3529.825,5316.753,3528.09,5315.7Zm18.457-1.423v-23.016q1.336,1.223,2.6,2.472v23.016Q3547.882,5315.5,3546.547,5314.281Zm-25.589.367v-1.4q1.841.974,3.625,1.982v1.4Q3522.8,5315.622,3520.957,5314.648Zm0-2.976v-1.425q1.841.972,3.625,1.981v1.427Q3522.8,5312.646,3520.957,5311.672Zm-7.609-.79v-1.4q1.95.9,3.849,1.842v1.4Q3515.3,5311.785,3513.348,5310.882Zm7.609-2.209v-1.4q1.841.974,3.625,1.982v1.4Q3522.8,5309.648,3520.957,5308.673Zm-7.609-.765v-1.427q1.95.9,3.849,1.842v1.425Q3515.3,5308.808,3513.348,5307.908Zm7.609-2.53v-22.252q1.841.974,3.625,1.983v22.252Q3522.8,5306.352,3520.957,5305.377Zm-7.609-.469v-1.4q1.95.9,3.849,1.84v1.4Q3515.3,5305.811,3513.348,5304.909Zm0-3.3v-31.1q1.95.9,3.849,1.84v31.106Q3515.3,5302.516,3513.348,5301.612Zm-69.878-12.528v-8.336a235.361,235.361,0,0,1,40.69,7.317v8.335A235.27,235.27,0,0,0,3443.47,5289.084ZM3422.094,5288q-5.992-.061-11.876.147v-8.335q5.881-.2,11.876-.146,8.14.079,16.048.651v8.334Q3430.24,5288.083,3422.094,5288Zm2.774-2.859v-2.312q6.717.138,13.274.608-6.552-.467-13.274-.608Zm18.6-8.889v-8.311a226.985,226.985,0,0,1,54.018,11.477v8.313A226.913,226.913,0,0,0,3443.47,5276.248Zm-64.47-6.232a255.705,255.705,0,0,1,43.094-3.166q8.14.083,16.048.652v8.311q-7.9-.565-16.048-.652a255.4,255.4,0,0,0-43.094,3.166Zm28.964.068v0q6.982-.307,14.13-.236,8.14.079,16.048.651-7.9-.568-16.048-.651-1.37-.014-2.736-.014Q3413.609,5269.835,3407.964,5270.084Zm0,2.312q5.62-.245,11.348-.248Q3413.586,5272.149,3407.964,5272.4Zm14.13-.234q-.712-.007-1.424-.011Q3421.381,5272.155,3422.094,5272.162Zm-2.684-.014h0Zm79.179,3.132v-8.311q1.986.712,3.93,1.455v8.313Q3500.575,5275.991,3498.589,5275.28Zm-7.714-2.583v-8.31q2.063.642,4.085,1.323v8.31Q3492.937,5273.344,3490.875,5272.7Zm-8-2.32v-8.311q2.12.57,4.2,1.176v8.312Q3485,5270.947,3482.875,5270.378Zm-8.268-2.049v-8.31q2.19.5,4.343,1.033v8.311Q3476.8,5268.828,3474.607,5268.329Zm-31.137-4.916V5255.1a242.659,242.659,0,0,1,26.22,3.856v8.311A242.781,242.781,0,0,0,3443.47,5263.413Zm-49.356-8.184a260.145,260.145,0,0,1,27.979-1.215q8.14.083,16.048.651v8.312q-7.9-.565-16.048-.65a260.533,260.533,0,0,0-27.979,1.212Zm21.828,4.009h0v0Zm6.151-.011q-1.329-.013-2.654-.013Q3420.765,5259.214,3422.094,5259.227Zm-4.841,0q.858-.007,1.719-.009Q3418.111,5259.216,3417.252,5259.223Zm4.841-2.307q8.14.081,16.048.649-7.9-.564-16.048-.651-2.655-.026-5.289,0,1.288-.013,2.581-.013Q3420.737,5256.9,3422.094,5256.917ZM3415.944,5256.926Zm.435-.005.165,0Z" transform="translate(-3269.464 -5244.336)" fill="url(#linear-gradient)"/>
        <path id="Path_36647" data-name="Path 36647" d="M307.67,174.443c3.488-2.352,4.225-7.7,1.8-8.238-2.8-.623-6.156,5.235-4.55,7.932.535.9,1.592,1.018,2.755.306Zm-35.359,31.381c1.511-3.45,1.707-9.022.606-8.607-1.251.471-2.481,8.922-1.371,9.42.118.053.374.018.765-.813Zm-5.159,47.562q0-.767.023-1.536c.761-25.077,20.021-47.469,50.161-62.943l.328.4.757-.95.011-.007,0,0,.753-.937c-8.989-10.869-11.126-13.452-16.609-3.378-2.53,4.968-4.842,6.978-6.868,5.975-11.4-7.425-11.4-7.425-14.433,1.549-5.057,17.213-5.057,17.213-6.5,17.782-1.755.538-2.722.835-3.921,6.877-2.157,13.4-2.157,13.4-2.78,19.643-.044.444-.441,4.348-.707,4.569l-.216-.456v13.416Zm0,6.764v-53.31q0-.769.023-1.537c.858-28.278,25.24-53.143,62.222-68.523v53.31c-41.151,18.532-62.094,42.1-62.245,70.06Z" transform="translate(-267.152 -120.464)" opacity="0.33" fill="url(#linear-gradient)"/>
        <path id="Path_36648" data-name="Path 36648" d="M318.429,176.764l0,0-.011.007.008-.01Zm-29.478,15.9v-2.311q-.8.76-1.581,1.53V194.2q.776-.771,1.581-1.53Zm0-4.549v-2.336a85.554,85.554,0,0,0-8.7,9.517v2.336a85.552,85.552,0,0,1,8.7-9.517Zm-21.8,53.684V231.018l.139.361a42.82,42.82,0,0,0,.942-6.164c.88-8.174,1.533-11.82,2.964-19.812.923-4.438,1.452-4.613,3.205-5.195,1.537-.771,1.537-.771,7.622-19.693,2.271-6.62,2.271-6.62,12.674.168,1.818.906,4.851.339,8.98-7.5,4.083-7.436,4.989-6.34,13.658,4.143-30.14,15.474-49.4,37.866-50.161,62.943q-.022.769-.023,1.536Z" transform="translate(-267.152 -108.882)" fill="url(#radial-gradient)"/>
      </g>
      <g id="Group_1547" data-name="Group 1547" transform="translate(342.777 22.56)">
        <g id="Group_1544" data-name="Group 1544" transform="translate(0 186.474)">
          <g id="Group_1543" data-name="Group 1543">
            <g id="Group_1538" data-name="Group 1538" transform="translate(0 50.786)" opacity="0.11">
              <path id="Path_36570" data-name="Path 36570" d="M343.137,269.847a16.867,16.867,0,0,0-16.855-.009L225.819,327.722a2.373,2.373,0,0,0,0,4.109l101.3,58.5a14.871,14.871,0,0,0,14.875,0l101.454-58.445a2.373,2.373,0,0,0,0-4.111Z" transform="translate(-224.634 -267.586)" fill="url(#linear-gradient)"/>
            </g>
            <g id="Group_1539" data-name="Group 1539" transform="translate(0 33.857)" opacity="0.11">
              <path id="Path_36571" data-name="Path 36571" d="M343.137,260.734a16.863,16.863,0,0,0-16.855-.009L225.819,318.607a2.375,2.375,0,0,0,0,4.111l101.3,58.5a14.87,14.87,0,0,0,14.875,0l101.454-58.445a2.373,2.373,0,0,0,0-4.111Z" transform="translate(-224.634 -258.472)" fill="url(#linear-gradient)"/>
            </g>
            <g id="Group_1540" data-name="Group 1540" transform="translate(0 16.928)" opacity="0.11">
              <path id="Path_36572" data-name="Path 36572" d="M343.137,251.62a16.863,16.863,0,0,0-16.855-.007L225.819,309.495a2.375,2.375,0,0,0,0,4.111l101.3,58.5a14.87,14.87,0,0,0,14.875,0l101.454-58.445a2.373,2.373,0,0,0,0-4.111Z" transform="translate(-224.634 -249.359)" fill="url(#linear-gradient)"/>
            </g>
            <g id="Group_1541" data-name="Group 1541" opacity="0.11">
              <path id="Path_36573" data-name="Path 36573" d="M343.137,242.507a16.863,16.863,0,0,0-16.855-.007L225.819,300.382a2.375,2.375,0,0,0,0,4.111l101.3,58.5a14.879,14.879,0,0,0,14.875,0l101.454-58.447a2.372,2.372,0,0,0,0-4.109Z" transform="translate(-224.634 -240.246)" fill="url(#linear-gradient)"/>
            </g>
            <path id="Path_36574" data-name="Path 36574" d="M443.447,300.437l-100.31-57.931a16.863,16.863,0,0,0-16.855-.007L225.819,300.382a2.349,2.349,0,0,0-1.185,2.056v50.784a2.349,2.349,0,0,0,1.185,2.054l101.3,58.5a14.87,14.87,0,0,0,14.875,0l101.454-58.445a2.351,2.351,0,0,0,1.187-2.054V302.492h0A2.351,2.351,0,0,0,443.447,300.437Z" transform="translate(-224.634 -240.246)" opacity="0.5" fill="url(#linear-gradient)"/>
            <g id="Group_1542" data-name="Group 1542" opacity="0.11">
              <path id="Path_36575" data-name="Path 36575" d="M343.137,242.507a16.863,16.863,0,0,0-16.855-.007L225.819,300.382a2.375,2.375,0,0,0,0,4.111l101.3,58.5a14.879,14.879,0,0,0,14.875,0l101.454-58.447a2.372,2.372,0,0,0,0-4.109Z" transform="translate(-224.634 -240.246)" fill="url(#linear-gradient)"/>
            </g>
            <path id="Path_36576" data-name="Path 36576" d="M443.447,274.038,341.993,332.483a14.87,14.87,0,0,1-14.875,0l-101.3-58.5a2.354,2.354,0,0,1-.88-.886,2.376,2.376,0,0,0,.88,3.225l101.3,58.5a14.88,14.88,0,0,0,14.875,0l101.454-58.447a2.372,2.372,0,0,0,.88-3.223A2.355,2.355,0,0,1,443.447,274.038Z" transform="translate(-224.634 -212.074)" fill="url(#linear-gradient)"/>
          </g>
        </g>
        <path id="Path_36577" data-name="Path 36577" d="M348.5,311.155c-21.6,12.474-56.619,12.474-78.218,0s-21.6-32.7,0-45.173,56.621-12.474,78.22,0S370.1,298.681,348.5,311.155Z" transform="translate(-199.393 -39.724)" fill="#180d5b" opacity="0.2"/>
        <g id="Group_1391" data-name="Group 1391" transform="translate(33.679 0.818)">
          <g id="Group_1390" data-name="Group 1390" transform="translate(0 -0.818)">
            <g id="Group_1388" data-name="Group 1388" transform="translate(52.188 96.44)">
              <path id="Path_36140" data-name="Path 36140" d="M631.114,163.125l2.8,46.607a32.277,32.277,0,0,0,1.276,7.523l11.052,42.392a11.319,11.319,0,0,0-4.476-1.732c-.472-.023-.921-.047-1.372-.047h-.78a3.084,3.084,0,0,0-2.862,2.105c-.047.188-.094.378-.117.543,0,0,0,3.122,3.83,5.937.545.4,1.278.9,2.058,1.4a39.01,39.01,0,0,1,6.057,4.732,5.8,5.8,0,0,0,3.783,1.75,3.9,3.9,0,0,0,4.116-4.163c-.019-.237-.047-.663-.094-1.088l-.071-.569c-.024-.237-.378-2.6-.545-3.618a56.39,56.39,0,0,1-.709-6.907c-.5-10.03-2.129-35.339-6.409-49.341l5.956-50.6Z" transform="translate(-611.248 -122.422)" fill="#ffd5d3"/>
              <path id="Path_36142" data-name="Path 36142" d="M633.58,202.351c-.047.188-.094.378-.117.543a6.98,6.98,0,0,0,1.821,4.069c-.143-1.964-.261-4.046-.428-6.221A3.007,3.007,0,0,0,633.58,202.351Z" transform="translate(-608.078 -64.801)" fill="#535873"/>
              <path id="Path_36143" data-name="Path 36143" d="M633.463,203.207s0,3.122,3.83,5.937c.545.4,1.278.9,2.058,1.4a39.006,39.006,0,0,1,6.057,4.732,5.8,5.8,0,0,0,3.783,1.75c2.342.117,4.436-.634,4.116-4.163-.021-.237-.047-.663-.094-1.088l-.071-.569c-.047-.261-.047-.4-.07-.545-.284,1.184-1.586,1.492-2.6,1.445a5.935,5.935,0,0,1-3.933-1.412c-1.87-1.774-15.272-9.421-6.983-9.924l-.982-.16c-3.98-.468-4.589.85-4.99,2.058C633.533,202.853,633.487,203.043,633.463,203.207Z" transform="translate(-608.078 -65.114)" fill="#1c1c5d"/>
              <path id="Path_36141" data-name="Path 36141" d="M626.654,296.884l7.509-.616a7.294,7.294,0,0,0,5.293-2.422,2.833,2.833,0,0,0,.623-2.537c-4.154-18.072-24.916-114.274-14.555-136.122,11.569-24.392,36.664-4.988,36.664-4.988s7.542,17.88,3.827,28.3c-3.334,9.358-17.922,13.249-17.922,13.249l-2.577,42.277c2.5,15.164,4.72,61.568,5.521,66.016a9.951,9.951,0,0,1-.893,6.111c-1.884,2.817-6.153,1.823-9.452,1.158l-9.757-1.922a8.567,8.567,0,0,1-6.579-5.425A2.808,2.808,0,0,1,626.654,296.884Z" transform="translate(-622.659 -142.882)" fill="#ffd5d3"/>
              <path id="Path_36145" data-name="Path 36145" d="M625.689,208.656l4.819-.395c-1.919.536-2.561,2.288-.622,3.628,2.208,1.525,20.119,4.041,20.187-.073.082.813.12,1.459.139,1.781a7.282,7.282,0,0,1-1.031,4.33c-1.859,2.927-6.153,1.823-9.452,1.158l-9.757-1.922a8.571,8.571,0,0,1-6.579-5.425A2.808,2.808,0,0,1,625.689,208.656Z" transform="translate(-621.694 -54.654)" fill="#1c1c5d"/>
            </g>
            <path id="Path_36146" data-name="Path 36146" d="M626.675,167.451s38.106,7.7,43.665-.573c2.488-3.7-11.277-44.368-11.277-44.368l-2.812-2.4L646.6,122.63c-1.287.329-3.085-1.649-3.085-1.649,1.461,5.183,9.121,30.428,10.932,36.351.284.921-28.02,2.213-28.02,2.213C628.561,160.189,628.728,166.61,626.675,167.451Z" transform="translate(-565.39 -77.173)" fill="url(#linear-gradient-24)"/>
            <path id="Path_36147" data-name="Path 36147" d="M644.913,124.493a12.081,12.081,0,0,1-7.786,3.949,15.709,15.709,0,0,1-3.855-.5c-2.312-.63-6.259-1.92-8.258-2.6.66-.409,1.337-.834,2.03-1.226l11.076-6.388,5.441,1.889A3.058,3.058,0,0,1,644.913,124.493Z" transform="translate(-567.293 -80.385)" fill="#fbb2b8"/>
            <g id="Group_1389" data-name="Group 1389" transform="translate(52.718 0.697)">
              <path id="Path_36148" data-name="Path 36148" d="M623.763,129.406c2.523,10.544,9.624,11.3,16.146,7.868,7.269-3.83,11.5-12.68,11.714-19.05.327-9.7-6-15.81-14.041-16.082C619.254,101.525,622.889,125.753,623.763,129.406Z" transform="translate(-622.884 -102.131)" fill="#fff"/>
              <path id="Path_36149" data-name="Path 36149" d="M640.771,111.247V132.39c0,.987-.914,1.938-2.587,2.547-2.89,1.064-6.957.8-9.125-.609a2.407,2.407,0,0,1-1.292-1.938c-.038,0-.038-21.143-.038-21.143Z" transform="translate(-616.346 -89.829)" fill="#fff"/>
            </g>
            <path id="Path_36150" data-name="Path 36150" d="M619.78,144.431l-4.074,6.607c-2.392-1.652-3.853-2.737-3.853-2.737A28.668,28.668,0,0,1,606,146.261a5.444,5.444,0,0,1-1.555-8.453l.4-.451s-2.843-2.589-3.52-3.172c-.754-.66-1.076-1.4-.761-1.952.6-1.071,1.7-.573,2.627.063,1.741,1.189,7.006,4.694,7.006,4.694a7.618,7.618,0,0,1,1.809,1.762l.992,1.337a10.14,10.14,0,0,0,4.295,3.3S618.239,143.8,619.78,144.431Z" transform="translate(-600.446 -61.657)" fill="#fbb2b8"/>
            <path id="Path_36151" data-name="Path 36151" d="M689.267,132.477c.077-10.775-7.291-15.114-14.7-14.139a15.583,15.583,0,0,0-4.241,1.135c-.578.24-5-2.19-5.575-1.912l-14.259,8.284a36.229,36.229,0,0,0-8.164,6.214,14.851,14.851,0,0,0-3.823,8.364s-3.207,26.941-3.8,30.01c-.24,1.273-25.548-8.463-25.548-8.463-1.654.6-3.686,4.478-3.287,6.191,0,0,28.516,20.83,37.935,13.939,3.474-2.878,4.488-17.229,5.435-20.13-.794,3.813-.274,13.03-1.678,24.98-8.529,21.164-2.759,44.141-2.3,52.094a4.218,4.218,0,0,0,2,3.388c9.64,5.81,31.448,2.705,38.44.251,1.4-5.228,12.65-43.318-1.05-59.072C677.275,156.715,689.267,132.477,689.267,132.477Z" transform="translate(-593.199 -80.643)" fill="url(#linear-gradient-25)"/>
            <path id="Path_36152" data-name="Path 36152" d="M624.486,107.957c4.992-7.972,20.784-9.475,32.139-.686a12.827,12.827,0,0,0,1.72,1.342,16.443,16.443,0,0,1,7.046,7.859,18.9,18.9,0,0,1,1.6,9.522,5.194,5.194,0,0,0,1.32,3.919c.056.066.129.155.214.263a11.651,11.651,0,0,1,1.757,11.242,35.473,35.473,0,0,0-2.317,9.87,13.49,13.49,0,0,1-6.828,11.285c-3.372,1.884-7.446,3.219-11.411,2.166-9.332-2.483-7.476-12.121-17.882-16.738-5.277-2.345-1.685-14.44.966-17.445a17.237,17.237,0,0,1-4.013-6.29,5.578,5.578,0,0,0-2.277-2.676c-.2-.117-.4-.244-.595-.383C621.937,118.4,621.223,112.4,624.486,107.957Z" transform="translate(-570.784 -101.302)" fill="url(#linear-gradient-26)"/>
            <path id="Path_36679" data-name="Path 36679" d="M641.609,102.4c3.957,0,10.315,1.234,15.016,4.873a12.827,12.827,0,0,0,1.72,1.342,16.443,16.443,0,0,1,7.046,7.859,18.9,18.9,0,0,1,1.6,9.522,5.194,5.194,0,0,0,1.32,3.919c.056.066.129.155.214.263a11.651,11.651,0,0,1,1.757,11.242,35.473,35.473,0,0,0-2.317,9.87,13.49,13.49,0,0,1-6.828,11.285c-3.372,1.884-7.446,3.219-11.411,2.166,14,0,14.047-5.611,8.541-13.694,0-11.6-29.458-5.094-29.458-40.882C627.049,105.562,629.75,102.4,641.609,102.4Z" transform="translate(-570.784 -101.302)" fill="url(#linear-gradient-27)"/>
            <path id="Path_36153" data-name="Path 36153" d="M626.251,114.173c-1.682,2.241-1.868,4.946-.411,6.038s4,.162,5.683-2.079,1.87-4.943.413-6.038S627.936,111.932,626.251,114.173Z" transform="translate(-567.502 -88.607)" fill="#fff"/>
            <path id="Path_36677" data-name="Path 36677" d="M624.954,144.808c1.261-8.971,3.646-21.257,3.646-21.257s15.716,21.26-5.232,46.1C623.855,165.056,623.693,153.779,624.954,144.808Z" transform="translate(-568.968 -63.359)" fill="url(#linear-gradient-28)"/>
            <path id="Path_36678" data-name="Path 36678" d="M631.415,131.033s-10.941,19.71,0,38.305C626.162,152.271,631.415,131.033,631.415,131.033Z" transform="translate(-539.968 -66.358)" fill="url(#linear-gradient-29)"/>
          </g>
        </g>
      </g>
      <g id="Group_1568" data-name="Group 1568" transform="translate(302.777 108.936)">
        <g id="Group_1567" data-name="Group 1567" style="isolation: isolate">
          <g id="Group_1566" data-name="Group 1566" style="isolation: isolate">
            <g id="Group_1565" data-name="Group 1565">
              <path id="Union_80" data-name="Union 80" d="M3379,5220.935v-6.764c0,10.3,3.143,20.182,8.912,29.353v-35.666l.235.015-.457-2.446-2.454-.207c-.363-.094-.667-.449-1.054-1.224a14.832,14.832,0,0,1-.975-3.124c-1.208-5.432-1.88-5.829-2.2-6.019-.753.782-1.305,3.115-1.84,5.371-.038.162-.11.373-.165.531v-33.13c0,28.4,23.909,53.694,60.921,69.446v53.31C3399.869,5271.989,3381.081,5250.57,3379,5220.935Zm17.323,33.52a110.909,110.909,0,0,0,25.907,20.331V5237.9a110.975,110.975,0,0,1-25.907-20.332Zm18.63,10.485v-3.762q1.454.98,2.957,1.932v3.763Q3416.406,5265.918,3414.953,5264.939Zm-5.614-4.015v-3.761q1.35,1.025,2.755,2.031v3.763Q3410.693,5261.953,3409.34,5260.924Zm5.614-3.509v-3.761q1.454.978,2.957,1.932v3.763Q3416.406,5258.394,3414.953,5257.415Zm-10.81-.694v-3.764q1.247,1.076,2.545,2.127v3.762Q3405.39,5257.793,3404.143,5256.72Zm-4.76-4.385v-3.763q1.133,1.119,2.325,2.214v3.762Q3400.519,5253.453,3399.383,5252.335Zm4.76-3.14v-3.761q1.247,1.073,2.545,2.125v3.763Q3405.39,5250.27,3404.143,5249.195Zm-4.76-4.384v-3.761q1.133,1.115,2.325,2.213v3.763Q3400.519,5245.93,3399.383,5244.811Zm0-7.524v-3.763q1.133,1.119,2.325,2.216v3.76Q3400.519,5238.4,3399.383,5237.287ZM3379,5214.171v0Z" transform="translate(-3379 -5167.625)" opacity="0.33" fill="url(#linear-gradient)"/>
              <path id="Path_36655" data-name="Path 36655" d="M268.222,231.586v-2.311a55.839,55.839,0,0,0,5.124,14.258v2.311a55.84,55.84,0,0,1-5.124-14.258Zm0-4.547v-2.312a54.5,54.5,0,0,0,3.4,10.622v2.312a54.5,54.5,0,0,1-3.4-10.622Zm7.841,28.94V220.312l-2.285-.176c-.44-.164-1.608-.6-2.734-5.849-.771-3.593-1.244-4.137-1.529-4.461-.361.2-1.017,1.284-2.094,5.355l-.27.659v10.786c0,10.3,3.143,20.181,8.912,29.354Z" transform="translate(-267.152 -180.078)" fill="url(#radial-gradient)"/>
              <path id="Path_36657" data-name="Path 36657" d="M349.714,316.985v-2.9q2.475.408,4.988.766v2.9q-2.512-.359-4.988-.765Zm10.04,1.435v-2.9q2.559.312,5.151.574v2.9q-2.592-.26-5.151-.574Zm10.332,1.044v-2.9q2.606.209,5.238.367v2.9q-2.633-.158-5.238-.368Zm10.566.631v-2.9q2.661.1,5.347.156v2.9q-2.686-.051-5.347-.156Zm10.731.2v-2.9q2.684,0,5.347-.061v2.9q-2.663.057-5.347.06Zm10.682-.23v-2.9q2.639-.111,5.253-.273v2.9q-2.614.164-5.253.273Zm10.452-.649v-2.9q2.6-.213,5.177-.481v2.9q-2.573.266-5.177.481Zm10.262-1.06v-2.9q2.526-.314,5.022-.676v2.9q-2.494.361-5.022.675Zm10.01-1.454V314q2.461-.41,4.89-.868v2.9q-2.428.457-4.89.866Zm9.707-1.827v-2.9q2.39-.5,4.741-1.051v2.9q-2.351.547-4.741,1.051Zm9.433-2.2v-2.9q2.312-.592,4.583-1.228v2.9q-2.269.635-4.583,1.227Zm9.079-2.54v-2.9q2.243-.681,4.437-1.4v2.9q-2.2.723-4.437,1.406Zm8.755-2.884v-2.9q2.136-.76,4.225-1.559v2.9q-2.089.8-4.225,1.559Zm8.375-3.207v-2.9q2.038-.838,4.025-1.713v2.9q-1.987.877-4.025,1.715Zm7.946-3.5v-2.9q1.934-.912,3.812-1.861v2.9q-1.879.949-3.812,1.862Zm7.539-3.808v-2.9q1.824-.984,3.589-2v2.9q-1.767,1.019-3.589,2Zm7.061-4.073v-2.9q1.716-1.057,3.373-2.149v2.9q-1.656,1.092-3.373,2.149Zm6.6-4.351v-2.9q1.583-1.117,3.1-2.263v2.9q-1.518,1.148-3.1,2.263Zm6.074-4.586v-2.9q1.462-1.185,2.855-2.4v2.9q-1.393,1.213-2.855,2.4Zm5.558-4.836v-2.9q1.317-1.234,2.562-2.494v2.9q-1.246,1.26-2.562,2.494Zm5-5.057v-2.9q1.172-1.287,2.274-2.6v2.9q-1.1,1.312-2.274,2.6Zm4.4-5.247v-2.9q1.031-1.345,1.984-2.712v2.9q-.952,1.369-1.984,2.714Zm3.8-5.456v-2.9q.87-1.384,1.659-2.787v2.9q-.788,1.406-1.659,2.789Zm3.153-5.617v-2.9q.711-1.433,1.338-2.887v2.9q-.627,1.453-1.338,2.889Zm2.5-5.8v-2.9q.539-1.466.99-2.946v2.9q-.451,1.482-.99,2.946Zm1.81-5.946v-2.9q.363-1.5.636-3.017v2.9q-.274,1.515-.636,3.016Zm-189.863,65.8v-2.9q2.475.406,4.988.765v2.9q-2.512-.359-4.988-.767Zm10.04,1.436v-2.9q2.559.312,5.151.574v2.9q-2.592-.262-5.151-.574Zm10.332,1.043v-2.9q2.606.209,5.238.366v2.9q-2.633-.158-5.238-.368Zm10.566.631v-2.9q2.661.1,5.347.156v2.9q-2.686-.051-5.347-.156Zm10.731.2v-2.9q2.684,0,5.347-.06v2.9q-2.663.057-5.347.061Zm10.682-.23v-2.9q2.639-.111,5.253-.273v2.9q-2.614.162-5.253.273Zm10.452-.65v-2.9q2.6-.215,5.177-.481v2.9q-2.573.266-5.177.481Zm10.262-1.059v-2.9q2.526-.314,5.022-.676v2.9q-2.494.363-5.022.676Zm10.01-1.454v-2.9q2.461-.41,4.89-.868v2.9q-2.428.457-4.89.868Zm9.707-1.828v-2.9q2.39-.5,4.741-1.051v2.9q-2.351.549-4.741,1.051Zm9.433-2.2v-2.9q2.312-.592,4.583-1.227v2.9q-2.269.635-4.583,1.228Zm9.079-2.54v-2.9q2.243-.682,4.437-1.406v2.9q-2.2.723-4.437,1.406Zm8.755-2.886v-2.9q2.136-.76,4.225-1.56v2.9q-2.089.8-4.225,1.559Zm8.375-3.207v-2.9q2.038-.838,4.025-1.715v2.9q-1.987.875-4.025,1.713Zm7.946-3.5v-2.9q1.934-.912,3.812-1.861v2.9q-1.879.949-3.812,1.862Zm7.539-3.807v-2.9q1.824-.984,3.589-2v2.9q-1.767,1.019-3.589,2Zm7.061-4.073v-2.9q1.716-1.058,3.373-2.149v2.9q-1.656,1.09-3.373,2.149Zm6.6-4.35v-2.9q1.583-1.115,3.1-2.263v2.9q-1.518,1.146-3.1,2.263Zm6.074-4.585v-2.9q1.462-1.183,2.855-2.4v2.9q-1.393,1.211-2.855,2.4Zm5.558-4.836v-2.9q1.317-1.234,2.562-2.494v2.9q-1.246,1.261-2.562,2.494Zm5-5.057v-2.9q1.172-1.287,2.274-2.6v2.9q-1.1,1.312-2.274,2.6Zm4.4-5.248v-2.9q1.031-1.344,1.984-2.714v2.9q-.952,1.367-1.984,2.712Zm3.8-5.456v-2.9q.87-1.382,1.659-2.787v2.9q-.788,1.4-1.659,2.787Zm3.153-5.617v-2.9q.711-1.435,1.338-2.889v2.9q-.627,1.455-1.338,2.889Zm2.5-5.8v-2.9q.539-1.463.99-2.946v2.9q-.451,1.484-.99,2.947Zm1.81-5.948v-2.9q.363-1.5.636-3.017v2.9q-.274,1.517-.636,3.016Zm-189.863,65.8v-2.9q2.475.406,4.988.766v2.9q-2.512-.359-4.988-.767Zm10.04,1.436v-2.9q2.559.312,5.151.574v2.9q-2.592-.262-5.151-.574Zm10.332,1.044v-2.9q2.606.209,5.238.368v2.9q-2.633-.158-5.238-.366Zm10.566.631v-2.9q2.661.1,5.347.156v2.9q-2.686-.051-5.347-.156Zm10.731.2v-2.9q2.684,0,5.347-.062v2.9q-2.663.057-5.347.06Zm10.682-.23v-2.9q2.639-.111,5.253-.273v2.9q-2.614.164-5.253.273Zm10.452-.649v-2.9q2.6-.215,5.177-.481v2.9q-2.573.264-5.177.481Zm10.262-1.06v-2.9q2.526-.313,5.022-.676v2.9q-2.494.363-5.022.676Zm10.01-1.454v-2.9q2.461-.41,4.89-.868v2.9q-2.428.457-4.89.868Zm9.707-1.827v-2.9q2.39-.5,4.741-1.051v2.9q-2.351.547-4.741,1.051Zm9.433-2.2v-2.9q2.312-.592,4.583-1.228v2.9q-2.269.635-4.583,1.227Zm9.079-2.54v-2.9q2.243-.68,4.437-1.4v2.9q-2.2.723-4.437,1.406Zm8.755-2.884v-2.9q2.136-.76,4.225-1.559v2.9q-2.089.8-4.225,1.56Zm8.375-3.207v-2.9q2.038-.838,4.025-1.715v2.9q-1.987.875-4.025,1.715Zm7.946-3.5v-2.9q1.934-.914,3.812-1.862v2.9q-1.879.949-3.812,1.861Zm7.539-3.807v-2.9q1.824-.986,3.589-2v2.9q-1.767,1.019-3.589,2Zm7.061-4.073v-2.9q1.716-1.06,3.373-2.151v2.9q-1.656,1.09-3.373,2.149Zm6.6-4.351v-2.9q1.583-1.117,3.1-2.264v2.9q-1.518,1.148-3.1,2.263Zm6.074-4.586v-2.9q1.462-1.185,2.855-2.4v2.9q-1.393,1.213-2.855,2.4Zm5.558-4.836v-2.9q1.317-1.232,2.562-2.492v2.9q-1.246,1.26-2.562,2.494Zm5-5.057v-2.9q1.172-1.287,2.274-2.6v2.9q-1.1,1.312-2.274,2.6Zm4.4-5.247v-2.9q1.031-1.344,1.984-2.714v2.9q-.952,1.369-1.984,2.714Zm3.8-5.457v-2.9q.87-1.383,1.659-2.787v2.9q-.788,1.4-1.659,2.787Zm3.153-5.616v-2.9q.711-1.435,1.338-2.889v2.9q-.627,1.453-1.338,2.888Zm2.5-5.8v-2.9q.539-1.465.99-2.947v2.9q-.451,1.482-.99,2.946Zm1.81-5.946v-2.9q.363-1.5.636-3.016v2.9q-.274,1.517-.636,3.017ZM432.789,301.1v-6.787q2.461-.41,4.89-.868v6.787q-2.428.457-4.89.868Zm95.692-48.338v-6.785q1.019-1.338,1.959-2.7v6.785q-.939,1.363-1.959,2.7Zm-42.4,32.177v-7.5q1.934-.912,3.812-1.862v7.5q-1.879.949-3.812,1.862Zm7.816-3.957v-7.5q1.818-.986,3.58-2.009v7.5q-1.761,1.023-3.58,2.009Zm-71.121,21.572v-8.705q2.526-.314,5.022-.676v8.705q-2.494.363-5.022.676Zm109.467-55.238v-8.705q.862-1.383,1.645-2.79v8.705q-.782,1.406-1.645,2.79ZM442.5,299.267v-9.294q2.39-.5,4.741-1.051v9.294q-2.351.547-4.741,1.051Zm81.6-41.237v-9.3q1.168-1.287,2.263-2.6v9.3q-1.095,1.314-2.263,2.6Zm-45.955,30.407v-10.13q2.038-.838,4.025-1.715v10.13q-1.987.877-4.025,1.715Zm22.826-11.557V266.75q1.7-1.056,3.343-2.141v10.13q-1.64,1.086-3.343,2.141Zm-88.447,26.727V292.15q2.6-.215,5.177-.481v11.458q-2.573.266-5.177.481Zm122.867-61.937V230.212q.7-1.427,1.317-2.873V238.8q-.617,1.447-1.317,2.873Zm-185.669,59.5V288.288q2.475.408,4.988.767V301.94q-2.512-.359-4.988-.767Zm102.214-4.1v-13.5q2.312-.592,4.583-1.228v13.5q-2.269.635-4.583,1.228Zm67.189-33.976V249.6q1.317-1.244,2.567-2.513v13.5q-1.248,1.271-2.567,2.513Zm-49.355,28.55V277.407q2.136-.758,4.225-1.559v14.238q-2.089.8-4.225,1.559Zm37.762-19.11V258.3q1.587-1.125,3.11-2.282v14.238q-1.522,1.156-3.11,2.282Zm-105.46,31.724V289.481q2.639-.111,5.253-.273v14.777q-2.614.162-5.253.273Zm135.784-68.374V221.107q.533-1.476.982-2.968v14.777q-.447,1.492-.982,2.968ZM359.755,302.609V284.953q2.559.314,5.151.574v17.656q-2.592-.262-5.151-.574Zm31.628,1.877V286.832q2.684,0,5.347-.06v17.655q-2.663.057-5.347.06Zm69.625-9.958V276.874q2.243-.68,4.437-1.4v17.655q-2.2.724-4.437,1.4Zm52.589-26.6V250.269q1.448-1.178,2.829-2.386v17.655q-1.381,1.207-2.829,2.386Zm26.035-37.992V212.278q.355-1.5.622-3.02v17.655q-.265,1.519-.622,3.02ZM380.652,304.283v-20.9q2.661.1,5.347.156v20.9q-2.686-.051-5.347-.156Zm-10.566-.631V280.71q2.606.209,5.238.366v22.943q-2.633-.158-5.238-.367ZM540.967,189.738c-2.2,47.293-70.217,84.827-152.574,84a250.505,250.505,0,0,1-48.915-5.217v53.31a250.512,250.512,0,0,0,48.915,5.217c82.357.827,150.37-36.707,152.574-84v-53.31Z" transform="translate(-241 -187.437)" opacity="0.2" fill="url(#linear-gradient)"/>
              <path id="Path_36660" data-name="Path 36660" d="M282.935,259.372v-3.763q1.134,1.119,2.324,2.215v3.762q-1.189-1.1-2.324-2.214Zm4.76,4.385v-3.763q1.246,1.076,2.545,2.126v3.762q-1.3-1.051-2.545-2.125Zm5.2,4.2V264.2q1.352,1.027,2.756,2.032v3.763q-1.4-1-2.756-2.033Zm5.614,4.016v-3.763q1.454.98,2.957,1.932v3.763q-1.5-.953-2.957-1.932Zm-15.57-20.129v-3.762q1.134,1.117,2.324,2.213v3.763q-1.189-1.1-2.324-2.215Zm4.76,4.385v-3.762q1.246,1.074,2.545,2.126v3.762q-1.3-1.051-2.545-2.126Zm5.2,4.206v-3.763q1.352,1.029,2.756,2.033v3.762q-1.4-1-2.756-2.032Zm5.614,4.014v-3.762q1.454.978,2.957,1.932v3.762q-1.5-.953-2.957-1.932Zm-15.57-20.128v-3.763q1.134,1.119,2.324,2.215v3.762q-1.189-1.1-2.324-2.214Zm4.76,4.385v-3.763q1.246,1.074,2.545,2.126v3.762q-1.3-1.051-2.545-2.125Zm5.2,4.2v-3.762q1.352,1.027,2.756,2.032v3.762q-1.4-1-2.756-2.032Zm5.614,4.014v-3.762q1.454.98,2.957,1.932v3.762q-1.5-.953-2.957-1.932ZM282.935,236.8v-3.763q1.134,1.117,2.324,2.214v3.763q-1.189-1.094-2.324-2.213Zm4.76,4.385v-3.763q1.246,1.074,2.545,2.125v3.764q-1.3-1.051-2.545-2.126Zm5.2,4.2v-3.763q1.352,1.029,2.756,2.032v3.764q-1.4-1-2.756-2.033ZM298.5,249.4V245.64q1.454.98,2.957,1.933v3.763q-1.5-.953-2.957-1.932Zm7.278-4.465a111.012,111.012,0,0,1-25.908-20.331v36.884a110.94,110.94,0,0,0,25.908,20.332V244.939Z" transform="translate(-262.552 -174.662)" fill="url(#radial-gradient)"/>
            </g>
          </g>
        </g>
      </g>
    </g>
  </g>
</svg>
