<svg xmlns="http://www.w3.org/2000/svg" xmlns:xlink="http://www.w3.org/1999/xlink" width="540" height="540" viewBox="0 0 540 540">
  <defs>
    <clipPath id="clip-path">
      <rect id="Rectangle_1307" data-name="Rectangle 1307" width="540" height="540" transform="translate(360 1255)" fill="#fff"/>
    </clipPath>
    <linearGradient id="linear-gradient" x1="0.5" y1="0.143" x2="0.5" y2="1.233" gradientUnits="objectBoundingBox">
      <stop offset="0" stop-color="#000237" stop-opacity="0"/>
      <stop offset="1" stop-color="#42e8e0"/>
    </linearGradient>
    <linearGradient id="linear-gradient-2" y1="0.5" x2="1" y2="0.5" gradientUnits="objectBoundingBox">
      <stop offset="0" stop-color="#5761d7"/>
      <stop offset="0.073" stop-color="#5471d8"/>
      <stop offset="0.279" stop-color="#4d9bda"/>
      <stop offset="0.48" stop-color="#48bddd"/>
      <stop offset="0.672" stop-color="#44d4de"/>
      <stop offset="0.849" stop-color="#42e3df"/>
      <stop offset="1" stop-color="#42e8e0"/>
    </linearGradient>
    <linearGradient id="linear-gradient-9" x1="1" y1="1" x2="0" y2="1" gradientUnits="objectBoundingBox">
      <stop offset="0" stop-color="#1dd0c7"/>
      <stop offset="0.502" stop-color="#42e8e0"/>
      <stop offset="0.503" stop-color="#1dd0c7"/>
      <stop offset="1" stop-color="#42e8e0"/>
    </linearGradient>
    <radialGradient id="radial-gradient" cx="0.689" cy="0.326" r="0.5" gradientUnits="objectBoundingBox">
      <stop offset="0" stop-color="#42e8e0"/>
      <stop offset="1" stop-color="#00d1c7"/>
    </radialGradient>
    <linearGradient id="linear-gradient-10" x1="0.5" x2="0.5" y2="1" gradientUnits="objectBoundingBox">
      <stop offset="0" stop-color="#000128"/>
      <stop offset="1" stop-color="#000128" stop-opacity="0"/>
    </linearGradient>
    <radialGradient id="radial-gradient-4" cx="0.722" cy="0.311" r="0.282" gradientTransform="translate(0 0.021) scale(1 0.933)" gradientUnits="objectBoundingBox">
      <stop offset="0" stop-color="#fddd4d"/>
      <stop offset="1" stop-color="#f8c332"/>
    </radialGradient>
    <linearGradient id="linear-gradient-21" x1="0.312" y1="0.5" x2="1.312" y2="0.5" gradientUnits="objectBoundingBox">
      <stop offset="0" stop-color="#c0bff6"/>
      <stop offset="0.294" stop-color="#c4c3f6"/>
      <stop offset="0.64" stop-color="#d2d2f9"/>
      <stop offset="1" stop-color="#e9e9fd"/>
    </linearGradient>
    <linearGradient id="linear-gradient-23" x1="0.312" y1="0.5" x2="1.312" y2="0.5" gradientUnits="objectBoundingBox">
      <stop offset="0" stop-color="#a6a4fd"/>
      <stop offset="1" stop-color="#a0a0b4"/>
    </linearGradient>
    <linearGradient id="linear-gradient-24" x1="0.5" x2="0.5" y2="1" gradientUnits="objectBoundingBox">
      <stop offset="0" stop-color="#453c9e"/>
      <stop offset="1" stop-color="#1f147e"/>
    </linearGradient>
    <linearGradient id="linear-gradient-25" x1="0.18" y1="3.368" x2="0.185" gradientUnits="objectBoundingBox">
      <stop offset="0" stop-color="#453c9e"/>
      <stop offset="1" stop-color="#08004e"/>
    </linearGradient>
    <linearGradient id="linear-gradient-27" x1="1.324" y1="0.674" x2="0.304" y2="0.852" xlink:href="#linear-gradient-24"/>
    <linearGradient id="linear-gradient-30" x1="1.193" y1="0.728" x2="-0.126" y2="0.966" gradientUnits="objectBoundingBox">
      <stop offset="0" stop-color="#24126a"/>
      <stop offset="1" stop-color="#120935"/>
    </linearGradient>
    <radialGradient id="radial-gradient-5" cx="0.725" cy="0.23" r="0.5" gradientUnits="objectBoundingBox">
      <stop offset="0" stop-color="#d5ae00"/>
      <stop offset="1" stop-color="#f8c332"/>
    </radialGradient>
  </defs>
  <g id="Mask_Group_2" data-name="Mask Group 2" transform="translate(-360 -1255)" clip-path="url(#clip-path)">
    <g id="Group_1462" data-name="Group 1462" transform="translate(177.223 1283.44)">
      <path id="Subtraction_9" data-name="Subtraction 9" d="M1801.275,5157.242a23.418,23.418,0,0,0-5.07-9.735,39.719,39.719,0,0,0-10.537-8.573,66.518,66.518,0,0,0-18.194-7.03,92.573,92.573,0,0,0-41.394,0,66.518,66.518,0,0,0-18.194,7.03,39.716,39.716,0,0,0-10.538,8.573,23.452,23.452,0,0,0-5.069,9.728l0-243.174h109v243.181Z" transform="translate(-1294 -4890)" opacity="0.5" fill="url(#linear-gradient)" style="mix-blend-mode: lighten;isolation: isolate"/>
      <g id="Path_36756" data-name="Path 36756" transform="translate(320.608 121.833)" fill="none">
        <path d="M308.7,288.247c-12.493,7.233-32.751,7.233-45.245,0s-12.5-18.962,0-26.2,32.752-7.233,45.246,0S321.194,281.014,308.7,288.247Z" stroke="none"/>
        <path d="M 286.0775756835938 293.0721740722656 C 290.186767578125 293.0721740722656 294.191162109375 292.6212158203125 297.9795532226562 291.7317810058594 C 301.8907470703125 290.8135070800781 305.3964233398438 289.4664001464844 308.3992309570312 287.7278137207031 C 311.3771057128906 286.0038452148438 313.6774597167969 284.0013122558594 315.2363891601562 281.7758178710938 C 316.7188415527344 279.6594848632812 317.4705505371094 277.4303283691406 317.4706420898438 275.1502685546875 C 317.4707336425781 272.8700866699219 316.7190856933594 270.6407165527344 315.2366333007812 268.5241088867188 C 313.6777038574219 266.2983093261719 311.3772277832031 264.29541015625 308.3992004394531 262.5710754394531 C 305.3962097167969 260.83251953125 301.8903198242188 259.4854125976562 297.9789428710938 258.5671691894531 C 294.1904296875 257.6777648925781 290.1859130859375 257.2267761230469 286.07666015625 257.2267761230469 C 281.9674072265625 257.2267761230469 277.962890625 257.6777648925781 274.1743774414062 258.5671691894531 C 270.2630310058594 259.4854125976562 266.7571411132812 260.83251953125 263.754150390625 262.5710754394531 C 260.7763671875 264.2950134277344 258.4761352539062 266.2975158691406 256.9172973632812 268.5229187011719 C 255.4349517822266 270.6391906738281 254.6833038330078 272.8682556152344 254.6832427978516 275.1482543945312 C 254.6831817626953 277.4284973144531 255.4348754882812 279.6579284667969 256.9174499511719 281.774658203125 C 258.4765014648438 284.00048828125 260.7770385742188 286.0034484863281 263.7552185058594 287.7278137207031 C 266.7582092285156 289.4664001464844 270.2640991210938 290.8135070800781 274.1754455566406 291.7317810058594 C 277.9639282226562 292.6212158203125 281.9684143066406 293.0721740722656 286.0775756835938 293.0721740722656 M 286.0775756835938 293.6721801757812 C 277.8897094726562 293.6721801757812 269.7017211914062 291.8638000488281 263.45458984375 288.2470703125 C 250.9601440429688 281.0126953125 250.9591369628906 269.2852783203125 263.4535217285156 262.0518188476562 C 275.9477844238281 254.8184204101562 296.20556640625 254.8184204101562 308.6998291015625 262.0518188476562 C 321.1942443847656 269.2863159179688 321.1942443847656 281.0137939453125 308.6998291015625 288.2470703125 C 302.4531860351562 291.8638000488281 294.2654418945312 293.6721801757812 286.0775756835938 293.6721801757812 Z" stroke="none" fill="#42e8e0"/>
      </g>
      <path id="Path_36198" data-name="Path 36198" d="M491.741,295.392l-.243-.419L622.878,219.1c1.513-.874,2.346-2.021,2.346-3.23s-.833-2.359-2.346-3.233l-23.12-13.378.243-.419,23.119,13.378c1.67.966,2.589,2.262,2.589,3.652s-.92,2.687-2.589,3.649Z" transform="translate(133.068 88.451)" fill="#42e8e0"/>
      <path id="Path_36199" data-name="Path 36199" d="M430.168,324.415a6.831,6.831,0,0,1-3.332-.831l-106-61.392a2.587,2.587,0,0,1-1.514-2.075,1.94,1.94,0,0,1,1.109-1.646l105.3-60.748a6.6,6.6,0,0,1,5.919.236l106,61.392a2.589,2.589,0,0,1,1.516,2.075,1.943,1.943,0,0,1-1.109,1.646l-105.3,60.748A5.285,5.285,0,0,1,430.168,324.415ZM321.1,261.741l106,61.393a5.99,5.99,0,0,0,5.4.234l105.3-60.748a1.441,1.441,0,0,0,.848-1.194,2.1,2.1,0,0,0-1.256-1.623l-106-61.392a5.986,5.986,0,0,0-5.4-.236l-105.3,60.748a1.443,1.443,0,0,0-.849,1.194,2.1,2.1,0,0,0,1.256,1.623Z" transform="translate(23.321 78.058)" fill="#42e8e0"/>
      <path id="Path_36205" data-name="Path 36205" d="M170.636,75.807,2.963-20.954a11.711,11.711,0,0,0-11.688,0l-30.1,17.39L-40-3.445l31.033-17.93a12.208,12.208,0,0,1,12.172,0l168.4,97.182-.363.209Z" transform="translate(204.937 242.174)" fill="#42e8e0"/>
      <path id="Path_36211" data-name="Path 36211" d="M291.172,201.017a13.158,13.158,0,0,1-6.434-1.536l-29.685-17.152c-1.766-1.02-2.739-2.394-2.739-3.867s.972-2.849,2.737-3.867l29.685-17.15a14.23,14.23,0,0,1,12.867,0l29.686,17.15c1.765,1.02,2.737,2.394,2.737,3.869s-.972,2.847-2.737,3.867L297.6,199.48A13.148,13.148,0,0,1,291.172,201.017ZM285,199.028a13.646,13.646,0,0,0,12.348,0l29.685-17.15c1.6-.922,2.476-2.135,2.476-3.415s-.879-2.494-2.478-3.418L297.345,157.9a13.652,13.652,0,0,0-12.347,0l-29.686,17.15c-1.6.924-2.476,2.135-2.476,3.416s.879,2.493,2.476,3.415Z" transform="translate(-28.698 133.908)" fill="#42e8e0"/>
      <path id="Path_36496" data-name="Path 36496" d="M290.776,156.241a11.442,11.442,0,0,1-5.595-1.337L255.5,137.753a3.589,3.589,0,0,1,0-6.765l74.686-43.15a12.379,12.379,0,0,1,11.189,0l29.686,17.152a3.59,3.59,0,0,1,0,6.767L296.371,154.9A11.442,11.442,0,0,1,290.776,156.241Zm-5.335-1.787a11.8,11.8,0,0,0,10.67,0L370.8,111.3a3.083,3.083,0,0,0,0-5.864L341.11,88.288a11.8,11.8,0,0,0-10.67,0l-74.686,43.15a3.084,3.084,0,0,0,0,5.864Z" transform="translate(309.697 114.128)" fill="#42e8e0"/>
      <path id="Path_36455" data-name="Path 36455" d="M446.391,345.383a14.011,14.011,0,0,1-6.851-1.637L320.263,274.834c-1.88-1.086-2.914-2.544-2.914-4.109s1.034-3.023,2.914-4.107l25.151-14.508.26.451-25.151,14.508c-1.711.99-2.653,2.287-2.653,3.657s.942,2.669,2.653,3.658L439.8,343.294a14.573,14.573,0,0,0,13.182,0l84.942-48.9.506.31-85.188,49.037A14.011,14.011,0,0,1,446.391,345.383Z" transform="translate(45.866 115.177)" fill="#42e8e0"/>
      <path id="Path_36458" data-name="Path 36458" d="M251.224,298.028a8.267,8.267,0,0,1-4.145-1.108l-9.394-5.807.469-.236,9.186,5.593a7.779,7.779,0,0,0,7.768,0l95.425-55.06.26.451-95.425,55.06A8.273,8.273,0,0,1,251.224,298.028Z" transform="translate(820.372 526.537) rotate(180)" fill="#42e8e0"/>
      <g id="Group_1209" data-name="Group 1209" transform="translate(342.777 22.56)">
        <g id="Group_1208" data-name="Group 1208" transform="translate(0)">
          <g id="Group_1205" data-name="Group 1205" transform="translate(0 186.474)">
            <g id="Group_1204" data-name="Group 1204">
              <g id="Group_1199" data-name="Group 1199" transform="translate(0 50.786)" opacity="0.11">
                <path id="Path_35102" data-name="Path 35102" d="M343.137,269.847a16.867,16.867,0,0,0-16.855-.009L225.819,327.722a2.373,2.373,0,0,0,0,4.109l101.3,58.5a14.871,14.871,0,0,0,14.875,0l101.454-58.445a2.373,2.373,0,0,0,0-4.111Z" transform="translate(-224.634 -267.586)" fill="url(#linear-gradient-2)"/>
              </g>
              <g id="Group_1200" data-name="Group 1200" transform="translate(0 33.857)" opacity="0.11">
                <path id="Path_35103" data-name="Path 35103" d="M343.137,260.734a16.863,16.863,0,0,0-16.855-.009L225.819,318.607a2.375,2.375,0,0,0,0,4.111l101.3,58.5a14.87,14.87,0,0,0,14.875,0l101.454-58.445a2.373,2.373,0,0,0,0-4.111Z" transform="translate(-224.634 -258.472)" fill="url(#linear-gradient-2)"/>
              </g>
              <g id="Group_1201" data-name="Group 1201" transform="translate(0 16.928)" opacity="0.11">
                <path id="Path_35104" data-name="Path 35104" d="M343.137,251.62a16.863,16.863,0,0,0-16.855-.007L225.819,309.495a2.375,2.375,0,0,0,0,4.111l101.3,58.5a14.87,14.87,0,0,0,14.875,0l101.454-58.445a2.373,2.373,0,0,0,0-4.111Z" transform="translate(-224.634 -249.359)" fill="url(#linear-gradient-2)"/>
              </g>
              <g id="Group_1202" data-name="Group 1202" opacity="0.11">
                <path id="Path_35105" data-name="Path 35105" d="M343.137,242.507a16.863,16.863,0,0,0-16.855-.007L225.819,300.382a2.375,2.375,0,0,0,0,4.111l101.3,58.5a14.879,14.879,0,0,0,14.875,0l101.454-58.447a2.372,2.372,0,0,0,0-4.109Z" transform="translate(-224.634 -240.246)" fill="url(#linear-gradient-2)"/>
              </g>
              <path id="Path_35106" data-name="Path 35106" d="M443.447,300.437l-100.31-57.931a16.863,16.863,0,0,0-16.855-.007L225.819,300.382a2.349,2.349,0,0,0-1.185,2.056v50.784a2.349,2.349,0,0,0,1.185,2.054l101.3,58.5a14.87,14.87,0,0,0,14.875,0l101.454-58.445a2.351,2.351,0,0,0,1.187-2.054V302.492h0A2.351,2.351,0,0,0,443.447,300.437Z" transform="translate(-224.634 -240.246)" opacity="0.5" fill="url(#linear-gradient-2)"/>
              <g id="Group_1203" data-name="Group 1203" opacity="0.11">
                <path id="Path_35107" data-name="Path 35107" d="M343.137,242.507a16.863,16.863,0,0,0-16.855-.007L225.819,300.382a2.375,2.375,0,0,0,0,4.111l101.3,58.5a14.879,14.879,0,0,0,14.875,0l101.454-58.447a2.372,2.372,0,0,0,0-4.109Z" transform="translate(-224.634 -240.246)" fill="url(#linear-gradient-2)"/>
              </g>
              <path id="Path_35108" data-name="Path 35108" d="M443.447,274.038,341.993,332.483a14.87,14.87,0,0,1-14.875,0l-101.3-58.5a2.354,2.354,0,0,1-.88-.886,2.376,2.376,0,0,0,.88,3.225l101.3,58.5a14.88,14.88,0,0,0,14.875,0l101.454-58.447a2.372,2.372,0,0,0,.88-3.223A2.355,2.355,0,0,1,443.447,274.038Z" transform="translate(-224.634 -212.074)" fill="url(#linear-gradient-2)"/>
            </g>
          </g>
        </g>
      </g>
      <g id="Group_1585" data-name="Group 1585" transform="translate(197.919 161.93)" style="isolation: isolate">
        <path id="Path_36714" data-name="Path 36714" d="M308.695,302.774c-12.493,7.233-32.751,7.233-45.245,0-6.2-3.588-9.321-8.282-9.371-13.116-.008-.785,0-2.883,0-4.729,12.168,0,51.493-7.232,63.987,0,0,1.835.02,3.952,0,5.052C317.982,294.549,314.855,299.207,308.695,302.774Z" transform="translate(122.694 -67.746)" fill="url(#linear-gradient-9)"/>
        <path id="Path_36733" data-name="Path 36733" d="M1723.771,6240.5a52.759,52.759,0,0,1-12.039-1.356,38.76,38.76,0,0,1-10.584-4.069,21.445,21.445,0,0,1-7.165-6.326,13.176,13.176,0,0,1-1.72-3.545,11.045,11.045,0,0,1-.478-3.647,11.264,11.264,0,0,0,.686,3.427,13.645,13.645,0,0,0,1.789,3.319,21.893,21.893,0,0,0,6.888,5.931,38.822,38.822,0,0,0,10.583,4.068,54.087,54.087,0,0,0,24.079,0,38.82,38.82,0,0,0,10.584-4.068,21.9,21.9,0,0,0,6.887-5.93,13.7,13.7,0,0,0,1.789-3.319,11.278,11.278,0,0,0,.686-3.428,11.04,11.04,0,0,1-.477,3.647,13.206,13.206,0,0,1-1.72,3.546,21.439,21.439,0,0,1-7.165,6.325,38.761,38.761,0,0,1-10.584,4.069A52.758,52.758,0,0,1,1723.771,6240.5Z" transform="translate(-1315.005 -6004.26)" fill="#fff"/>
        <path id="Path_36718" data-name="Path 36718" d="M308.7,288.247c-12.493,7.233-32.751,7.233-45.245,0s-12.5-18.962,0-26.2,32.752-7.233,45.246,0S321.194,281.014,308.7,288.247Z" transform="translate(122.689 -58.271)" stroke="rgba(0,0,0,0)" stroke-width="1" fill="url(#radial-gradient)"/>
        <path id="Path_36732" data-name="Path 36732" d="M1691.779,6191.482h0a8.82,8.82,0,0,1,.413-2.864,10.53,10.53,0,0,1,1.377-2.784,17.1,17.1,0,0,1,5.651-4.965,30.8,30.8,0,0,1,8.407-3.232,42.987,42.987,0,0,1,19.125,0,30.8,30.8,0,0,1,8.406,3.232,17.094,17.094,0,0,1,5.651,4.966,10.555,10.555,0,0,1,1.378,2.783,8.8,8.8,0,0,1,.412,2.848,9.67,9.67,0,0,0-1.929-5.408,17.323,17.323,0,0,0-5.512-4.769,30.815,30.815,0,0,0-8.406-3.232,43.025,43.025,0,0,0-19.125,0,30.82,30.82,0,0,0-8.407,3.232,17.337,17.337,0,0,0-5.512,4.768A9.658,9.658,0,0,0,1691.779,6191.482Z" transform="translate(-1308.423 -5974.395)" fill="#fff" stroke="rgba(0,0,0,0)" stroke-width="1"/>
        <path id="Path_36731" data-name="Path 36731" d="M0,0H0A8.82,8.82,0,0,0,.415,2.865,10.54,10.54,0,0,0,1.793,5.648a17.094,17.094,0,0,0,5.651,4.966,30.816,30.816,0,0,0,8.407,3.232,41.9,41.9,0,0,0,9.563,1.077,41.9,41.9,0,0,0,9.563-1.077,30.816,30.816,0,0,0,8.407-3.232,17.1,17.1,0,0,0,5.651-4.967,10.541,10.541,0,0,0,1.377-2.783A8.8,8.8,0,0,0,50.823.016a9.673,9.673,0,0,1-1.929,5.408,17.324,17.324,0,0,1-5.512,4.768,30.832,30.832,0,0,1-8.407,3.232A41.9,41.9,0,0,1,25.413,14.5a41.9,41.9,0,0,1-9.563-1.077,30.832,30.832,0,0,1-8.407-3.232A17.328,17.328,0,0,1,1.931,5.424,9.659,9.659,0,0,1,0,0Z" transform="translate(383.353 216.458)" fill="#000128" opacity="0.1"/>
      </g>
      <g id="Group_1593" data-name="Group 1593" transform="translate(197.919 143.93)" style="isolation: isolate">
        <path id="Path_36757" data-name="Path 36757" d="M308.7,288.247c-12.493,7.233-32.751,7.233-45.245,0s-12.5-18.962,0-26.2,32.752-7.233,45.246,0S321.194,281.014,308.7,288.247Z" transform="translate(122.689 -40.271)" opacity="0.5" fill="url(#linear-gradient-10)"/>
        <path id="Path_36714-2" data-name="Path 36714" d="M308.695,302.774c-12.493,7.233-32.751,7.233-45.245,0-6.2-3.588-9.321-8.282-9.371-13.116-.008-.785,0-2.883,0-4.729,12.168,0,51.493-7.232,63.987,0,0,1.835.02,3.952,0,5.052C317.982,294.549,314.855,299.207,308.695,302.774Z" transform="translate(122.694 -67.746)" fill="url(#linear-gradient-9)"/>
        <path id="Path_36733-2" data-name="Path 36733" d="M1723.771,6240.5a52.759,52.759,0,0,1-12.039-1.356,38.76,38.76,0,0,1-10.584-4.069,21.445,21.445,0,0,1-7.165-6.326,13.176,13.176,0,0,1-1.72-3.545,11.045,11.045,0,0,1-.478-3.647,11.264,11.264,0,0,0,.686,3.427,13.645,13.645,0,0,0,1.789,3.319,21.893,21.893,0,0,0,6.888,5.931,38.822,38.822,0,0,0,10.583,4.068,54.087,54.087,0,0,0,24.079,0,38.82,38.82,0,0,0,10.584-4.068,21.9,21.9,0,0,0,6.887-5.93,13.7,13.7,0,0,0,1.789-3.319,11.278,11.278,0,0,0,.686-3.428,11.04,11.04,0,0,1-.477,3.647,13.206,13.206,0,0,1-1.72,3.546,21.439,21.439,0,0,1-7.165,6.325,38.761,38.761,0,0,1-10.584,4.069A52.758,52.758,0,0,1,1723.771,6240.5Z" transform="translate(-1315.005 -6004.26)" fill="#fff"/>
        <path id="Path_36718-2" data-name="Path 36718" d="M308.7,288.247c-12.493,7.233-32.751,7.233-45.245,0s-12.5-18.962,0-26.2,32.752-7.233,45.246,0S321.194,281.014,308.7,288.247Z" transform="translate(122.689 -58.271)" stroke="rgba(0,0,0,0)" stroke-width="1" fill="url(#radial-gradient)"/>
        <path id="Path_36732-2" data-name="Path 36732" d="M1691.779,6191.482h0a8.82,8.82,0,0,1,.413-2.864,10.53,10.53,0,0,1,1.377-2.784,17.1,17.1,0,0,1,5.651-4.965,30.8,30.8,0,0,1,8.407-3.232,42.987,42.987,0,0,1,19.125,0,30.8,30.8,0,0,1,8.406,3.232,17.094,17.094,0,0,1,5.651,4.966,10.555,10.555,0,0,1,1.378,2.783,8.8,8.8,0,0,1,.412,2.848,9.67,9.67,0,0,0-1.929-5.408,17.323,17.323,0,0,0-5.512-4.769,30.815,30.815,0,0,0-8.406-3.232,43.025,43.025,0,0,0-19.125,0,30.82,30.82,0,0,0-8.407,3.232,17.337,17.337,0,0,0-5.512,4.768A9.658,9.658,0,0,0,1691.779,6191.482Z" transform="translate(-1308.423 -5974.395)" fill="#fff" stroke="rgba(0,0,0,0)" stroke-width="1"/>
        <path id="Path_36731-2" data-name="Path 36731" d="M0,0H0A8.82,8.82,0,0,0,.415,2.865,10.54,10.54,0,0,0,1.793,5.648a17.094,17.094,0,0,0,5.651,4.966,30.816,30.816,0,0,0,8.407,3.232,41.9,41.9,0,0,0,9.563,1.077,41.9,41.9,0,0,0,9.563-1.077,30.816,30.816,0,0,0,8.407-3.232,17.1,17.1,0,0,0,5.651-4.967,10.541,10.541,0,0,0,1.377-2.783A8.8,8.8,0,0,0,50.823.016a9.673,9.673,0,0,1-1.929,5.408,17.324,17.324,0,0,1-5.512,4.768,30.832,30.832,0,0,1-8.407,3.232A41.9,41.9,0,0,1,25.413,14.5a41.9,41.9,0,0,1-9.563-1.077,30.832,30.832,0,0,1-8.407-3.232A17.328,17.328,0,0,1,1.931,5.424,9.659,9.659,0,0,1,0,0Z" transform="translate(383.353 216.458)" fill="#000128" opacity="0.1"/>
      </g>
      <g id="Group_1594" data-name="Group 1594" transform="translate(197.919 125.93)" style="isolation: isolate">
        <path id="Path_36757-2" data-name="Path 36757" d="M308.7,288.247c-12.493,7.233-32.751,7.233-45.245,0s-12.5-18.962,0-26.2,32.752-7.233,45.246,0S321.194,281.014,308.7,288.247Z" transform="translate(122.689 -40.271)" opacity="0.5" fill="url(#linear-gradient-10)"/>
        <path id="Path_36714-3" data-name="Path 36714" d="M308.695,302.774c-12.493,7.233-32.751,7.233-45.245,0-6.2-3.588-9.321-8.282-9.371-13.116-.008-.785,0-2.883,0-4.729,12.168,0,51.493-7.232,63.987,0,0,1.835.02,3.952,0,5.052C317.982,294.549,314.855,299.207,308.695,302.774Z" transform="translate(122.694 -67.746)" fill="url(#linear-gradient-9)"/>
        <path id="Path_36733-3" data-name="Path 36733" d="M1723.771,6240.5a52.759,52.759,0,0,1-12.039-1.356,38.76,38.76,0,0,1-10.584-4.069,21.445,21.445,0,0,1-7.165-6.326,13.176,13.176,0,0,1-1.72-3.545,11.045,11.045,0,0,1-.478-3.647,11.264,11.264,0,0,0,.686,3.427,13.645,13.645,0,0,0,1.789,3.319,21.893,21.893,0,0,0,6.888,5.931,38.822,38.822,0,0,0,10.583,4.068,54.087,54.087,0,0,0,24.079,0,38.82,38.82,0,0,0,10.584-4.068,21.9,21.9,0,0,0,6.887-5.93,13.7,13.7,0,0,0,1.789-3.319,11.278,11.278,0,0,0,.686-3.428,11.04,11.04,0,0,1-.477,3.647,13.206,13.206,0,0,1-1.72,3.546,21.439,21.439,0,0,1-7.165,6.325,38.761,38.761,0,0,1-10.584,4.069A52.758,52.758,0,0,1,1723.771,6240.5Z" transform="translate(-1315.005 -6004.26)" fill="#fff"/>
        <path id="Path_36718-3" data-name="Path 36718" d="M308.7,288.247c-12.493,7.233-32.751,7.233-45.245,0s-12.5-18.962,0-26.2,32.752-7.233,45.246,0S321.194,281.014,308.7,288.247Z" transform="translate(122.689 -58.271)" stroke="rgba(0,0,0,0)" stroke-width="1" fill="url(#radial-gradient)"/>
        <path id="Path_36732-3" data-name="Path 36732" d="M1691.779,6191.482h0a8.82,8.82,0,0,1,.413-2.864,10.53,10.53,0,0,1,1.377-2.784,17.1,17.1,0,0,1,5.651-4.965,30.8,30.8,0,0,1,8.407-3.232,42.987,42.987,0,0,1,19.125,0,30.8,30.8,0,0,1,8.406,3.232,17.094,17.094,0,0,1,5.651,4.966,10.555,10.555,0,0,1,1.378,2.783,8.8,8.8,0,0,1,.412,2.848,9.67,9.67,0,0,0-1.929-5.408,17.323,17.323,0,0,0-5.512-4.769,30.815,30.815,0,0,0-8.406-3.232,43.025,43.025,0,0,0-19.125,0,30.82,30.82,0,0,0-8.407,3.232,17.337,17.337,0,0,0-5.512,4.768A9.658,9.658,0,0,0,1691.779,6191.482Z" transform="translate(-1308.423 -5974.395)" fill="#fff" stroke="rgba(0,0,0,0)" stroke-width="1"/>
        <path id="Path_36731-3" data-name="Path 36731" d="M0,0H0A8.82,8.82,0,0,0,.415,2.865,10.54,10.54,0,0,0,1.793,5.648a17.094,17.094,0,0,0,5.651,4.966,30.816,30.816,0,0,0,8.407,3.232,41.9,41.9,0,0,0,9.563,1.077,41.9,41.9,0,0,0,9.563-1.077,30.816,30.816,0,0,0,8.407-3.232,17.1,17.1,0,0,0,5.651-4.967,10.541,10.541,0,0,0,1.377-2.783A8.8,8.8,0,0,0,50.823.016a9.673,9.673,0,0,1-1.929,5.408,17.324,17.324,0,0,1-5.512,4.768,30.832,30.832,0,0,1-8.407,3.232A41.9,41.9,0,0,1,25.413,14.5a41.9,41.9,0,0,1-9.563-1.077,30.832,30.832,0,0,1-8.407-3.232A17.328,17.328,0,0,1,1.931,5.424,9.659,9.659,0,0,1,0,0Z" transform="translate(383.353 216.458)" fill="#000128" opacity="0.1"/>
      </g>
      <g id="Group_1587" data-name="Group 1587" transform="translate(79.723 339.391)">
        <g id="Path_36754" data-name="Path 36754" transform="translate(-64.976 -191.271)" fill="none">
          <path d="M308.71,288.253c-12.5,7.235-32.757,7.235-45.254,0s-12.5-18.965,0-26.2,32.758-7.235,45.255,0S321.207,281.018,308.71,288.253Z" stroke="none"/>
          <path d="M 286.08349609375 293.0789184570312 C 290.1934509277344 293.0789184570312 294.1986083984375 292.6278381347656 297.9876708984375 291.73828125 C 301.8995971679688 290.81982421875 305.4059448242188 289.4724731445312 308.4093017578125 287.7335510253906 C 311.3877258300781 286.00927734375 313.6885070800781 284.00634765625 315.2477111816406 281.7804260253906 C 316.7304382324219 279.6636962890625 317.4822998046875 277.43408203125 317.4823913574219 275.1535949707031 C 317.4824523925781 272.8729858398438 316.7306823730469 270.6431884765625 315.2479553222656 268.5261535644531 C 313.688720703125 266.2999572753906 311.3878479003906 264.2966918945312 308.4092712402344 262.5720520019531 C 305.4057006835938 260.8331909179688 301.899169921875 259.48583984375 297.987060546875 258.5674133300781 C 294.1978454589844 257.6778564453125 290.1925659179688 257.226806640625 286.0825500488281 257.226806640625 C 281.9725341796875 257.226806640625 277.96728515625 257.6778564453125 274.1780700683594 258.5674133300781 C 270.2659606933594 259.48583984375 266.7594299316406 260.8331909179688 263.755859375 262.5720520019531 C 260.7775573730469 264.2962951660156 258.4768981933594 266.2991333007812 256.9177856445312 268.5249633789062 C 255.4351348876953 270.6416320800781 254.683349609375 272.8711242675781 254.6832733154297 275.1515502929688 C 254.6832122802734 277.4322509765625 255.4350433349609 279.6621398925781 256.9179077148438 281.7792663574219 C 258.4772338867188 284.0055541992188 260.7781982421875 286.0088500976562 263.7569274902344 287.7335510253906 C 266.760498046875 289.4724426269531 270.2670288085938 290.81982421875 274.1791076660156 291.73828125 C 277.9683227539062 292.6278381347656 281.9735412597656 293.0789184570312 286.08349609375 293.0789184570312 M 286.08349609375 293.6789245605469 C 277.8941040039062 293.6789245605469 269.70458984375 291.8702087402344 263.456298828125 288.2528076171875 C 250.9596252441406 281.0171508789062 250.9586029052734 269.2874755859375 263.4552612304688 262.0527954101562 C 275.9517822265625 254.818115234375 296.2133178710938 254.818115234375 308.7098999023438 262.0527954101562 C 321.20654296875 269.28857421875 321.20654296875 281.0181884765625 308.7098999023438 288.2528076171875 C 302.4621276855469 291.8702087402344 294.2728881835938 293.6789245605469 286.08349609375 293.6789245605469 Z" stroke="none" fill="#42e8e0"/>
        </g>
        <path id="Path_36741" data-name="Path 36741" d="M1701.147,6223.024c-6.248-3.619-9.373-8.359-9.373-13.1h0v-38.836h0c0-4.741,3.124-9.482,9.372-13.1,12.5-7.235,32.758-7.235,45.255,0,6.306,3.651,9.43,8.445,9.372,13.229v38.578c.058,4.785-3.066,9.579-9.372,13.229-6.248,3.617-14.437,5.426-22.626,5.426S1707.4,6226.641,1701.147,6223.024Z" transform="translate(-1502.667 -6139.205)" stroke="rgba(0,0,0,0)" stroke-width="1" opacity="0.5" fill="url(#linear-gradient-2)"/>
        <path id="Path_36736" data-name="Path 36736" d="M308.71,288.253c-12.5,7.235-32.757,7.235-45.254,0s-12.5-18.965,0-26.2,32.758-7.235,45.255,0S321.207,281.018,308.71,288.253Z" transform="translate(-64.976 -217.38)" opacity="0.11" fill="url(#linear-gradient-2)"/>
        <path id="Path_36737" data-name="Path 36737" d="M308.71,288.253c-12.5,7.235-32.757,7.235-45.254,0s-12.5-18.965,0-26.2,32.758-7.235,45.255,0S321.207,281.018,308.71,288.253Z" transform="translate(-64.976 -230.326)" opacity="0.11" fill="url(#linear-gradient-2)"/>
        <path id="Path_36738" data-name="Path 36738" d="M308.71,288.253c-12.5,7.235-32.757,7.235-45.254,0s-12.5-18.965,0-26.2,32.758-7.235,45.255,0S321.207,281.018,308.71,288.253Z" transform="translate(-64.976 -243.271)" fill="url(#radial-gradient-4)"/>
        <path id="Subtraction_7" data-name="Subtraction 7" d="M32,18.637a53.243,53.243,0,0,1-12.042-1.344A39.038,39.038,0,0,1,9.373,13.261,21.183,21.183,0,0,1,2.09,6.82,11.511,11.511,0,0,1,.029-.5C.369,4.1,3.687,8.433,9.373,11.694a39.044,39.044,0,0,0,10.586,4.031A53.246,53.246,0,0,0,32,17.069a53.239,53.239,0,0,0,12.041-1.344,39.035,39.035,0,0,0,10.585-4.031c5.684-3.26,9-7.59,9.343-12.192a11.509,11.509,0,0,1-2.06,7.319,21.177,21.177,0,0,1-7.283,6.44,39.027,39.027,0,0,1-10.585,4.031A53.239,53.239,0,0,1,32,18.637Z" transform="translate(189.107 31.772)" fill="url(#linear-gradient-2)"/>
        <path id="Path_36977" data-name="Path 36977" d="M154.993,121.151l1.762-8.018v-2l-8.212,5.636-10.292-3.636v2l5.178,7.327-8.476,3.875v2l11.737-1.314,5.367,7.552,1.835-8.322,11.621-1.329v-2Z" transform="translate(71.828 -92.388)" fill="#000128" opacity="0.1"/>
        <path id="Path_36976" data-name="Path 36976" d="M20.13,8.081,21.9,0,13.678,5.769,3.316,2.055,8.536,9.377.118,15.284l11.693-1.314,5.38,7.544,1.828-8.355,11.631-1.307Z" transform="translate(206.704 18.66)" fill="#fff"/>
      </g>
      <g id="Group_1617" data-name="Group 1617" transform="translate(590.995 149.662)">
        <path id="Path_36814" data-name="Path 36814" d="M1121.233,4929.8l-33.59-19.494a6.218,6.218,0,0,1-1.283-3.84v-49.173a13.428,13.428,0,0,1,6.717-11.631l71.8-40.695a6.741,6.741,0,0,1,3.687-1.155,7.244,7.244,0,0,1,3.543,1.344s30.356,17.911,31.385,18.538a5.708,5.708,0,0,1,2.772,4.915v49.455a13.436,13.436,0,0,1-6.748,11.65l-4.408,2.528v11.96l-18.272-1.48-48.851,27.738a5.2,5.2,0,0,1-2.844.767A6.494,6.494,0,0,1,1121.233,4929.8Z" transform="translate(-1114.577 -4835.953)" opacity="0.5" fill="url(#linear-gradient-2)"/>
        <path id="Path_36812" data-name="Path 36812" d="M1122.8,4930.708a5.259,5.259,0,0,1-3.439-5.246v-49.173a13.4,13.4,0,0,1,6.794-11.631l72.373-41.04a5.975,5.975,0,0,1,1.677-.637,6.1,6.1,0,0,1,4.251.709,5.7,5.7,0,0,1,2.8,4.915v49.455a13.409,13.409,0,0,1-6.825,11.65l-4.459,2.528v11.96l-18.483-1.48-49.413,27.738a5.808,5.808,0,0,1-2.877.767A5.915,5.915,0,0,1,1122.8,4930.708Z" transform="translate(-1147.577 -4854.953)" opacity="0.11" fill="url(#linear-gradient-2)"/>
        <path id="Path_36813" data-name="Path 36813" d="M1122.8,4930.708a5.259,5.259,0,0,1-3.439-5.246v-49.173a13.4,13.4,0,0,1,6.794-11.631l72.373-41.04a5.975,5.975,0,0,1,1.677-.637,6.1,6.1,0,0,1,4.251.709,5.7,5.7,0,0,1,2.8,4.915v49.455a13.409,13.409,0,0,1-6.825,11.65l-4.459,2.528v11.96l-18.483-1.48-49.413,27.738a5.808,5.808,0,0,1-2.877.767A5.915,5.915,0,0,1,1122.8,4930.708Z" transform="translate(-1133.276 -4846.953)" opacity="0.11" fill="url(#linear-gradient-2)"/>
        <path id="Path_36811" data-name="Path 36811" d="M1122.759,4930.708a5.268,5.268,0,0,1-3.4-5.246v-49.173a13.428,13.428,0,0,1,6.717-11.631l71.549-41.04a5.867,5.867,0,0,1,1.658-.637,5.968,5.968,0,0,1,4.2.709,5.708,5.708,0,0,1,2.772,4.915v49.455a13.436,13.436,0,0,1-6.748,11.65l-4.408,2.528v11.96l-18.272-1.48-48.851,27.738a5.691,5.691,0,0,1-2.844.767A5.791,5.791,0,0,1,1122.759,4930.708Z" transform="translate(-1114.577 -4835.953)" fill="url(#linear-gradient-21)"/>
        <path id="Subtraction_8" data-name="Subtraction 8" d="M1104.914,4864.028a5.9,5.9,0,0,1-.732-.273,5.256,5.256,0,0,1-3.4-5.2v-49.215a13.429,13.429,0,0,1,6.717-11.631l71.549-41.04a5.856,5.856,0,0,1,1.658-.638,3.8,3.8,0,0,1,1.063-.128,6.281,6.281,0,0,1,3.141.837,5.859,5.859,0,0,1,.571.4,6.567,6.567,0,0,0-1.712-.232,3.8,3.8,0,0,0-1.063.128,5.855,5.855,0,0,0-1.658.638L1109.5,4798.7a13.426,13.426,0,0,0-6.717,11.63v49.216a5.151,5.151,0,0,0,2.133,4.475Z" transform="translate(-1098 -4770)" fill="#fff"/>
      </g>
      <path id="Path_36810" data-name="Path 36810" d="M348.5,311.155c-21.6,12.474-56.619,12.474-78.218,0s-21.6-32.7,0-45.173,56.621-12.474,78.22,0S370.1,298.681,348.5,311.155Z" transform="translate(143.384 -17.164)" fill="#180d5b" opacity="0.2"/>
      <g id="Group_1207" data-name="Group 1207" transform="translate(408.67 22.561)">
        <path id="Path_35110" data-name="Path 35110" d="M279.461,261.8s1.129,1.178,2.3,2.567,4.472,3.323,5.857,4.183,7.733,5.673,9.061,10.414-3.209,5.367-7.85,4.544-8.975-5.106-10.238-6.652-5.655-5.055-11.349-8-2.253-6.91-2.253-6.91Z" transform="translate(-222.824 -35.287)" fill="#160a5b"/>
        <path id="Path_35111" data-name="Path 35111" d="M291.065,269.379a17.594,17.594,0,0,0-1.205,4.872c-.266,2.74-.65,8.682-.791,10.421a14.708,14.708,0,0,0,2.858,10.064c3.059,4.072,4.639,5.68,8.7,4.079s3.972-8.428,3.254-11.937a97.316,97.316,0,0,1-1.313-12.188,2.454,2.454,0,0,0-.234-1.352Z" transform="translate(-276.706 -28.788)" fill="#160a5b"/>
        <path id="Path_35112" data-name="Path 35112" d="M324.915,224.461s-.856,31.295-8.149,47.909a120.851,120.851,0,0,0-5.911,32.034,6.223,6.223,0,0,1-.505,5.433c-1.71,2.437-12.415,4.666-14.184-3.336s-1.088-22.978.856-29.222-.693-23.456-.693-23.456-2.925,1.869-6.762,14.235-6.658,17.082-7.976,20.5-2.533,24.372-1.7,34.6c0,0-8.669,1.23-11.174-2.915s-3.345-25.588-2.71-32.426,3.493-28.737,3.1-35.513-1.8-12.282-.254-19.05S316.15,211.45,316.15,211.45Z" transform="translate(-254.252 -78.467)" fill="url(#linear-gradient-21)"/>
        <path id="Path_35113" data-name="Path 35113" d="M269.11,248.006c-.392-6.778-1.8-12.282-.254-19.05.583-2.545,7.412-6.258,15.707-9.9,14-1.278,31.754-2.762,32.976-2.576a46.024,46.024,0,0,1,6.4,2.231l.977,1.451s-.052,1.9-.24,5.01c-3.265.977-9.547-.032-9.547-.032-.884,2.2-6.34,10-13.124,13.369s-26.64,2.212-27.778,3.494-1.361,18.412-1.235,20.591-1.87,15.893-3.718,28.022c-1.816,11.933.949,26.433,1.04,26.9a4.893,4.893,0,0,1-1.593-1.57c-2.507-4.144-3.345-25.588-2.71-32.426S269.5,254.783,269.11,248.006Z" transform="translate(-254.252 -74.167)" fill="url(#linear-gradient-23)"/>
        <path id="Path_35114" data-name="Path 35114" d="M312.685,165.272s10.149,2.316,13.564,3.117a1.754,1.754,0,0,1,1.235,1.074c.986,2.5,3.458,10.25,1.6,21.574a107.424,107.424,0,0,0-1.564,23.281l4.695,24.438s5.9,23.275,5.391,23.913-13.588,10.592-17.676,9.189-2.745-3.715-2.745-3.715-3.311,16.867-17.967,16.705-26.632-.115-29.121-6.041.68-30.841,3.265-40.705,8.728-29.526,8.728-29.526l-21.468-23.77,18.348-14.016s4.383-8.147,6.184-9.182,2.743-.16,2.743-.16Z" transform="translate(-257.334 -121.644)" fill="url(#linear-gradient-24)"/>
        <g id="Group_1206" data-name="Group 1206" transform="translate(11.858 141.398)">
          <path id="Path_35115" data-name="Path 35115" d="M262.449,219.424c-.013.847.481,2.107,3.116,3.011,2.845.977,9.818-3.264,14.391-6.455-2.282,1.9-13.518,10.1-17.256,8.816a6.633,6.633,0,0,1-1.838-.918A29.931,29.931,0,0,0,262.449,219.424Z" transform="translate(-211.965 -215.98)" fill="url(#linear-gradient-25)"/>
          <path id="Path_35116" data-name="Path 35116" d="M276.212,227.464c2.626,6.254,15.263,6.206,30.731,6.377a16.528,16.528,0,0,0,9.616-2.773,15.624,15.624,0,0,1-11.334,4.415c-14.658-.162-26.632-.115-29.121-6.041-.817-1.947-1.021-5.944-.839-10.778C275.229,222.592,275.5,225.768,276.212,227.464Z" transform="translate(-275.203 -213.677)" fill="url(#linear-gradient-25)"/>
        </g>
        <path id="Path_35117" data-name="Path 35117" d="M277.221,161.4s-3.748,4.536,1.645,10.659c3.319,3.769,9.029,11.9,13.9,20.337,3.04,5.27,5.85,8.082,7.441,12.611,0,0,.223-5.381.436-13.69.2-7.841.308-15.988-.043-18.041C299.874,169.045,281.364,159.341,277.221,161.4Z" transform="translate(-249.007 -121.635)" fill="#f0f6ff"/>
        <path id="Path_35118" data-name="Path 35118" d="M289.645,191.893s1.92,1.193,2.583,1.094,2.787-2.166,2.787-2.166,5.321-.095,5.9-2.376a49.378,49.378,0,0,1,1.5-5.762c.538-1.185,2.834-6.873,2.851-9.182s-.069-6.431.929-8.614,2.34-24.026-18.747-23.411-14.537,22.518-14.537,22.518-1.54.656-.607,3.476,1.142,3.111,1.618,4.51a6.23,6.23,0,0,0,2.05,3.433l.349,2.6a10.427,10.427,0,0,0,1.619,7.82C280.565,189.686,289.645,191.893,289.645,191.893Z" transform="translate(-247.413 -138.486)" fill="#fcd1c5"/>
        <path id="Path_35119" data-name="Path 35119" d="M273.476,165.162s2.247.334,9.544,18.691C287.09,194.1,293.373,204.7,294.7,212.317s.589,15.752-.916,16.324c-1.449.552-27.661,10.363-35.864,13.46a.771.771,0,0,1-1.031-.591l-2.262-12.663,16.266-6.286s3.1-3.786,6.009-5.209c0,0-3.261-6.009-3.053-7.651s-.29-18.622,1.616-25.533S273.476,165.162,273.476,165.162Z" transform="translate(-203.981 -118.162)" fill="url(#linear-gradient-27)"/>
        <path id="Path_35120" data-name="Path 35120" d="M264.5,192.806a32.566,32.566,0,0,1,2.793-1.72c.555-.215,3.551-1.239,4.123-1.5a11.326,11.326,0,0,1,3.042.045.946.946,0,0,1,.745.5c.693,1.284,2.62,5.021,2.4,6.448,0,0-5.417,3.422-6.021,4.949l-.865.186S267.093,193.93,264.5,192.806Z" transform="translate(-204.531 -97.292)" fill="#fcd1c5"/>
        <path id="Path_35121" data-name="Path 35121" d="M278.78,206.438c.622-2.374,1.45-5.316,2.349-8.413l32.943,14.125a34.734,34.734,0,0,1-27.143,11.35,22.723,22.723,0,0,1-10.7-3.383A131.522,131.522,0,0,1,278.78,206.438Z" transform="translate(-262.756 -89.98)" fill="url(#linear-gradient-24)"/>
        <path id="Path_35122" data-name="Path 35122" d="M269.755,173.863s8.687,1.2,15.705,12.325A168.358,168.358,0,0,1,297.6,210.194l.241,1.449A5.858,5.858,0,0,0,306,216.032c7.412-3.31,18.389-8.316,20.435-9.817a18.887,18.887,0,0,1,8.355,12.2c1.428,6.838,1.066,6.858,1.066,6.858s-29.255,13.657-40.551,13.523-25.63-37.289-27.208-44.968S264.782,176.034,269.755,173.863Z" transform="translate(-266.471 -110.701)" fill="#24126a"/>
        <path id="Path_35123" data-name="Path 35123" d="M269.755,173.863s8.687,1.2,15.705,12.325A168.358,168.358,0,0,1,297.6,210.194l.241,1.449A5.858,5.858,0,0,0,306,216.032c7.412-3.31,18.389-8.316,20.435-9.817a18.887,18.887,0,0,1,8.355,12.2c1.428,6.838,1.066,6.858,1.066,6.858s-29.255,13.657-40.551,13.523-25.63-37.289-27.208-44.968S264.782,176.034,269.755,173.863Z" transform="translate(-266.471 -110.701)" fill="url(#linear-gradient-24)"/>
        <path id="Path_35124" data-name="Path 35124" d="M297.121,201.11s-3.69,3.451-5.3,1.562-1.133-2.1-1.133-2.1-3.32-.032-3.723-2.112-2.041-.981-2.134-3.3,2.687-1.843,2.687-1.843Z" transform="translate(-261.789 -94.05)" fill="url(#linear-gradient-30)"/>
        <path id="Path_35125" data-name="Path 35125" d="M298.13,202.042s-1.014-.945-2.323-2.053-3.424-5.692-3.783-6.095-4.771-3.791-6.9-3.851-.548,2.324-.058,2.66,2.566,1.369,2.566,1.369,2.138,1.8,2.381,2.058-5.943-.425-6.923.178a1.674,1.674,0,0,0-.061,2.614,2.42,2.42,0,0,0,1.222.416,2.151,2.151,0,0,0,1.161,2.725c1.855.864,2.282.383,2.282.383s.16,3.217,3.224,2.58Z" transform="translate(-258.339 -96.825)" fill="#fcd1c5"/>
        <path id="Path_35126" data-name="Path 35126" d="M307.2,155.092s2.752,8.766-4.492,6.271-13.8-6.667-16.077-5.077c-1.731,1.209-1.653,4.919-1.515,6.619a2.526,2.526,0,0,1-.434,1.635l-2.147,3.123a2.408,2.408,0,0,0-.418,1.191l-.152,2.171a1.09,1.09,0,0,1-1.023,1.012l-.5.028a1.087,1.087,0,0,1-1.135-.9l-.559-3.191s-1.707-4.293-5.311-2.606c0,0-2.41-3.24-1.608-10.167s3.9-14.131,17.494-15.282S307.2,155.092,307.2,155.092Z" transform="translate(-247.942 -139.861)" fill="#aa8383"/>
        <path id="Path_35127" data-name="Path 35127" d="M279.538,174.023l2.033-1.579a10.985,10.985,0,0,1,2.615,3.221c.732,1.659,0,6.927,0,6.927l.62,1.066.763-1.4.644-6.229s-.693-4.6-.76-4.722-3.922.409-3.922.409A7.989,7.989,0,0,0,279.538,174.023Z" transform="translate(-241.047 -112.902)" fill="#c4ccd6"/>
        <path id="Path_35128" data-name="Path 35128" d="M276.17,169.426a6.9,6.9,0,0,1,3.15.959s-2.279.111-2.641.152S276.17,169.426,276.17,169.426Z" transform="translate(-227.902 -114.506)" fill="#c4ccd6"/>
        <path id="Path_35129" data-name="Path 35129" d="M280.905,169.9l-3.647,3.409s3.2,1.475,4.095,4.336c0,0,3.969.741,4.331-.695s-.009-5.06.462-6.665S280.905,169.9,280.905,169.9Z" transform="translate(-236.776 -114.485)" fill="url(#radial-gradient-5)"/>
        <path id="Path_35130" data-name="Path 35130" d="M281.035,173.474a20.2,20.2,0,0,0,1.419,4.219c.739,1.232,1.5,2.614,1.5,2.614l-.091,17.5s-6.435-13.269-7.831-15.955c0,0,.214-6.392.821-7.6S281.035,173.474,281.035,173.474Z" transform="translate(-232.274 -111.098)" fill="#ffd208"/>
        <path id="Path_35131" data-name="Path 35131" d="M281.144,159.517c4.227,12.2,16.121,15.821,16.121,15.821s-2.126,2.067-2.787,2.166-2.583-1.094-2.583-1.094-9.079-2.207-11.7-6.061a10.432,10.432,0,0,1-1.62-7.822l-.349-2.6A2.87,2.87,0,0,0,281.144,159.517Z" transform="translate(-249.664 -123.004)" fill="#e2b1a6"/>
        <path id="Path_35132" data-name="Path 35132" d="M276.867,167.206s1.668,5.757,1.883,5.974,4.193-.243,4.193-.243l-1.931,3.661s20.019,21.476,24.17,33.028A244.987,244.987,0,0,0,279.034,177.5l2.36-3.572-4.093.8Z" transform="translate(-255.058 -116.41)" fill="url(#linear-gradient-24)"/>
        <path id="Path_35133" data-name="Path 35133" d="M271.858,164.468l1.062,1.215-1.248,1.165,3.7,3.347s1.131,23.491-3.389,39.052c0,0,6.138-14.274,4.745-39.693l-4.006-2.718,1.311-1.289Z" transform="translate(-217.164 -118.758)" fill="url(#linear-gradient-24)"/>
        <path id="Path_35134" data-name="Path 35134" d="M279.308,236.76a1.414,1.414,0,0,0-.137.108l5.185-5.521c-2.394,3.377.364,18.84.65,22.38s-2.769,10.85-3.913,19.417,1.2,20.766,1.205,20.8a6.605,6.605,0,0,1-3.153-4.508c-1.768-8-1.088-22.978.856-29.222S279.308,236.76,279.308,236.76Z" transform="translate(-237.231 -61.403)" fill="url(#linear-gradient-23)"/>
        <path id="Path_35135" data-name="Path 35135" d="M294.449,231.429c-11.3-.134-25.63-37.289-27.208-44.968-.264-1.28-.529-2.632-.769-4,.041.113,2.968,8.134,5.79,15.247,2.843,7.161,17.939,28.869,25.656,30.284,6.957,1.276,31.983-10.412,36.83-12.717.438,2.608.253,2.632.253,2.632S305.746,231.562,294.449,231.429Z" transform="translate(-265.611 -103.329)" fill="url(#linear-gradient-24)"/>
        <path id="Path_35136" data-name="Path 35136" d="M292.842,164.732a1.087,1.087,0,0,1-1.135-.9l-.559-3.191s-1.707-4.293-5.311-2.606c0,0-2.273-3.078-1.658-9.624,4.008,6.019,12.9,8.8,12.9,8.8l-2.149,3.123a2.425,2.425,0,0,0-.416,1.191l-.152,2.171a1.09,1.09,0,0,1-1.023,1.012Z" transform="translate(-260.336 -132.528)" fill="#936d6d"/>
      </g>
      <path id="Path_36974" data-name="Path 36974" d="M320.194,316.379a13.427,13.427,0,0,1-6.566-1.569l-29.686-17.152c-1.85-1.068-2.869-2.523-2.869-4.1s1.019-3.029,2.869-4.1l29.685-17.151a14.521,14.521,0,0,1,13.133,0l29.685,17.15c1.852,1.068,2.869,2.523,2.871,4.1s-1.019,3.028-2.869,4.1l-29.686,17.15A13.423,13.423,0,0,1,320.194,316.379Zm-6.04-2.479a13.36,13.36,0,0,0,12.082,0l29.684-17.148c1.511-.874,2.344-2.006,2.344-3.188s-.833-2.314-2.344-3.187l-29.686-17.15a13.36,13.36,0,0,0-12.082,0l-29.685,17.152c-1.511.872-2.344,2-2.344,3.187s.833,2.313,2.344,3.187Z" transform="translate(-18.296 -113.185)" fill="#453c9e"/>
    </g>
  </g>
</svg>
