<svg xmlns="http://www.w3.org/2000/svg" xmlns:xlink="http://www.w3.org/1999/xlink" width="540" height="540" viewBox="0 0 540 540">
  <defs>
    <clipPath id="clip-path">
      <rect id="Rectangle_1308" data-name="Rectangle 1308" width="540" height="540" transform="translate(360 1255)" fill="#fff"/>
    </clipPath>
    <linearGradient id="linear-gradient" y1="0.5" x2="1" y2="0.5" gradientUnits="objectBoundingBox">
      <stop offset="0" stop-color="#5761d7"/>
      <stop offset="0.073" stop-color="#5471d8"/>
      <stop offset="0.279" stop-color="#4d9bda"/>
      <stop offset="0.48" stop-color="#48bddd"/>
      <stop offset="0.672" stop-color="#44d4de"/>
      <stop offset="0.849" stop-color="#42e3df"/>
      <stop offset="1" stop-color="#42e8e0"/>
    </linearGradient>
    <radialGradient id="radial-gradient" cx="0.722" cy="0.311" r="0.282" gradientTransform="translate(0 0.021) scale(1 0.933)" gradientUnits="objectBoundingBox">
      <stop offset="0" stop-color="#fddd4d"/>
      <stop offset="1" stop-color="#f8c332"/>
    </radialGradient>
    <filter id="Path_36522" x="191.525" y="74.858" width="374.469" height="339.684" filterUnits="userSpaceOnUse">
      <feOffset dx="-40" input="SourceAlpha"/>
      <feGaussianBlur stdDeviation="49.5" result="blur"/>
      <feFlood flood-color="#0817ad" flood-opacity="0.655"/>
      <feComposite operator="in" in2="blur"/>
      <feComposite in="SourceGraphic"/>
    </filter>
    <filter id="Path_36485" x="-105.5" y="36.793" width="371.885" height="338.26" filterUnits="userSpaceOnUse">
      <feOffset dx="-40" input="SourceAlpha"/>
      <feGaussianBlur stdDeviation="49.5" result="blur-2"/>
      <feFlood flood-color="#0817ad" flood-opacity="0.655"/>
      <feComposite operator="in" in2="blur-2"/>
      <feComposite in="SourceGraphic"/>
    </filter>
    <linearGradient id="linear-gradient-48" x1="0.5" y1="0.738" x2="0.5" gradientUnits="objectBoundingBox">
      <stop offset="0" stop-color="#000237" stop-opacity="0"/>
      <stop offset="1" stop-color="#42e8e0"/>
    </linearGradient>
    <linearGradient id="linear-gradient-50" x1="0.312" y1="0.5" x2="1.312" y2="0.5" gradientUnits="objectBoundingBox">
      <stop offset="0" stop-color="#c0bff6"/>
      <stop offset="0.294" stop-color="#c4c3f6"/>
      <stop offset="0.64" stop-color="#d2d2f9"/>
      <stop offset="1" stop-color="#e9e9fd"/>
    </linearGradient>
    <filter id="Path_36954" x="41.944" y="23.671" width="317.789" height="327.884" filterUnits="userSpaceOnUse">
      <feOffset dx="-40" input="SourceAlpha"/>
      <feGaussianBlur stdDeviation="49.5" result="blur-3"/>
      <feFlood flood-color="#0817ad" flood-opacity="0.655"/>
      <feComposite operator="in" in2="blur-3"/>
      <feComposite in="SourceGraphic"/>
    </filter>
    <linearGradient id="linear-gradient-53" x1="0.241" y1="0.752" x2="0.722" y2="0.359" gradientUnits="objectBoundingBox">
      <stop offset="0" stop-color="#5761d7"/>
      <stop offset="1" stop-color="#42e8e0"/>
    </linearGradient>
  </defs>
  <g id="Mask_Group_3" data-name="Mask Group 3" transform="translate(-360 -1255)" clip-path="url(#clip-path)">
    <g id="Group_1513" data-name="Group 1513" transform="translate(177.223 1283.44)">
      <path id="Path_36972" data-name="Path 36972" d="M430.168,324.415a6.831,6.831,0,0,1-3.332-.831l-106-61.392a2.587,2.587,0,0,1-1.514-2.075,1.94,1.94,0,0,1,1.109-1.646l105.3-60.748a6.6,6.6,0,0,1,5.919.236l106,61.392a2.589,2.589,0,0,1,1.516,2.075,1.943,1.943,0,0,1-1.109,1.646l-105.3,60.748A5.285,5.285,0,0,1,430.168,324.415ZM321.1,261.741l106,61.393a5.99,5.99,0,0,0,5.4.234l105.3-60.748a1.441,1.441,0,0,0,.848-1.194,2.1,2.1,0,0,0-1.256-1.623l-106-61.392a5.986,5.986,0,0,0-5.4-.236l-105.3,60.748a1.443,1.443,0,0,0-.849,1.194,2.1,2.1,0,0,0,1.256,1.623Z" transform="translate(23.321 59.059)" fill="#42e8e0"/>
      <path id="Path_36499" data-name="Path 36499" d="M491.741,295.392l-.243-.419L622.878,219.1c1.513-.874,2.346-2.021,2.346-3.23s-.833-2.359-2.346-3.233l-23.12-13.378.243-.419,23.119,13.378c1.67.966,2.589,2.262,2.589,3.652s-.92,2.687-2.589,3.649Z" transform="translate(131.068 131.451)" fill="#42e8e0"/>
      <path id="Path_36501" data-name="Path 36501" d="M92.094-1.221,30.963-36.954a11.711,11.711,0,0,0-11.688,0L-38.771-3.935h-.593l58.4-33.44a12.208,12.208,0,0,1,12.172,0L92.729-1.465l-.244.244Z" transform="translate(304.937 288.174)" fill="#42e8e0"/>
      <path id="Path_36502" data-name="Path 36502" d="M291.172,201.017a13.158,13.158,0,0,1-6.434-1.536l-29.685-17.152c-1.766-1.02-2.739-2.394-2.739-3.867s.972-2.849,2.737-3.867l29.685-17.15a14.23,14.23,0,0,1,12.867,0l29.686,17.15c1.765,1.02,2.737,2.394,2.737,3.869s-.972,2.847-2.737,3.867L297.6,199.48A13.148,13.148,0,0,1,291.172,201.017ZM285,199.028a13.646,13.646,0,0,0,12.348,0l29.685-17.15c1.6-.922,2.476-2.135,2.476-3.415s-.879-2.494-2.478-3.418L297.345,157.9a13.652,13.652,0,0,0-12.347,0l-29.686,17.15c-1.6.924-2.476,2.135-2.476,3.416s.879,2.493,2.476,3.415Z" transform="translate(-43.538 119.653)" fill="#42e8e0"/>
      <path id="Path_36503" data-name="Path 36503" d="M491.983,300.724a11.443,11.443,0,0,1-5.595-1.337L456.7,282.236a3.59,3.59,0,0,1,0-6.767l29.685-17.15a12.393,12.393,0,0,1,11.189,0l29.686,17.152a3.59,3.59,0,0,1,0,6.767l-29.685,17.15A11.434,11.434,0,0,1,491.983,300.724Zm-5.335-1.789a11.794,11.794,0,0,0,10.672,0L527,281.785a3.082,3.082,0,0,0,0-5.863l-29.685-17.152a11.793,11.793,0,0,0-10.672,0l-29.685,17.15a3.082,3.082,0,0,0,0,5.863Z" transform="translate(110.448 159.624)" fill="#42e8e0"/>
      <path id="Path_36504" data-name="Path 36504" d="M290.776,156.241a11.442,11.442,0,0,1-5.595-1.337L255.5,137.753a3.589,3.589,0,0,1,0-6.765l29.686-17.15a12.379,12.379,0,0,1,11.189,0l29.686,17.152a3.59,3.59,0,0,1,0,6.767L296.371,154.9A11.442,11.442,0,0,1,290.776,156.241Zm-5.335-1.787a11.8,11.8,0,0,0,10.67,0L325.8,137.3a3.083,3.083,0,0,0,0-5.864L296.11,114.288a11.8,11.8,0,0,0-10.67,0l-29.686,17.15a3.084,3.084,0,0,0,0,5.864Z" transform="translate(-16.328 234.059)" fill="#42e8e0"/>
      <path id="Path_36505" data-name="Path 36505" d="M290.776,156.241a11.442,11.442,0,0,1-5.595-1.337L255.5,137.753a3.589,3.589,0,0,1,0-6.765l31.686-18.15a12.379,12.379,0,0,1,11.189,0l29.686,17.152a3.59,3.59,0,0,1,0,6.767L296.371,154.9A11.442,11.442,0,0,1,290.776,156.241Zm-5.335-1.787a11.8,11.8,0,0,0,10.67,0L327.8,136.3a3.083,3.083,0,0,0,0-5.864L298.11,113.288a11.8,11.8,0,0,0-10.67,0l-31.686,18.15a3.084,3.084,0,0,0,0,5.864Z" transform="translate(309.697 131.128)" fill="#42e8e0"/>
      <path id="Path_36506" data-name="Path 36506" d="M406.391,345.383a14.011,14.011,0,0,1-6.851-1.637L286.263,278.834c-1.88-1.086-2.914-2.544-2.914-4.109s1.034-3.023,2.914-4.107L348.1,234.881l.76.161-62.338,36.026c-1.711.99-2.653,2.287-2.653,3.657s.942,2.669,2.653,3.658L399.8,343.294a14.573,14.573,0,0,0,13.182,0l86.2-49.875.26.452-86.2,49.875A14.011,14.011,0,0,1,406.391,345.383Z" transform="translate(45.866 115.177)" fill="#42e8e0"/>
      <path id="Path_36507" data-name="Path 36507" d="M254.722,179.156a13.406,13.406,0,0,1-6.566-1.569l-29.686-17.15c-1.85-1.068-2.871-2.524-2.871-4.1s1.021-3.029,2.871-4.1l29.685-17.15a14.532,14.532,0,0,1,13.131,0l29.686,17.15c1.85,1.069,2.869,2.526,2.869,4.1s-1.019,3.029-2.869,4.1l-29.685,17.15A13.41,13.41,0,0,1,254.722,179.156Zm-6.042-2.478a13.369,13.369,0,0,0,12.082,0l29.686-17.15c1.51-.874,2.343-2,2.343-3.187s-.831-2.314-2.344-3.188L260.762,136a13.372,13.372,0,0,0-12.084,0L219,153.153c-1.513.874-2.344,2-2.344,3.187s.831,2.314,2.344,3.188Z" transform="translate(48.917 68.677)" fill="#453c9e"/>
      <path id="Path_36508" data-name="Path 36508" d="M320.194,316.379a13.427,13.427,0,0,1-6.566-1.569l-29.686-17.152c-1.85-1.068-2.869-2.523-2.869-4.1s1.019-3.029,2.869-4.1l29.685-17.151a14.521,14.521,0,0,1,13.133,0l29.685,17.15c1.852,1.068,2.869,2.523,2.871,4.1s-1.019,3.028-2.869,4.1l-29.686,17.15A13.423,13.423,0,0,1,320.194,316.379Zm-6.04-2.479a13.36,13.36,0,0,0,12.082,0l29.684-17.148c1.511-.874,2.344-2.006,2.344-3.188s-.833-2.314-2.344-3.187l-29.686-17.15a13.36,13.36,0,0,0-12.082,0l-29.685,17.152c-1.511.872-2.344,2-2.344,3.187s.833,2.313,2.344,3.187Z" transform="translate(-18.296 144.815)" fill="#453c9e"/>
      <path id="Path_36509" data-name="Path 36509" d="M251.224,298.028a8.267,8.267,0,0,1-4.145-1.108l-9.394-5.807.469-.236,9.186,5.593a7.779,7.779,0,0,0,7.768,0L319.4,259.386l.26.451L255.368,296.92A8.273,8.273,0,0,1,251.224,298.028Z" transform="translate(820.372 543.537) rotate(180)" fill="#42e8e0"/>
      <path id="Path_36528" data-name="Path 36528" d="M271.224,310.028a8.267,8.267,0,0,1-4.145-1.108l-29.394-17.807.469-.236L267.34,308.47a7.779,7.779,0,0,0,7.768,0l.26.451A8.273,8.273,0,0,1,271.224,310.028Z" transform="translate(820.372 717.537) rotate(180)" fill="#42e8e0"/>
      <g id="Group_1480" data-name="Group 1480" transform="translate(564.777 369.804)">
        <g id="Group_1479" data-name="Group 1479" transform="translate(0)">
          <g id="Group_1474" data-name="Group 1474" transform="translate(0 38.442)" opacity="0.11">
            <path id="Path_36510" data-name="Path 36510" d="M368.938,340.806a12.776,12.776,0,0,0-12.763-.007l-29.608,16.842a1.8,1.8,0,0,0,0,3.11l31.466,18.093a11.262,11.262,0,0,0,11.263,0l30.36-17.266a1.8,1.8,0,0,0,0-3.11Z" transform="translate(-325.67 -339.095)" fill="url(#linear-gradient)"/>
          </g>
          <g id="Group_1475" data-name="Group 1475" transform="translate(0 25.628)" opacity="0.11">
            <path id="Path_36511" data-name="Path 36511" d="M368.938,331.693a12.773,12.773,0,0,0-12.763-.007l-29.608,16.842a1.8,1.8,0,0,0,0,3.11l31.466,18.093a11.261,11.261,0,0,0,11.263,0l30.36-17.267a1.8,1.8,0,0,0,0-3.112Z" transform="translate(-325.67 -329.981)" fill="url(#linear-gradient)"/>
          </g>
          <g id="Group_1476" data-name="Group 1476" transform="translate(0 12.814)" opacity="0.11">
            <path id="Path_36512" data-name="Path 36512" d="M368.938,322.579a12.776,12.776,0,0,0-12.763-.006l-29.608,16.841a1.8,1.8,0,0,0,0,3.112l31.466,18.093a11.261,11.261,0,0,0,11.263,0l30.36-17.266a1.8,1.8,0,0,0,0-3.112Z" transform="translate(-325.67 -320.868)" fill="url(#linear-gradient)"/>
          </g>
          <g id="Group_1477" data-name="Group 1477" opacity="0.11">
            <path id="Path_36513" data-name="Path 36513" d="M368.938,313.466a12.773,12.773,0,0,0-12.763-.006L326.567,330.3a1.8,1.8,0,0,0,0,3.112l31.466,18.093a11.261,11.261,0,0,0,11.263,0l30.36-17.266a1.8,1.8,0,0,0,0-3.112Z" transform="translate(-325.67 -311.755)" fill="url(#linear-gradient)"/>
          </g>
          <path id="Path_36514" data-name="Path 36514" d="M399.656,331.128l-30.718-17.662a12.773,12.773,0,0,0-12.763-.006L326.567,330.3a1.778,1.778,0,0,0-.9,1.556V370.3a1.778,1.778,0,0,0,.9,1.555l31.466,18.093a11.261,11.261,0,0,0,11.263,0l30.36-17.267a1.779,1.779,0,0,0,.9-1.555V332.683h0A1.779,1.779,0,0,0,399.656,331.128Z" transform="translate(-325.67 -311.755)" opacity="0.5" fill="url(#linear-gradient)"/>
          <g id="Group_1478" data-name="Group 1478" opacity="0.11">
            <path id="Path_36515" data-name="Path 36515" d="M368.938,313.466a12.773,12.773,0,0,0-12.763-.006L326.567,330.3a1.8,1.8,0,0,0,0,3.112l31.466,18.093a11.261,11.261,0,0,0,11.263,0l30.36-17.266a1.8,1.8,0,0,0,0-3.112Z" transform="translate(-325.67 -311.755)" fill="url(#linear-gradient)"/>
          </g>
          <path id="Path_36516" data-name="Path 36516" d="M399.656,326.919,369.3,344.186a11.262,11.262,0,0,1-11.263,0l-31.466-18.093a1.782,1.782,0,0,1-.667-.671,1.8,1.8,0,0,0,.667,2.441l31.466,18.093a11.261,11.261,0,0,0,11.263,0l30.36-17.267a1.8,1.8,0,0,0,.666-2.441A1.783,1.783,0,0,1,399.656,326.919Z" transform="translate(-325.67 -306.205)" fill="url(#linear-gradient)"/>
        </g>
      </g>
      <g id="Group_1488" data-name="Group 1488" transform="translate(562.802 194.918)">
        <g id="Group_1486" data-name="Group 1486" transform="translate(0)">
          <g id="Group_1481" data-name="Group 1481" transform="translate(0 39.768)" opacity="0.11">
            <path id="Path_36517" data-name="Path 36517" d="M370.431,340.865a13.217,13.217,0,0,0-13.2-.007L326.6,358.281a1.858,1.858,0,0,0,0,3.218l32.552,18.718a11.65,11.65,0,0,0,11.651,0l31.408-17.862a1.857,1.857,0,0,0,0-3.218Z" transform="translate(-325.67 -339.095)" fill="url(#linear-gradient)"/>
          </g>
          <g id="Group_1482" data-name="Group 1482" transform="translate(0 26.512)" opacity="0.11">
            <path id="Path_36518" data-name="Path 36518" d="M370.431,331.753a13.213,13.213,0,0,0-13.2-.007L326.6,349.168a1.858,1.858,0,0,0,0,3.218L359.151,371.1a11.65,11.65,0,0,0,11.651,0l31.408-17.863a1.858,1.858,0,0,0,0-3.219Z" transform="translate(-325.67 -329.981)" fill="url(#linear-gradient)"/>
          </g>
          <g id="Group_1483" data-name="Group 1483" transform="translate(0 13.256)" opacity="0.11">
            <path id="Path_36519" data-name="Path 36519" d="M370.431,322.638a13.217,13.217,0,0,0-13.2-.006L326.6,340.054a1.859,1.859,0,0,0,0,3.219l32.552,18.718a11.65,11.65,0,0,0,11.651,0l31.408-17.862a1.858,1.858,0,0,0,0-3.219Z" transform="translate(-325.67 -320.868)" fill="url(#linear-gradient)"/>
          </g>
          <g id="Group_1484" data-name="Group 1484" opacity="0.11">
            <path id="Path_36520" data-name="Path 36520" d="M370.431,313.525a13.213,13.213,0,0,0-13.2-.006L326.6,330.941a1.859,1.859,0,0,0,0,3.219l32.552,18.718a11.65,11.65,0,0,0,11.651,0l31.408-17.862a1.858,1.858,0,0,0,0-3.219Z" transform="translate(-325.67 -311.755)" fill="url(#linear-gradient)"/>
          </g>
          <path id="Path_36521" data-name="Path 36521" d="M402.209,331.8l-31.779-18.271a13.214,13.214,0,0,0-13.2-.006L326.6,330.941a1.84,1.84,0,0,0-.928,1.61v39.767a1.839,1.839,0,0,0,.928,1.609l32.552,18.718a11.65,11.65,0,0,0,11.651,0l31.408-17.862a1.841,1.841,0,0,0,.93-1.609V333.405h0A1.841,1.841,0,0,0,402.209,331.8Z" transform="translate(-325.67 -311.755)" opacity="0.5" fill="url(#linear-gradient)"/>
          <g id="Group_1485" data-name="Group 1485">
            <g transform="matrix(1, 0, 0, 1, -380.03, -223.36)" filter="url(#Path_36522)">
              <path id="Path_36522-2" data-name="Path 36522" d="M370.431,313.525a13.213,13.213,0,0,0-13.2-.006L326.6,330.941a1.859,1.859,0,0,0,0,3.219l32.552,18.718a11.65,11.65,0,0,0,11.651,0l31.408-17.862a1.858,1.858,0,0,0,0-3.219Z" transform="translate(54.36 -88.4)" fill="url(#radial-gradient)"/>
            </g>
          </g>
          <path id="Path_36523" data-name="Path 36523" d="M402.209,326.971,370.8,344.834a11.65,11.65,0,0,1-11.651,0L326.6,326.116a1.844,1.844,0,0,1-.69-.694,1.86,1.86,0,0,0,.69,2.525l32.552,18.718a11.65,11.65,0,0,0,11.651,0L402.209,328.8a1.861,1.861,0,0,0,.689-2.525A1.844,1.844,0,0,1,402.209,326.971Z" transform="translate(-325.67 -305.542)" fill="url(#linear-gradient)"/>
        </g>
      </g>
      <g id="Group_1515" data-name="Group 1515" transform="translate(-180.271 -2125.732)">
        <g id="A" transform="translate(596.047 2459.521)">
          <path id="Path_36484" data-name="Path 36484" d="M399.33,161.972l-30.583-17.52a12.757,12.757,0,0,0-12.707-.006l-29.477,16.705a1.763,1.763,0,0,0-.893,1.544V266.828a1.762,1.762,0,0,0,.893,1.543l31.328,17.948a11.247,11.247,0,0,0,11.213,0L399.33,269.19a1.764,1.764,0,0,0,.895-1.543V163.515h0A1.764,1.764,0,0,0,399.33,161.972Z" transform="translate(-325.67 -311.755)" opacity="0.5" fill="url(#linear-gradient)"/>
          <path id="Path_36534" data-name="Path 36534" d="M368.747,313.452a12.757,12.757,0,0,0-12.707-.006l-29.477,16.705a1.78,1.78,0,0,0,0,3.087l31.328,17.948a11.247,11.247,0,0,0,11.213,0l30.226-17.128a1.779,1.779,0,0,0,0-3.087Z" transform="translate(-325.67 -376.755)" opacity="0.11" fill="url(#linear-gradient)"/>
          <path id="Path_36536" data-name="Path 36536" d="M368.747,313.452a12.757,12.757,0,0,0-12.707-.006l-29.477,16.705a1.78,1.78,0,0,0,0,3.087l31.328,17.948a11.247,11.247,0,0,0,11.213,0l30.226-17.128a1.779,1.779,0,0,0,0-3.087Z" transform="translate(-325.67 -402.755)" opacity="0.11" fill="url(#linear-gradient)"/>
          <path id="Path_36538" data-name="Path 36538" d="M368.747,313.452a12.757,12.757,0,0,0-12.707-.006l-29.477,16.705a1.78,1.78,0,0,0,0,3.087l31.328,17.948a11.247,11.247,0,0,0,11.213,0l30.226-17.128a1.779,1.779,0,0,0,0-3.087Z" transform="translate(-325.67 -428.755)" opacity="0.11" fill="url(#linear-gradient)"/>
          <path id="Path_36540" data-name="Path 36540" d="M368.747,313.452a12.757,12.757,0,0,0-12.707-.006l-29.477,16.705a1.78,1.78,0,0,0,0,3.087l31.328,17.948a11.247,11.247,0,0,0,11.213,0l30.226-17.128a1.779,1.779,0,0,0,0-3.087Z" transform="translate(-325.67 -454.755)" opacity="0.11" fill="url(#linear-gradient)"/>
          <path id="Path_36485-2" data-name="Path 36485" d="M368.747,313.452a12.757,12.757,0,0,0-12.707-.006l-29.477,16.705a1.78,1.78,0,0,0,0,3.087l31.328,17.948a11.247,11.247,0,0,0,11.213,0l30.226-17.128a1.779,1.779,0,0,0,0-3.087Z" transform="translate(-325.67 -480.755)" opacity="0.11" fill="url(#linear-gradient)"/>
          <path id="Path_36486" data-name="Path 36486" d="M399.33,326.907,369.1,344.035a11.248,11.248,0,0,1-11.213,0l-31.328-17.948a1.772,1.772,0,0,1-.664-.665,1.78,1.78,0,0,0,.664,2.421l31.328,17.948a11.247,11.247,0,0,0,11.213,0l30.226-17.128a1.781,1.781,0,0,0,.664-2.421A1.771,1.771,0,0,1,399.33,326.907Z" transform="translate(-325.67 -475.36)" fill="url(#linear-gradient)"/>
        </g>
        <g id="A-2" data-name="A" transform="translate(546.047 2488.294)">
          <path id="Path_36484-2" data-name="Path 36484" d="M399.33,161.972l-30.583-17.52a12.757,12.757,0,0,0-12.707-.006l-29.477,16.705a1.763,1.763,0,0,0-.893,1.544V266.828a1.762,1.762,0,0,0,.893,1.543l31.328,17.948a11.247,11.247,0,0,0,11.213,0L399.33,269.19a1.764,1.764,0,0,0,.895-1.543V163.515h0A1.764,1.764,0,0,0,399.33,161.972Z" transform="translate(-325.67 -311.755)" opacity="0.5" fill="url(#linear-gradient)"/>
          <path id="Path_36534-2" data-name="Path 36534" d="M368.747,313.452a12.757,12.757,0,0,0-12.707-.006l-29.477,16.705a1.78,1.78,0,0,0,0,3.087l31.328,17.948a11.247,11.247,0,0,0,11.213,0l30.226-17.128a1.779,1.779,0,0,0,0-3.087Z" transform="translate(-325.67 -376.755)" opacity="0.11" fill="url(#linear-gradient)"/>
          <path id="Path_36536-2" data-name="Path 36536" d="M368.747,313.452a12.757,12.757,0,0,0-12.707-.006l-29.477,16.705a1.78,1.78,0,0,0,0,3.087l31.328,17.948a11.247,11.247,0,0,0,11.213,0l30.226-17.128a1.779,1.779,0,0,0,0-3.087Z" transform="translate(-325.67 -402.755)" opacity="0.11" fill="url(#linear-gradient)"/>
          <path id="Path_36538-2" data-name="Path 36538" d="M368.747,313.452a12.757,12.757,0,0,0-12.707-.006l-29.477,16.705a1.78,1.78,0,0,0,0,3.087l31.328,17.948a11.247,11.247,0,0,0,11.213,0l30.226-17.128a1.779,1.779,0,0,0,0-3.087Z" transform="translate(-325.67 -428.755)" opacity="0.11" fill="url(#linear-gradient)"/>
          <path id="Path_36540-2" data-name="Path 36540" d="M368.747,313.452a12.757,12.757,0,0,0-12.707-.006l-29.477,16.705a1.78,1.78,0,0,0,0,3.087l31.328,17.948a11.247,11.247,0,0,0,11.213,0l30.226-17.128a1.779,1.779,0,0,0,0-3.087Z" transform="translate(-325.67 -454.755)" opacity="0.11" fill="url(#linear-gradient)"/>
          <path id="Path_36485-3" data-name="Path 36485" d="M368.747,313.452a12.757,12.757,0,0,0-12.707-.006l-29.477,16.705a1.78,1.78,0,0,0,0,3.087l31.328,17.948a11.247,11.247,0,0,0,11.213,0l30.226-17.128a1.779,1.779,0,0,0,0-3.087Z" transform="translate(-325.67 -480.755)" opacity="0.11" fill="url(#linear-gradient)"/>
          <path id="Path_36486-2" data-name="Path 36486" d="M399.33,326.907,369.1,344.035a11.248,11.248,0,0,1-11.213,0l-31.328-17.948a1.772,1.772,0,0,1-.664-.665,1.78,1.78,0,0,0,.664,2.421l31.328,17.948a11.247,11.247,0,0,0,11.213,0l30.226-17.128a1.781,1.781,0,0,0,.664-2.421A1.771,1.771,0,0,1,399.33,326.907Z" transform="translate(-325.67 -475.36)" fill="url(#linear-gradient)"/>
        </g>
        <g id="A-3" data-name="A" transform="translate(646.047 2488.294)">
          <path id="Path_36484-3" data-name="Path 36484" d="M399.33,161.972l-30.583-17.52a12.757,12.757,0,0,0-12.707-.006l-29.477,16.705a1.763,1.763,0,0,0-.893,1.544V266.828a1.762,1.762,0,0,0,.893,1.543l31.328,17.948a11.247,11.247,0,0,0,11.213,0L399.33,269.19a1.764,1.764,0,0,0,.895-1.543V163.515h0A1.764,1.764,0,0,0,399.33,161.972Z" transform="translate(-325.67 -311.755)" opacity="0.5" fill="url(#linear-gradient)"/>
          <path id="Path_36534-3" data-name="Path 36534" d="M368.747,313.452a12.757,12.757,0,0,0-12.707-.006l-29.477,16.705a1.78,1.78,0,0,0,0,3.087l31.328,17.948a11.247,11.247,0,0,0,11.213,0l30.226-17.128a1.779,1.779,0,0,0,0-3.087Z" transform="translate(-325.67 -376.755)" opacity="0.11" fill="url(#linear-gradient)"/>
          <path id="Path_36536-3" data-name="Path 36536" d="M368.747,313.452a12.757,12.757,0,0,0-12.707-.006l-29.477,16.705a1.78,1.78,0,0,0,0,3.087l31.328,17.948a11.247,11.247,0,0,0,11.213,0l30.226-17.128a1.779,1.779,0,0,0,0-3.087Z" transform="translate(-325.67 -402.755)" opacity="0.11" fill="url(#linear-gradient)"/>
          <path id="Path_36538-3" data-name="Path 36538" d="M368.747,313.452a12.757,12.757,0,0,0-12.707-.006l-29.477,16.705a1.78,1.78,0,0,0,0,3.087l31.328,17.948a11.247,11.247,0,0,0,11.213,0l30.226-17.128a1.779,1.779,0,0,0,0-3.087Z" transform="translate(-325.67 -428.755)" opacity="0.11" fill="url(#linear-gradient)"/>
          <path id="Path_36540-3" data-name="Path 36540" d="M368.747,313.452a12.757,12.757,0,0,0-12.707-.006l-29.477,16.705a1.78,1.78,0,0,0,0,3.087l31.328,17.948a11.247,11.247,0,0,0,11.213,0l30.226-17.128a1.779,1.779,0,0,0,0-3.087Z" transform="translate(-325.67 -454.755)" opacity="0.11" fill="url(#linear-gradient)"/>
          <path id="Path_36485-4" data-name="Path 36485" d="M368.747,313.452a12.757,12.757,0,0,0-12.707-.006l-29.477,16.705a1.78,1.78,0,0,0,0,3.087l31.328,17.948a11.247,11.247,0,0,0,11.213,0l30.226-17.128a1.779,1.779,0,0,0,0-3.087Z" transform="translate(-325.67 -480.755)" opacity="0.11" fill="url(#linear-gradient)"/>
          <path id="Path_36486-3" data-name="Path 36486" d="M399.33,326.907,369.1,344.035a11.248,11.248,0,0,1-11.213,0l-31.328-17.948a1.772,1.772,0,0,1-.664-.665,1.78,1.78,0,0,0,.664,2.421l31.328,17.948a11.247,11.247,0,0,0,11.213,0l30.226-17.128a1.781,1.781,0,0,0,.664-2.421A1.771,1.771,0,0,1,399.33,326.907Z" transform="translate(-325.67 -475.36)" fill="url(#linear-gradient)"/>
        </g>
        <g id="A-4" data-name="A" transform="translate(596.047 2517.521)">
          <path id="Path_36484-4" data-name="Path 36484" d="M399.33,161.972l-30.583-17.52a12.757,12.757,0,0,0-12.707-.006l-29.477,16.705a1.763,1.763,0,0,0-.893,1.544V266.828a1.762,1.762,0,0,0,.893,1.543l31.328,17.948a11.247,11.247,0,0,0,11.213,0L399.33,269.19a1.764,1.764,0,0,0,.895-1.543V163.515h0A1.764,1.764,0,0,0,399.33,161.972Z" transform="translate(-325.67 -311.755)" opacity="0.5" fill="url(#linear-gradient)"/>
          <path id="Path_36534-4" data-name="Path 36534" d="M368.747,313.452a12.757,12.757,0,0,0-12.707-.006l-29.477,16.705a1.78,1.78,0,0,0,0,3.087l31.328,17.948a11.247,11.247,0,0,0,11.213,0l30.226-17.128a1.779,1.779,0,0,0,0-3.087Z" transform="translate(-325.67 -376.755)" opacity="0.11" fill="url(#linear-gradient)"/>
          <path id="Path_36536-4" data-name="Path 36536" d="M368.747,313.452a12.757,12.757,0,0,0-12.707-.006l-29.477,16.705a1.78,1.78,0,0,0,0,3.087l31.328,17.948a11.247,11.247,0,0,0,11.213,0l30.226-17.128a1.779,1.779,0,0,0,0-3.087Z" transform="translate(-325.67 -402.755)" opacity="0.11" fill="url(#linear-gradient)"/>
          <path id="Path_36538-4" data-name="Path 36538" d="M368.747,313.452a12.757,12.757,0,0,0-12.707-.006l-29.477,16.705a1.78,1.78,0,0,0,0,3.087l31.328,17.948a11.247,11.247,0,0,0,11.213,0l30.226-17.128a1.779,1.779,0,0,0,0-3.087Z" transform="translate(-325.67 -428.755)" opacity="0.11" fill="url(#linear-gradient)"/>
          <path id="Path_36540-4" data-name="Path 36540" d="M368.747,313.452a12.757,12.757,0,0,0-12.707-.006l-29.477,16.705a1.78,1.78,0,0,0,0,3.087l31.328,17.948a11.247,11.247,0,0,0,11.213,0l30.226-17.128a1.779,1.779,0,0,0,0-3.087Z" transform="translate(-325.67 -454.755)" opacity="0.11" fill="url(#linear-gradient)"/>
          <path id="Path_36485-5" data-name="Path 36485" d="M368.747,313.452a12.757,12.757,0,0,0-12.707-.006l-29.477,16.705a1.78,1.78,0,0,0,0,3.087l31.328,17.948a11.247,11.247,0,0,0,11.213,0l30.226-17.128a1.779,1.779,0,0,0,0-3.087Z" transform="translate(-325.67 -480.755)" opacity="0.11" fill="url(#linear-gradient)"/>
          <path id="Path_36486-4" data-name="Path 36486" d="M399.33,326.907,369.1,344.035a11.248,11.248,0,0,1-11.213,0l-31.328-17.948a1.772,1.772,0,0,1-.664-.665,1.78,1.78,0,0,0,.664,2.421l31.328,17.948a11.247,11.247,0,0,0,11.213,0l30.226-17.128a1.781,1.781,0,0,0,.664-2.421A1.771,1.771,0,0,1,399.33,326.907Z" transform="translate(-325.67 -475.36)" fill="url(#linear-gradient)"/>
        </g>
      </g>
      <g id="Group_1516" data-name="Group 1516" transform="translate(265.777 156.853)">
        <g id="Group_1453" data-name="Group 1453" transform="translate(0)">
          <g id="Group_1448" data-name="Group 1448" transform="translate(0 38.442)" opacity="0.11">
            <path id="Path_36480" data-name="Path 36480" d="M368.938,340.806a12.776,12.776,0,0,0-12.763-.007l-29.608,16.842a1.8,1.8,0,0,0,0,3.11l31.466,18.093a11.262,11.262,0,0,0,11.263,0l30.36-17.266a1.8,1.8,0,0,0,0-3.11Z" transform="translate(-325.67 -339.095)" fill="url(#linear-gradient)"/>
          </g>
          <g id="Group_1449" data-name="Group 1449" transform="translate(0 25.628)" opacity="0.11">
            <path id="Path_36481" data-name="Path 36481" d="M368.938,331.693a12.773,12.773,0,0,0-12.763-.007l-29.608,16.842a1.8,1.8,0,0,0,0,3.11l31.466,18.093a11.261,11.261,0,0,0,11.263,0l30.36-17.267a1.8,1.8,0,0,0,0-3.112Z" transform="translate(-325.67 -329.981)" fill="url(#linear-gradient)"/>
          </g>
          <g id="Group_1450" data-name="Group 1450" transform="translate(0 12.814)" opacity="0.11">
            <path id="Path_36482" data-name="Path 36482" d="M368.938,322.579a12.776,12.776,0,0,0-12.763-.006l-29.608,16.841a1.8,1.8,0,0,0,0,3.112l31.466,18.093a11.261,11.261,0,0,0,11.263,0l30.36-17.266a1.8,1.8,0,0,0,0-3.112Z" transform="translate(-325.67 -320.868)" fill="url(#linear-gradient)"/>
          </g>
          <g id="Group_1451" data-name="Group 1451" opacity="0.11">
            <path id="Path_36483" data-name="Path 36483" d="M368.938,313.466a12.773,12.773,0,0,0-12.763-.006L326.567,330.3a1.8,1.8,0,0,0,0,3.112l31.466,18.093a11.261,11.261,0,0,0,11.263,0l30.36-17.266a1.8,1.8,0,0,0,0-3.112Z" transform="translate(-325.67 -311.755)" fill="url(#linear-gradient)"/>
          </g>
          <path id="Path_36484-5" data-name="Path 36484" d="M399.656,331.128l-30.718-17.662a12.773,12.773,0,0,0-12.763-.006L326.567,330.3a1.778,1.778,0,0,0-.9,1.556V370.3a1.778,1.778,0,0,0,.9,1.555l31.466,18.093a11.261,11.261,0,0,0,11.263,0l30.36-17.267a1.779,1.779,0,0,0,.9-1.555V332.683h0A1.779,1.779,0,0,0,399.656,331.128Z" transform="translate(-325.67 -311.755)" opacity="0.5" fill="url(#linear-gradient)"/>
          <g transform="matrix(1, 0, 0, 1, -83, -185.29)" filter="url(#Path_36485)">
            <path id="Path_36485-6" data-name="Path 36485" d="M368.938,313.466a12.773,12.773,0,0,0-12.763-.006L326.567,330.3a1.8,1.8,0,0,0,0,3.112l31.466,18.093a11.261,11.261,0,0,0,11.263,0l30.36-17.266a1.8,1.8,0,0,0,0-3.112Z" transform="translate(-242.67 -126.46)" fill="url(#radial-gradient)"/>
          </g>
          <path id="Path_36486-5" data-name="Path 36486" d="M399.656,326.919,369.3,344.186a11.262,11.262,0,0,1-11.263,0l-31.466-18.093a1.782,1.782,0,0,1-.667-.671,1.8,1.8,0,0,0,.667,2.441l31.466,18.093a11.261,11.261,0,0,0,11.263,0l30.36-17.267a1.8,1.8,0,0,0,.666-2.441A1.783,1.783,0,0,1,399.656,326.919Z" transform="translate(-325.67 -306.205)" fill="url(#linear-gradient)"/>
        </g>
      </g>
      <g id="Group_1518" data-name="Group 1518" transform="translate(-0.004 -4.229)">
        <g id="Head" transform="translate(353.205 26.79)">
          <path id="Path_36971" data-name="Path 36971" d="M335.865,303.974c-18.707,10.831-49.041,10.831-67.75,0s-18.71-28.393,0-39.224,49.042-10.831,67.751,0S354.574,293.143,335.865,303.974Z" transform="translate(-202.415 -93.568)" fill="#180d5b" opacity="0.2"/>
          <ellipse id="Ellipse_4538" data-name="Ellipse 4538" cx="110" cy="109.5" rx="110" ry="109.5" transform="translate(-10.424)" opacity="0.5" fill="url(#linear-gradient-48)" style="mix-blend-mode: lighten;isolation: isolate"/>
          <g id="Group_1664" data-name="Group 1664" transform="translate(42.581 57.694)">
            <path id="Path_36941" data-name="Path 36941" d="M101.571,309.259c4.684,5.7,11.132,10.878,17.863,13.571a92.729,92.729,0,0,0,36.78,4.879c12.65-.8,25.534-3.79,36.658-10.018,5.568-3.117,10.51-8.653,14.115-14-8.348-15.14-22.878-24.711-39.743-28.444-17.279-3.823-36.762.022-50.349,11.654C109.366,293.351,104.621,299.881,101.571,309.259Z" transform="translate(-98.349 -273.824)" opacity="0.5" fill="url(#linear-gradient-48)" style="mix-blend-mode: lighten;isolation: isolate"/>
            <path id="Path_36942" data-name="Path 36942" d="M113.844,287.523c.012.23-.124,18.767-.124,18.767l-11.565-8.257,2.869-6Z" transform="translate(-97.746 -259.684)" fill="#3c3b95"/>
            <path id="Path_36943" data-name="Path 36943" d="M144.815,284.576l4.422,20.773,11.364-8.661-.292-5.174Z" transform="translate(-53.714 -262.726)" fill="#3c3b95"/>
            <path id="Path_36944" data-name="Path 36944" d="M125.395,368.7c18.814,14.871,42.606,25.162,60.357,24.16l1.008-.057a34.451,34.451,0,0,0,32.149-36.365c-.35-6.206-.469-8-.723-12.5a9.932,9.932,0,0,1,1.416-5.666c1.935-3.223,4.16-8.2,4.024-10.618l-3.743-17.468s-.986-.532-2.028-1.1a5.418,5.418,0,0,1-2.8-3.664,59.553,59.553,0,0,0-2.812-9.141c-.295-.752-.6-1.492-.935-2.227-.795-1.782-2.624-5.458-2.624-5.458s-6.231,9.387-13.3,11.8c-12.049,4.117-24.857,9.332-37.512,10.118-12.508.8-25.821.3-37.562-4.111-6.785-2.548-12.071-6.826-17.1-12.388C94.75,320.312,103.214,351.152,125.395,368.7Z" transform="translate(-99.985 -258.578)" fill="url(#linear-gradient-50)"/>
            <path id="Path_36945" data-name="Path 36945" d="M146.2,296.377c.549,1.12,1.124,2.26,1.652,3.382.224.453.441.945.654,1.4a65.971,65.971,0,0,1,3.82,10.829,76.6,76.6,0,0,1,2.581,28.477l1.366-.9a79.353,79.353,0,0,0-2.839-28.328,85.093,85.093,0,0,0-3.776-10.457c-.256-.606-.482-1.079-.709-1.553-.528-1.144-1.1-2.262-1.674-3.4Z" transform="translate(-52.284 -251.112)" fill="#fff"/>
            <path id="Path_36946" data-name="Path 36946" d="M135.264,323.478a.612.612,0,0,0,.579-.632l-.13-3.306a.609.609,0,0,0-.632-.585.593.593,0,0,0-.583.632l.13,3.306A.612.612,0,0,0,135.264,323.478Z" transform="translate(-64.363 -227.242)" fill="#fff"/>
            <path id="Path_36947" data-name="Path 36947" d="M135.155,333.022a.608.608,0,0,0,.577-.636l-.244-5.515a11.453,11.453,0,0,1,5.1-9.988l19.5-13.063a.609.609,0,0,0-.677-1.012l-19.5,13.063a12.664,12.664,0,0,0-5.643,11.049l.244,5.521A.612.612,0,0,0,135.155,333.022Z" transform="translate(-64.604 -244.013)" fill="#fff"/>
            <path id="Path_36948" data-name="Path 36948" d="M151.447,303.031a.606.606,0,0,0,.3-.1l5.521-3.715a.608.608,0,1,0-.679-1.01l-5.519,3.715a.608.608,0,0,0,.372,1.112Z" transform="translate(-47.531 -248.765)" fill="#fff"/>
            <path id="Path_36949" data-name="Path 36949" d="M136.919,344.243a6.338,6.338,0,0,0,9.846,5.044l33.756-22.358a12.114,12.114,0,0,0,5.434-10.8l-.632-11.209a6.357,6.357,0,0,0-9.884-4.908L141.89,322.491A12.128,12.128,0,0,0,136.5,333Z" transform="translate(-62.299 -247.908)" fill="#453c9e"/>
            <g id="Group_1660" data-name="Group 1660" transform="translate(7.66 55.04)">
              <g id="Group_1658" data-name="Group 1658">
                <path id="Path_36950" data-name="Path 36950" d="M103.759,317.588c.226,12.792,8.86,26.94,19.247,31.537a15.663,15.663,0,0,0,7.178,1.459,11.076,11.076,0,0,0,5.558-1.819c4.06-2.695,6.32-8.1,6.2-14.839-.226-12.794-8.86-26.942-19.249-31.539-4.717-2.089-9.238-1.961-12.733.36C105.9,305.441,103.641,310.849,103.759,317.588Zm1.217-.022c-.112-6.314,1.951-11.346,5.66-13.807,3.136-2.079,7.245-2.17,11.569-.26,10,4.424,18.306,18.082,18.523,30.448.11,6.312-1.953,11.346-5.662,13.806-3.134,2.081-7.245,2.172-11.569.258C113.5,343.589,105.194,329.931,104.976,317.565Z" transform="translate(-103.755 -300.908)" fill="#a3b9f2"/>
                <path id="Path_36951" data-name="Path 36951" d="M110.018,303.138c3.136-2.079,7.245-2.17,11.569-.26,10,4.424,18.306,18.082,18.523,30.448.11,6.312-1.953,11.346-5.662,13.806-3.134,2.081-7.245,2.172-11.569.258-9.994-4.422-18.3-18.08-18.521-30.446C104.246,310.631,106.309,305.6,110.018,303.138Z" transform="translate(-103.137 -300.288)" fill="#fff"/>
              </g>
              <path id="Path_36952" data-name="Path 36952" d="M123.064,309.693a4.458,4.458,0,0,1-2.282-3.743,1.992,1.992,0,0,1,.736-1.76,1.534,1.534,0,0,1,1.51-.043,4.449,4.449,0,0,1,2.284,3.741,1.993,1.993,0,0,1-.736,1.762,1.313,1.313,0,0,1-.658.215A1.882,1.882,0,0,1,123.064,309.693Z" transform="translate(-86.18 -297.747)" fill="#fff"/>
              <g id="Group_1659" data-name="Group 1659" transform="translate(5.702 8.436)">
                <path id="Path_36953" data-name="Path 36953" d="M113.637,305.088c-1.9,1.87,1.88,4.769,1.949,8.7.15,8.57,2.676,14.091,9.62,17.164,1.882.833,1.926,5.087,3.514,4.881-2.248,2.213-5.548,2.821-9.311,1.156-6.942-3.073-12.693-12.51-12.845-21.079C106.456,309.658,109.37,305.641,113.637,305.088Z" transform="translate(-106.561 -305.03)" fill="url(#linear-gradient)"/>
                <g transform="matrix(1, 0, 0, 1, -226.37, -172.17)" filter="url(#Path_36954)">
                  <path id="Path_36954-2" data-name="Path 36954" d="M108.569,313.941c.173,8.555,5.907,17.995,12.831,21.057a9.545,9.545,0,0,0,5.249.86,10.088,10.088,0,0,0,2.7-5.448c.055-.181-2.713-1.014-2.68-1.215.15-.849-1.813-1.609-1.823-2.583-.128-8.139.26-10.037-6.157-13.526-.161-.1-1.1-6.694-1.26-6.8-.226-.1-.433-.217-.658-.295a9.85,9.85,0,0,0-5.208-.878C109.681,307,108.5,309.982,108.569,313.941Z" transform="translate(121.88 -132.89)" fill="url(#radial-gradient)"/>
                </g>
                <path id="Path_36955" data-name="Path 36955" d="M111.826,312.5c.136,6.745,4.652,14.193,10.122,16.584a7.715,7.715,0,0,0,4.046.7,4.2,4.2,0,0,0,.122-.561,14.756,14.756,0,0,0,.177-2.754c-.126-8.139-5.3-17.034-11.715-20.523-.161-.1-.343-.181-.5-.282A9.286,9.286,0,0,0,111.826,312.5Z" transform="translate(-101.129 -304.434)" fill="#a4b5ec"/>
              </g>
            </g>
            <path id="Path_36956" data-name="Path 36956" d="M107.6,294.452c8.551-4.121,22.26-8.389,39.316-9.352l.179-.01a117.2,117.2,0,0,1,36.374,3.591c.3.094.6.171.9.264a49.424,49.424,0,0,0-5.03-4.109,122.628,122.628,0,0,0-32.4-2.493l-.179.01a118.841,118.841,0,0,0-35.418,7.442A48.717,48.717,0,0,0,107.6,294.452Z" transform="translate(-92.124 -265.227)" fill="#e9eefc"/>
            <path id="Path_36957" data-name="Path 36957" d="M107.315,297.115c9.181-5,23.925-11.148,39.9-12.051l.179-.01c15.353-.866,30.257,3.294,40.161,7.184-1.394-1.575-2.859-3.093-4.314-4.463-9.911-3.355-22.848-6.212-36-5.469l-.179.01c-14.2.8-27.509,5.6-37.058,10.291-.528.728-1.026,1.488-1.51,2.254-.118.189-.335.569-.583,1.061C107.711,296.32,107.512,296.716,107.315,297.115Z" transform="translate(-92.42 -265.191)" fill="#e9eefc"/>
            <path id="Path_36958" data-name="Path 36958" d="M189.832,288.681a117.02,117.02,0,0,0-36.374-3.591l-.179.01c-29.07,1.64-48.392,12.878-49.076,16.676l-2.764.156c.181-7.171,24.457-18.043,51.686-19.58l.179-.01c26.957-1.522,52.617,6.344,54.1,13.609l-2.829.159C203.784,294.585,199.757,291.441,189.832,288.681Z" transform="translate(-98.485 -265.227)" fill="#e9eefc"/>
            <g id="Group_1663" data-name="Group 1663" transform="translate(8.589 8.839)">
              <path id="Path_36959" data-name="Path 36959" d="M104.212,310.7c5.731,3.875,16.936,8.551,31.956,9.708.612.047,1.248.1,1.859.157a111,111,0,0,0,14.126.1l.234-.012a103.248,103.248,0,0,0,26.95-5.062c.622-.2,1.219-.4,1.817-.6,8.368-3,14.68-6.637,18.356-9.661-.8-1.221-1.613-2.394-2.477-3.564a4.909,4.909,0,0,0-3.766-2.022l.035-.514a5.44,5.44,0,0,0-.4-2.109,4.228,4.228,0,0,0-.9-1.357c-1.022-1.091-2.091-2.134-3.2-3.15a53.172,53.172,0,0,0-5.164-4.213,64.978,64.978,0,0,0-9.354-5.757,7.175,7.175,0,0,0-1.677-.585,6.667,6.667,0,0,0-3.113.081l-.3.087c-.024,0-.138.031-.138.031a6.693,6.693,0,0,0-1.112-1.39,1.225,1.225,0,0,0-.25-.242,6.656,6.656,0,0,0-2.8-1.441,36.077,36.077,0,0,0-5.916-.931c-5.7-.406-11.346.967-15.548,4.629-.425.376-.823.774-1.223,1.171l-.309.347c-.071-.02-.1-.043-.169-.061a4.8,4.8,0,0,0-.5-.23,16.346,16.346,0,0,0-5.987-1.329,16.91,16.91,0,0,0-1.9.014,27.087,27.087,0,0,0-10.114,2.823,24.034,24.034,0,0,0-3.948,2.357,4.862,4.862,0,0,0-1.6,2.036,4.768,4.768,0,0,0-.37,2.579l-.821.022a4.7,4.7,0,0,0-1.278.189,5.165,5.165,0,0,0-2.689,1.841,44.628,44.628,0,0,0-4.168,6.357,6.278,6.278,0,0,0-.715,2.292,5.979,5.979,0,0,0,.059,1.872c-.045.026-.291.228-.291.228a5.469,5.469,0,0,0-1.575,1.614,4.7,4.7,0,0,0-.532.945A22.185,22.185,0,0,0,104.212,310.7Z" transform="translate(-104.212 -278.173)" fill="url(#linear-gradient)"/>
              <path id="Path_36970" data-name="Path 36970" d="M1979.986,4457.259a4.9,4.9,0,0,0-.677-2.362,4.576,4.576,0,0,0-6.18-1.9.947.947,0,0,1-.941-1.644,6.489,6.489,0,0,1,8.766,2.6,6.557,6.557,0,0,1,.891,3.461C1981.221,4457.356,1980.594,4457.3,1979.986,4457.259Zm33.775-18.022a53.477,53.477,0,0,0-5.235-5.194,61.359,61.359,0,0,0-18-11.148c-1.565-.63-4.792-1.673-4.792-1.673.724-.751,1.351-1.347,1.351-1.347a59.166,59.166,0,0,1,11.484,4.775,64.1,64.1,0,0,1,11.216,7.982,60.919,60.919,0,0,1,5.375,5.337,70.457,70.457,0,0,1,9.813,13.864c-.592.2-1.2.4-1.817.6A68.806,68.806,0,0,0,2013.761,4439.237Zm-18.076,9.28a.943.943,0,0,1,1.418-1.242c1.4,1.592,4.126,1.493,6.1-.229s2.422-4.422,1.024-6.013a.943.943,0,1,1,1.418-1.242c2.08,2.374,1.54,6.261-1.2,8.671a7.378,7.378,0,0,1-3.254,1.665,6.577,6.577,0,0,1-1.413.156A5.352,5.352,0,0,1,1995.684,4448.517Zm-38.023-5.287a15.119,15.119,0,0,0-6.146-1.226,5.64,5.64,0,0,1-.058-1.872,15.386,15.386,0,0,1,7,1.411.9.9,0,0,1,.445,1.219.79.79,0,0,1-.262.341.9.9,0,0,1-.585.221A.87.87,0,0,1,1957.661,4443.23Zm72.587-3.264a.956.956,0,0,1,.534-1.237c.055-.022,4.076-1.625,5.938-4.767a5.072,5.072,0,0,1,.4,2.109l-.035.514a15.1,15.1,0,0,1-5.618,3.9.76.76,0,0,1-.281.072h-.052A.949.949,0,0,1,2030.248,4439.966Zm-50.737-2.718a.945.945,0,0,1-.826-.686,6.1,6.1,0,0,1,.677-4.832,6.867,6.867,0,0,1,8.974-2.52,6.1,6.1,0,0,1,3.093,3.774.941.941,0,1,1-1.812.509,4.239,4.239,0,0,0-2.152-2.614,4.984,4.984,0,0,0-6.488,1.82,4.239,4.239,0,0,0-.478,3.355.941.941,0,0,1-.651,1.16,1,1,0,0,1-.266.036Zm-18.43-7.814.047,0a4.768,4.768,0,0,1,.369-2.579c.586.811,3.758,5.067,7.505,4.127a1,1,0,0,1,1.1.783.968.968,0,0,1-.784,1.077c-.3.041-.582.08-.861.1-.156.009-.311.013-.464.013A9.149,9.149,0,0,1,1961.081,4429.434Zm47.477-5.046c-.083-2.484,1.426-5.212,2.953-6.921a14.915,14.915,0,0,1,1.355,1.607,6.469,6.469,0,0,0-2.424,5.245.944.944,0,0,1-.9.976h-.036A.963.963,0,0,1,2008.558,4424.388Z" transform="translate(-1948.03 -4415.026)" fill="url(#linear-gradient-53)"/>
            </g>
            <path id="Path_36968" data-name="Path 36968" d="M104.21,294.767a1.179,1.179,0,0,0-.028.258c.248,4.385,20.547,15.95,50.865,14.239l.219-.012c30.064-1.7,49.717-15.479,49.481-19.673a1.3,1.3,0,0,0-.161-.478l2.829-.159a3.306,3.306,0,0,1,.079.482c.4,7.072-22.163,20.889-52.074,22.577l-.264.014c-29.913,1.689-53.316-9.612-53.722-16.834-.006-.085.01-.173.012-.258Z" transform="translate(-98.492 -258.218)" fill="#e9eefc"/>
            <path id="Path_36969" data-name="Path 36969" d="M143.577,323.966l28.552-18.3a2.06,2.06,0,0,1,3.008,1.416,5.471,5.471,0,0,1,.087.713,5.554,5.554,0,0,1-3.016,5.259l-28.55,18.3a2.046,2.046,0,0,1-2.92-1.461,5.554,5.554,0,0,1,2.839-5.928Z" transform="translate(-58.022 -241.214)" fill="#42e8e0"/>
          </g>
        </g>
      </g>
    </g>
  </g>
</svg>
