<svg xmlns="http://www.w3.org/2000/svg" xmlns:xlink="http://www.w3.org/1999/xlink" width="540" height="540" viewBox="0 0 540 540">
  <defs>
    <clipPath id="clip-path">
      <rect id="Rectangle_1307" data-name="Rectangle 1307" width="540" height="540" transform="translate(360 1255)" fill="#fff"/>
    </clipPath>
    <linearGradient id="linear-gradient" y1="0.5" x2="1" y2="0.5" gradientUnits="objectBoundingBox">
      <stop offset="0" stop-color="#5761d7"/>
      <stop offset="0.073" stop-color="#5471d8"/>
      <stop offset="0.279" stop-color="#4d9bda"/>
      <stop offset="0.48" stop-color="#48bddd"/>
      <stop offset="0.672" stop-color="#44d4de"/>
      <stop offset="0.849" stop-color="#42e3df"/>
      <stop offset="1" stop-color="#42e8e0"/>
    </linearGradient>
    <linearGradient id="linear-gradient-15" x1="1" y1="0.045" x2="0.048" y2="0.954" gradientUnits="objectBoundingBox">
      <stop offset="0" stop-color="#453c9e"/>
      <stop offset="1" stop-color="#19307c"/>
    </linearGradient>
    <linearGradient id="linear-gradient-16" x1="0.5" x2="0.5" y2="1" gradientUnits="objectBoundingBox">
      <stop offset="0" stop-color="#fddd4d"/>
      <stop offset="1" stop-color="#f8c332"/>
    </linearGradient>
    <linearGradient id="linear-gradient-17" x1="2.583" y1="1.628" x2="2.616" y2="2.844" xlink:href="#linear-gradient-16"/>
    <linearGradient id="linear-gradient-19" x1="0.06" y1="0.865" x2="0.764" y2="0.19" gradientUnits="objectBoundingBox">
      <stop offset="0" stop-color="#d5ae00"/>
      <stop offset="1" stop-color="#f8c332"/>
    </linearGradient>
    <linearGradient id="linear-gradient-21" x1="0.06" y1="0.865" x2="0.764" y2="0.19" xlink:href="#linear-gradient-16"/>
    <linearGradient id="linear-gradient-23" x1="0.06" y1="0.865" x2="0.764" y2="0.19" gradientUnits="objectBoundingBox">
      <stop offset="0" stop-color="#f8c332"/>
      <stop offset="1" stop-color="#f8c332"/>
    </linearGradient>
    <linearGradient id="linear-gradient-25" x1="0.06" y1="0.865" x2="0.764" y2="0.19" gradientUnits="objectBoundingBox">
      <stop offset="0" stop-color="#cea900"/>
      <stop offset="1" stop-color="#f8c332"/>
    </linearGradient>
    <radialGradient id="radial-gradient" cx="0.722" cy="0.311" r="0.282" gradientTransform="translate(0 0.021) scale(1 0.933)" xlink:href="#linear-gradient-16"/>
    <filter id="Path_36492" x="-108.502" y="232.252" width="374.469" height="339.684" filterUnits="userSpaceOnUse">
      <feOffset dx="-40" input="SourceAlpha"/>
      <feGaussianBlur stdDeviation="49.5" result="blur"/>
      <feFlood flood-color="#0817ad" flood-opacity="0.655"/>
      <feComposite operator="in" in2="blur"/>
      <feComposite in="SourceGraphic"/>
    </filter>
    <filter id="Path_36494" x="-89.548" y="236.184" width="349.13" height="323.291" filterUnits="userSpaceOnUse">
      <feOffset dx="-40" input="SourceAlpha"/>
      <feGaussianBlur stdDeviation="49.5" result="blur-2"/>
      <feFlood flood-color="#0817ad" flood-opacity="0.655"/>
      <feComposite operator="in" in2="blur-2"/>
      <feComposite in="SourceGraphic"/>
    </filter>
  </defs>
  <g id="Mask_Group_2" data-name="Mask Group 2" transform="translate(-360 -1255)" clip-path="url(#clip-path)">
    <g id="Group_1462" data-name="Group 1462" transform="translate(177.223 1283.44)">
      <path id="Path_36198" data-name="Path 36198" d="M491.741,295.392l-.243-.419L622.878,219.1c1.513-.874,2.346-2.021,2.346-3.23s-.833-2.359-2.346-3.233l-23.12-13.378.243-.419,23.119,13.378c1.67.966,2.589,2.262,2.589,3.652s-.92,2.687-2.589,3.649Z" transform="translate(133.068 88.451)" fill="#42e8e0"/>
      <path id="Path_36199" data-name="Path 36199" d="M430.168,324.415a6.831,6.831,0,0,1-3.332-.831l-106-61.392a2.587,2.587,0,0,1-1.514-2.075,1.94,1.94,0,0,1,1.109-1.646l105.3-60.748a6.6,6.6,0,0,1,5.919.236l106,61.392a2.589,2.589,0,0,1,1.516,2.075,1.943,1.943,0,0,1-1.109,1.646l-105.3,60.748A5.285,5.285,0,0,1,430.168,324.415ZM321.1,261.741l106,61.393a5.99,5.99,0,0,0,5.4.234l105.3-60.748a1.441,1.441,0,0,0,.848-1.194,2.1,2.1,0,0,0-1.256-1.623l-106-61.392a5.986,5.986,0,0,0-5.4-.236l-105.3,60.748a1.443,1.443,0,0,0-.849,1.194,2.1,2.1,0,0,0,1.256,1.623Z" transform="translate(23.321 78.058)" fill="#42e8e0"/>
      <path id="Path_36205" data-name="Path 36205" d="M170.636,75.807,2.963-20.954a11.711,11.711,0,0,0-11.688,0l-30.1,17.39L-40-3.445l31.033-17.93a12.208,12.208,0,0,1,12.172,0l168.4,97.182-.363.209Z" transform="translate(204.937 242.174)" fill="#42e8e0"/>
      <path id="Path_36211" data-name="Path 36211" d="M291.172,201.017a13.158,13.158,0,0,1-6.434-1.536l-29.685-17.152c-1.766-1.02-2.739-2.394-2.739-3.867s.972-2.849,2.737-3.867l29.685-17.15a14.23,14.23,0,0,1,12.867,0l29.686,17.15c1.765,1.02,2.737,2.394,2.737,3.869s-.972,2.847-2.737,3.867L297.6,199.48A13.148,13.148,0,0,1,291.172,201.017ZM285,199.028a13.646,13.646,0,0,0,12.348,0l29.685-17.15c1.6-.922,2.476-2.135,2.476-3.415s-.879-2.494-2.478-3.418L297.345,157.9a13.652,13.652,0,0,0-12.347,0l-29.686,17.15c-1.6.924-2.476,2.135-2.476,3.416s.879,2.493,2.476,3.415Z" transform="translate(-28.698 133.908)" fill="#42e8e0"/>
      <path id="Path_36453" data-name="Path 36453" d="M491.983,300.724a11.443,11.443,0,0,1-5.595-1.337L456.7,282.236a3.59,3.59,0,0,1,0-6.767l29.685-17.15a12.393,12.393,0,0,1,11.189,0l29.686,17.152a3.59,3.59,0,0,1,0,6.767l-29.685,17.15A11.434,11.434,0,0,1,491.983,300.724Zm-5.335-1.789a11.794,11.794,0,0,0,10.672,0L527,281.785a3.082,3.082,0,0,0,0-5.863l-29.685-17.152a11.793,11.793,0,0,0-10.672,0l-29.685,17.15a3.082,3.082,0,0,0,0,5.863Z" transform="translate(114.448 117.624)" fill="#42e8e0"/>
      <path id="Path_36496" data-name="Path 36496" d="M290.776,156.241a11.442,11.442,0,0,1-5.595-1.337L255.5,137.753a3.589,3.589,0,0,1,0-6.765l74.686-43.15a12.379,12.379,0,0,1,11.189,0l29.686,17.152a3.59,3.59,0,0,1,0,6.767L296.371,154.9A11.442,11.442,0,0,1,290.776,156.241Zm-5.335-1.787a11.8,11.8,0,0,0,10.67,0L370.8,111.3a3.083,3.083,0,0,0,0-5.864L341.11,88.288a11.8,11.8,0,0,0-10.67,0l-74.686,43.15a3.084,3.084,0,0,0,0,5.864Z" transform="translate(309.697 114.128)" fill="#42e8e0"/>
      <path id="Path_36455" data-name="Path 36455" d="M446.391,345.383a14.011,14.011,0,0,1-6.851-1.637L320.263,274.834c-1.88-1.086-2.914-2.544-2.914-4.109s1.034-3.023,2.914-4.107l25.151-14.508.26.451-25.151,14.508c-1.711.99-2.653,2.287-2.653,3.657s.942,2.669,2.653,3.658L439.8,343.294a14.573,14.573,0,0,0,13.182,0l87.293-50.249.26.452-87.293,50.249A14.011,14.011,0,0,1,446.391,345.383Z" transform="translate(45.866 115.177)" fill="#42e8e0"/>
      <path id="Path_36456" data-name="Path 36456" d="M254.722,179.156a13.406,13.406,0,0,1-6.566-1.569l-29.686-17.15c-1.85-1.068-2.871-2.524-2.871-4.1s1.021-3.029,2.871-4.1l29.685-17.15a14.532,14.532,0,0,1,13.131,0l29.686,17.15c1.85,1.069,2.869,2.526,2.869,4.1s-1.019,3.029-2.869,4.1l-29.685,17.15A13.41,13.41,0,0,1,254.722,179.156Zm-6.042-2.478a13.369,13.369,0,0,0,12.082,0l29.686-17.15c1.51-.874,2.343-2,2.343-3.187s-.831-2.314-2.344-3.188L260.762,136a13.372,13.372,0,0,0-12.084,0L219,153.153c-1.513.874-2.344,2-2.344,3.187s.831,2.314,2.344,3.188Z" transform="translate(46.917 59.677)" fill="#453c9e"/>
      <path id="Path_36457" data-name="Path 36457" d="M320.194,316.379a13.427,13.427,0,0,1-6.566-1.569l-29.686-17.152c-1.85-1.068-2.869-2.523-2.869-4.1s1.019-3.029,2.869-4.1l29.685-17.151a14.521,14.521,0,0,1,13.133,0l29.685,17.15c1.852,1.068,2.869,2.523,2.871,4.1s-1.019,3.028-2.869,4.1l-29.686,17.15A13.423,13.423,0,0,1,320.194,316.379Zm-6.04-2.479a13.36,13.36,0,0,0,12.082,0l29.684-17.148c1.511-.874,2.344-2.006,2.344-3.188s-.833-2.314-2.344-3.187l-29.686-17.15a13.36,13.36,0,0,0-12.082,0l-29.685,17.152c-1.511.872-2.344,2-2.344,3.187s.833,2.313,2.344,3.187Z" transform="translate(-18.298 129.528)" fill="#453c9e"/>
      <path id="Path_36458" data-name="Path 36458" d="M251.224,298.028a8.267,8.267,0,0,1-4.145-1.108l-9.394-5.807.469-.236,9.186,5.593a7.779,7.779,0,0,0,7.768,0l96.336-55.533.26.451L255.368,296.92A8.273,8.273,0,0,1,251.224,298.028Z" transform="translate(820.372 526.537) rotate(180)" fill="#42e8e0"/>
      <g id="Group_1454" data-name="Group 1454" transform="translate(568.824 328.804)">
        <g id="Group_1453" data-name="Group 1453" transform="translate(0)">
          <g id="Group_1448" data-name="Group 1448" transform="translate(0 38.442)" opacity="0.11">
            <path id="Path_36480" data-name="Path 36480" d="M368.938,340.806a12.776,12.776,0,0,0-12.763-.007l-29.608,16.842a1.8,1.8,0,0,0,0,3.11l31.466,18.093a11.262,11.262,0,0,0,11.263,0l30.36-17.266a1.8,1.8,0,0,0,0-3.11Z" transform="translate(-325.67 -339.095)" fill="url(#linear-gradient)"/>
          </g>
          <g id="Group_1449" data-name="Group 1449" transform="translate(0 25.628)" opacity="0.11">
            <path id="Path_36481" data-name="Path 36481" d="M368.938,331.693a12.773,12.773,0,0,0-12.763-.007l-29.608,16.842a1.8,1.8,0,0,0,0,3.11l31.466,18.093a11.261,11.261,0,0,0,11.263,0l30.36-17.267a1.8,1.8,0,0,0,0-3.112Z" transform="translate(-325.67 -329.981)" fill="url(#linear-gradient)"/>
          </g>
          <g id="Group_1450" data-name="Group 1450" transform="translate(0 12.814)" opacity="0.11">
            <path id="Path_36482" data-name="Path 36482" d="M368.938,322.579a12.776,12.776,0,0,0-12.763-.006l-29.608,16.841a1.8,1.8,0,0,0,0,3.112l31.466,18.093a11.261,11.261,0,0,0,11.263,0l30.36-17.266a1.8,1.8,0,0,0,0-3.112Z" transform="translate(-325.67 -320.868)" fill="url(#linear-gradient)"/>
          </g>
          <g id="Group_1451" data-name="Group 1451" opacity="0.11">
            <path id="Path_36483" data-name="Path 36483" d="M368.938,313.466a12.773,12.773,0,0,0-12.763-.006L326.567,330.3a1.8,1.8,0,0,0,0,3.112l31.466,18.093a11.261,11.261,0,0,0,11.263,0l30.36-17.266a1.8,1.8,0,0,0,0-3.112Z" transform="translate(-325.67 -311.755)" fill="url(#linear-gradient)"/>
          </g>
          <path id="Path_36484" data-name="Path 36484" d="M399.656,331.128l-30.718-17.662a12.773,12.773,0,0,0-12.763-.006L326.567,330.3a1.778,1.778,0,0,0-.9,1.556V370.3a1.778,1.778,0,0,0,.9,1.555l31.466,18.093a11.261,11.261,0,0,0,11.263,0l30.36-17.267a1.779,1.779,0,0,0,.9-1.555V332.683h0A1.779,1.779,0,0,0,399.656,331.128Z" transform="translate(-325.67 -311.755)" opacity="0.5" fill="url(#linear-gradient)"/>
          <g id="Group_1452" data-name="Group 1452" opacity="0.11">
            <path id="Path_36485" data-name="Path 36485" d="M368.938,313.466a12.773,12.773,0,0,0-12.763-.006L326.567,330.3a1.8,1.8,0,0,0,0,3.112l31.466,18.093a11.261,11.261,0,0,0,11.263,0l30.36-17.266a1.8,1.8,0,0,0,0-3.112Z" transform="translate(-325.67 -311.755)" fill="url(#linear-gradient)"/>
          </g>
          <path id="Path_36486" data-name="Path 36486" d="M399.656,326.919,369.3,344.186a11.262,11.262,0,0,1-11.263,0l-31.466-18.093a1.782,1.782,0,0,1-.667-.671,1.8,1.8,0,0,0,.667,2.441l31.466,18.093a11.261,11.261,0,0,0,11.263,0l30.36-17.267a1.8,1.8,0,0,0,.666-2.441A1.783,1.783,0,0,1,399.656,326.919Z" transform="translate(-325.67 -306.205)" fill="url(#linear-gradient)"/>
        </g>
      </g>
      <g id="Group_1209" data-name="Group 1209" transform="translate(342.777 22.56)">
        <g id="Group_1208" data-name="Group 1208" transform="translate(0)">
          <g id="Group_1205" data-name="Group 1205" transform="translate(0 186.474)">
            <g id="Group_1204" data-name="Group 1204">
              <g id="Group_1199" data-name="Group 1199" transform="translate(0 50.786)" opacity="0.11">
                <path id="Path_35102" data-name="Path 35102" d="M343.137,269.847a16.867,16.867,0,0,0-16.855-.009L225.819,327.722a2.373,2.373,0,0,0,0,4.109l101.3,58.5a14.871,14.871,0,0,0,14.875,0l101.454-58.445a2.373,2.373,0,0,0,0-4.111Z" transform="translate(-224.634 -267.586)" fill="url(#linear-gradient)"/>
              </g>
              <g id="Group_1200" data-name="Group 1200" transform="translate(0 33.857)" opacity="0.11">
                <path id="Path_35103" data-name="Path 35103" d="M343.137,260.734a16.863,16.863,0,0,0-16.855-.009L225.819,318.607a2.375,2.375,0,0,0,0,4.111l101.3,58.5a14.87,14.87,0,0,0,14.875,0l101.454-58.445a2.373,2.373,0,0,0,0-4.111Z" transform="translate(-224.634 -258.472)" fill="url(#linear-gradient)"/>
              </g>
              <g id="Group_1201" data-name="Group 1201" transform="translate(0 16.928)" opacity="0.11">
                <path id="Path_35104" data-name="Path 35104" d="M343.137,251.62a16.863,16.863,0,0,0-16.855-.007L225.819,309.495a2.375,2.375,0,0,0,0,4.111l101.3,58.5a14.87,14.87,0,0,0,14.875,0l101.454-58.445a2.373,2.373,0,0,0,0-4.111Z" transform="translate(-224.634 -249.359)" fill="url(#linear-gradient)"/>
              </g>
              <g id="Group_1202" data-name="Group 1202" opacity="0.11">
                <path id="Path_35105" data-name="Path 35105" d="M343.137,242.507a16.863,16.863,0,0,0-16.855-.007L225.819,300.382a2.375,2.375,0,0,0,0,4.111l101.3,58.5a14.879,14.879,0,0,0,14.875,0l101.454-58.447a2.372,2.372,0,0,0,0-4.109Z" transform="translate(-224.634 -240.246)" fill="url(#linear-gradient)"/>
              </g>
              <path id="Path_35106" data-name="Path 35106" d="M443.447,300.437l-100.31-57.931a16.863,16.863,0,0,0-16.855-.007L225.819,300.382a2.349,2.349,0,0,0-1.185,2.056v50.784a2.349,2.349,0,0,0,1.185,2.054l101.3,58.5a14.87,14.87,0,0,0,14.875,0l101.454-58.445a2.351,2.351,0,0,0,1.187-2.054V302.492h0A2.351,2.351,0,0,0,443.447,300.437Z" transform="translate(-224.634 -240.246)" opacity="0.5" fill="url(#linear-gradient)"/>
              <g id="Group_1203" data-name="Group 1203" opacity="0.11">
                <path id="Path_35107" data-name="Path 35107" d="M343.137,242.507a16.863,16.863,0,0,0-16.855-.007L225.819,300.382a2.375,2.375,0,0,0,0,4.111l101.3,58.5a14.879,14.879,0,0,0,14.875,0l101.454-58.447a2.372,2.372,0,0,0,0-4.109Z" transform="translate(-224.634 -240.246)" fill="url(#linear-gradient)"/>
              </g>
              <path id="Path_35108" data-name="Path 35108" d="M443.447,274.038,341.993,332.483a14.87,14.87,0,0,1-14.875,0l-101.3-58.5a2.354,2.354,0,0,1-.88-.886,2.376,2.376,0,0,0,.88,3.225l101.3,58.5a14.88,14.88,0,0,0,14.875,0l101.454-58.447a2.372,2.372,0,0,0,.88-3.223A2.355,2.355,0,0,1,443.447,274.038Z" transform="translate(-224.634 -212.074)" fill="url(#linear-gradient)"/>
            </g>
          </g>
          <path id="Path_35109" data-name="Path 35109" d="M348.5,311.155c-21.6,12.474-56.619,12.474-78.218,0s-21.6-32.7,0-45.173,56.621-12.474,78.22,0S370.1,298.681,348.5,311.155Z" transform="translate(-199.393 -39.724)" fill="#180d5b" opacity="0.2"/>
          <g id="Group_1207" data-name="Group 1207" transform="translate(55.709)">
            <path id="Path_35110" data-name="Path 35110" d="M281.416,261.8s-1.129,1.178-2.3,2.567-4.472,3.323-5.857,4.183-7.733,5.673-9.061,10.414,3.209,5.367,7.85,4.544,8.975-5.106,10.238-6.652,5.655-5.055,11.349-8,2.253-6.91,2.253-6.91Z" transform="translate(-246.636 -35.287)" fill="#160a5b"/>
            <path id="Path_35111" data-name="Path 35111" d="M302.219,269.379a17.594,17.594,0,0,1,1.205,4.872c.266,2.74.65,8.682.791,10.421a14.708,14.708,0,0,1-2.858,10.064c-3.059,4.072-4.639,5.68-8.7,4.079s-3.972-8.428-3.254-11.937a97.316,97.316,0,0,0,1.313-12.188,2.454,2.454,0,0,1,.234-1.352Z" transform="translate(-225.161 -28.788)" fill="#160a5b"/>
            <path id="Path_35112" data-name="Path 35112" d="M265.807,224.461s.856,31.295,8.149,47.909a120.851,120.851,0,0,1,5.911,32.034,6.223,6.223,0,0,0,.505,5.433c1.71,2.437,12.415,4.666,14.184-3.336s1.088-22.978-.856-29.222.693-23.456.693-23.456,2.925,1.869,6.762,14.235,6.658,17.082,7.976,20.5,2.533,24.372,1.7,34.605c0,0,8.669,1.23,11.174-2.915s3.345-25.588,2.71-32.426-3.493-28.737-3.1-35.513,1.8-12.282.254-19.05-47.294-21.806-47.294-21.806Z" transform="translate(-245.054 -78.467)" fill="url(#linear-gradient-15)"/>
            <path id="Path_35113" data-name="Path 35113" d="M321.612,248.006c.392-6.778,1.8-12.282.254-19.05-.583-2.545-7.412-6.258-15.707-9.9-14-1.278-31.754-2.762-32.976-2.576a46.024,46.024,0,0,0-6.4,2.231l-.977,1.451s.052,1.9.24,5.01c3.265.977,9.547-.032,9.547-.032.884,2.2,6.34,10,13.124,13.369s26.64,2.212,27.778,3.494,1.361,18.412,1.235,20.591,1.87,15.893,3.718,28.022c1.816,11.933-.949,26.433-1.04,26.9a4.893,4.893,0,0,0,1.593-1.57c2.507-4.144,3.345-25.588,2.71-32.426S321.219,254.783,321.612,248.006Z" transform="translate(-245.054 -74.167)" fill="#160a5b"/>
            <path id="Path_35114" data-name="Path 35114" d="M285.566,165.272s-10.149,2.316-13.564,3.117a1.754,1.754,0,0,0-1.235,1.074c-.986,2.5-3.458,10.25-1.6,21.574a107.425,107.425,0,0,1,1.564,23.281l-4.695,24.438s-5.9,23.275-5.391,23.913,13.588,10.592,17.676,9.189,2.745-3.715,2.745-3.715,3.311,16.867,17.967,16.705,26.632-.115,29.121-6.041-.68-30.841-3.265-40.705-8.728-29.526-8.728-29.526l21.468-23.77-18.348-14.016s-4.383-8.147-6.184-9.182-2.743-.16-2.743-.16Z" transform="translate(-249.501 -121.644)" fill="url(#linear-gradient-16)"/>
            <g id="Group_1206" data-name="Group 1206" transform="translate(11.568 141.398)">
              <path id="Path_35115" data-name="Path 35115" d="M278.368,219.424c.013.847-.481,2.107-3.116,3.011-2.845.977-9.818-3.264-14.391-6.455,2.282,1.9,13.518,10.1,17.256,8.816a6.633,6.633,0,0,0,1.838-.918A29.931,29.931,0,0,1,278.368,219.424Z" transform="translate(-260.861 -215.98)" fill="url(#linear-gradient-17)"/>
              <path id="Path_35116" data-name="Path 35116" d="M315.55,227.464c-2.626,6.254-15.263,6.206-30.731,6.377a16.528,16.528,0,0,1-9.616-2.773,15.624,15.624,0,0,0,11.334,4.415c14.658-.162,26.632-.115,29.121-6.041.817-1.947,1.021-5.944.839-10.778C316.532,222.592,316.261,225.768,315.55,227.464Z" transform="translate(-248.569 -213.677)" fill="url(#linear-gradient-17)"/>
            </g>
            <path id="Path_35117" data-name="Path 35117" d="M299.56,161.4s3.748,4.536-1.645,10.659c-3.319,3.769-9.029,11.9-13.9,20.337-3.04,5.27-5.85,8.082-7.441,12.611,0,0-.223-5.381-.436-13.69-.2-7.841-.308-15.988.043-18.041C276.907,169.045,295.417,159.341,299.56,161.4Z" transform="translate(-236.358 -121.635)" fill="#f0f6ff"/>
            <path id="Path_35118" data-name="Path 35118" d="M288.972,191.893s-1.92,1.193-2.583,1.094-2.787-2.166-2.787-2.166-5.321-.095-5.9-2.376a49.379,49.379,0,0,0-1.5-5.762c-.538-1.185-2.834-6.873-2.851-9.182s.069-6.431-.929-8.614-2.34-24.026,18.747-23.411S305.7,163.994,305.7,163.994s1.54.656.607,3.476-1.142,3.111-1.618,4.51a6.23,6.23,0,0,1-2.05,3.433l-.349,2.6a10.427,10.427,0,0,1-1.619,7.82C298.051,189.686,288.972,191.893,288.972,191.893Z" transform="translate(-239.787 -138.486)" fill="#fcd1c5"/>
            <path id="Path_35119" data-name="Path 35119" d="M276.553,165.162s-2.247.334-9.544,18.691c-4.071,10.243-10.353,20.851-11.685,28.464s-.589,15.752.916,16.324c1.449.552,27.661,10.363,35.864,13.46a.771.771,0,0,0,1.031-.591l2.262-12.663-16.266-6.286s-3.1-3.786-6.009-5.209c0,0,3.261-6.009,3.053-7.651s.29-18.622-1.616-25.533S276.553,165.162,276.553,165.162Z" transform="translate(-254.632 -118.162)" fill="url(#linear-gradient-19)"/>
            <path id="Path_35120" data-name="Path 35120" d="M277.623,192.806a32.566,32.566,0,0,0-2.793-1.72c-.555-.215-3.551-1.239-4.123-1.5a11.326,11.326,0,0,0-3.042.045.946.946,0,0,0-.745.5c-.693,1.284-2.62,5.021-2.4,6.448,0,0,5.417,3.422,6.021,4.949l.865.186S275.029,193.93,277.623,192.806Z" transform="translate(-246.175 -97.292)" fill="#fcd1c5"/>
            <path id="Path_35121" data-name="Path 35121" d="M311.517,206.438c-.622-2.374-1.45-5.316-2.349-8.413L276.225,212.15a34.734,34.734,0,0,0,27.143,11.35,22.723,22.723,0,0,0,10.7-3.383A131.522,131.522,0,0,0,311.517,206.438Z" transform="translate(-236.125 -89.98)" fill="url(#linear-gradient-19)"/>
            <path id="Path_35122" data-name="Path 35122" d="M332.617,173.863s-8.687,1.2-15.705,12.325a168.358,168.358,0,0,0-12.136,24.006l-.241,1.449a5.858,5.858,0,0,1-8.166,4.389c-7.412-3.31-18.389-8.316-20.435-9.817a18.887,18.887,0,0,0-8.355,12.2c-1.428,6.838-1.066,6.858-1.066,6.858s29.255,13.657,40.551,13.523,25.63-37.289,27.208-44.968S337.59,176.034,332.617,173.863Z" transform="translate(-244.485 -110.701)" fill="#24126a"/>
            <path id="Path_35123" data-name="Path 35123" d="M332.617,173.863s-8.687,1.2-15.705,12.325a168.358,168.358,0,0,0-12.136,24.006l-.241,1.449a5.858,5.858,0,0,1-8.166,4.389c-7.412-3.31-18.389-8.316-20.435-9.817a18.887,18.887,0,0,0-8.355,12.2c-1.428,6.838-1.066,6.858-1.066,6.858s29.255,13.657,40.551,13.523,25.63-37.289,27.208-44.968S337.59,176.034,332.617,173.863Z" transform="translate(-244.485 -110.701)" fill="url(#linear-gradient-21)"/>
            <path id="Path_35124" data-name="Path 35124" d="M284.832,201.11s3.69,3.451,5.3,1.562,1.133-2.1,1.133-2.1,3.32-.032,3.723-2.112,2.041-.981,2.134-3.3-2.687-1.843-2.687-1.843Z" transform="translate(-228.748 -94.05)" fill="url(#linear-gradient-21)"/>
            <path id="Path_35125" data-name="Path 35125" d="M282.431,202.042s1.014-.945,2.323-2.053,3.424-5.692,3.783-6.095,4.771-3.791,6.9-3.851.548,2.324.058,2.66-2.566,1.369-2.566,1.369-2.138,1.8-2.381,2.058,5.943-.425,6.923.178a1.674,1.674,0,0,1,.061,2.614,2.42,2.42,0,0,1-1.222.416,2.151,2.151,0,0,1-1.161,2.725c-1.855.864-2.282.383-2.282.383s-.16,3.217-3.224,2.58Z" transform="translate(-230.806 -96.825)" fill="#fcd1c5"/>
            <path id="Path_35126" data-name="Path 35126" d="M272.184,155.092s-2.752,8.766,4.492,6.271,13.8-6.667,16.077-5.077c1.731,1.209,1.653,4.919,1.515,6.619a2.526,2.526,0,0,0,.434,1.635l2.147,3.123a2.408,2.408,0,0,1,.418,1.191l.152,2.171a1.09,1.09,0,0,0,1.023,1.012l.5.028a1.087,1.087,0,0,0,1.135-.9l.559-3.191s1.707-4.293,5.311-2.606c0,0,2.41-3.24,1.608-10.167s-3.9-14.131-17.494-15.282S272.184,155.092,272.184,155.092Z" transform="translate(-240.028 -139.861)" fill="#aa8383"/>
            <path id="Path_35127" data-name="Path 35127" d="M286.21,174.023l-2.033-1.579a10.985,10.985,0,0,0-2.615,3.221c-.732,1.659,0,6.927,0,6.927l-.62,1.066-.763-1.4-.644-6.229s.693-4.6.76-4.722,3.922.409,3.922.409A7.989,7.989,0,0,1,286.21,174.023Z" transform="translate(-233.285 -112.902)" fill="#c4ccd6"/>
            <path id="Path_35128" data-name="Path 35128" d="M279.32,169.426a6.9,6.9,0,0,0-3.15.959s2.279.111,2.641.152S279.32,169.426,279.32,169.426Z" transform="translate(-236.172 -114.506)" fill="#c4ccd6"/>
            <path id="Path_35129" data-name="Path 35129" d="M282.527,169.9l3.647,3.409s-3.2,1.475-4.095,4.336c0,0-3.969.741-4.331-.695s.009-5.06-.462-6.665S282.527,169.9,282.527,169.9Z" transform="translate(-235.24 -114.485)" fill="#24126a"/>
            <path id="Path_35130" data-name="Path 35130" d="M278.948,173.474a20.2,20.2,0,0,1-1.419,4.219c-.739,1.232-1.5,2.614-1.5,2.614l.091,17.5s6.435-13.269,7.831-15.955c0,0-.214-6.392-.821-7.6S278.948,173.474,278.948,173.474Z" transform="translate(-236.292 -111.098)" fill="#24126a"/>
            <path id="Path_35131" data-name="Path 35131" d="M294.346,159.517c-4.227,12.2-16.121,15.821-16.121,15.821s2.126,2.067,2.787,2.166,2.583-1.094,2.583-1.094,9.079-2.207,11.7-6.061a10.432,10.432,0,0,0,1.62-7.822l.349-2.6A2.87,2.87,0,0,1,294.346,159.517Z" transform="translate(-234.411 -123.004)" fill="#e2b1a6"/>
            <path id="Path_35132" data-name="Path 35132" d="M305.182,167.206s-1.668,5.757-1.883,5.974-4.193-.243-4.193-.243l1.931,3.661s-20.019,21.476-24.17,33.028A244.987,244.987,0,0,1,303.015,177.5l-2.36-3.572,4.093.8Z" transform="translate(-235.575 -116.41)" fill="url(#linear-gradient-23)"/>
            <path id="Path_35133" data-name="Path 35133" d="M276.749,164.468l-1.062,1.215,1.248,1.165-3.7,3.347s-1.131,23.491,3.389,39.052c0,0-6.138-14.274-4.745-39.693l4.006-2.718-1.311-1.289Z" transform="translate(-240.027 -118.758)" fill="url(#linear-gradient-23)"/>
            <path id="Path_35134" data-name="Path 35134" d="M283.838,236.76a1.414,1.414,0,0,1,.137.108l-5.185-5.521c2.394,3.377-.364,18.84-.65,22.38s2.769,10.85,3.913,19.417-1.2,20.766-1.205,20.8A6.605,6.605,0,0,0,284,289.437c1.768-8,1.088-22.978-.856-29.222S283.838,236.76,283.838,236.76Z" transform="translate(-234.499 -61.403)" fill="#160a5b"/>
            <path id="Path_35135" data-name="Path 35135" d="M307.062,231.429c11.3-.134,25.63-37.289,27.208-44.968.264-1.28.529-2.632.769-4-.041.113-2.968,8.134-5.79,15.247-2.843,7.161-17.939,28.869-25.656,30.284-6.957,1.276-31.983-10.412-36.83-12.717-.438,2.608-.253,2.632-.253,2.632S295.766,231.562,307.062,231.429Z" transform="translate(-244.484 -103.329)" fill="url(#linear-gradient-25)"/>
            <path id="Path_35136" data-name="Path 35136" d="M288.309,164.732a1.087,1.087,0,0,0,1.135-.9l.559-3.191s1.707-4.293,5.311-2.606c0,0,2.273-3.078,1.658-9.624-4.008,6.019-12.9,8.8-12.9,8.8l2.149,3.123a2.425,2.425,0,0,1,.416,1.191l.152,2.171a1.09,1.09,0,0,0,1.023,1.012Z" transform="translate(-229.398 -132.528)" fill="#936d6d"/>
          </g>
        </g>
      </g>
      <g id="Group_1182" data-name="Group 1182" transform="translate(563.137 145.314)">
        <g id="Group_1181" data-name="Group 1181">
          <g id="Group_1176" data-name="Group 1176" transform="translate(0 38.116)" opacity="0.11">
            <path id="Path_35071" data-name="Path 35071" d="M226.479,245.556a12.668,12.668,0,0,0-12.655-.007l-75.418,43.443a1.78,1.78,0,0,0,0,3.084l31.2,17.941a11.173,11.173,0,0,0,11.167,0l76.164-43.866a1.781,1.781,0,0,0,0-3.084Z" transform="translate(-137.515 -243.859)" fill="url(#linear-gradient)"/>
          </g>
          <g id="Group_1177" data-name="Group 1177" transform="translate(0 25.411)" opacity="0.11">
            <path id="Path_35072" data-name="Path 35072" d="M226.479,236.443a12.668,12.668,0,0,0-12.655-.007l-75.418,43.443a1.78,1.78,0,0,0,0,3.084l31.2,17.94a11.166,11.166,0,0,0,11.167,0l76.164-43.864a1.781,1.781,0,0,0,0-3.084Z" transform="translate(-137.515 -234.746)" fill="url(#linear-gradient)"/>
          </g>
          <g id="Group_1178" data-name="Group 1178" transform="translate(0 12.705)" opacity="0.11">
            <path id="Path_35073" data-name="Path 35073" d="M226.479,227.33a12.665,12.665,0,0,0-12.655-.007l-75.418,43.443a1.78,1.78,0,0,0,0,3.084l31.2,17.94a11.166,11.166,0,0,0,11.167,0l76.164-43.864a1.782,1.782,0,0,0,0-3.085Z" transform="translate(-137.515 -225.632)" fill="url(#linear-gradient)"/>
          </g>
          <g id="Group_1179" data-name="Group 1179" opacity="0.11">
            <path id="Path_35074" data-name="Path 35074" d="M226.479,218.216a12.668,12.668,0,0,0-12.655-.006l-75.418,43.442a1.781,1.781,0,0,0,0,3.085l31.2,17.94a11.166,11.166,0,0,0,11.167,0l76.164-43.864a1.782,1.782,0,0,0,0-3.085Z" transform="translate(-137.515 -216.519)" fill="url(#linear-gradient)"/>
          </g>
          <path id="Path_35075" data-name="Path 35075" d="M256.937,235.728l-30.458-17.512a12.668,12.668,0,0,0-12.655-.006l-75.418,43.442a1.766,1.766,0,0,0-.891,1.543V301.31a1.763,1.763,0,0,0,.891,1.542l31.2,17.941a11.173,11.173,0,0,0,11.167,0l76.164-43.866a1.764,1.764,0,0,0,.889-1.542V237.271h0A1.766,1.766,0,0,0,256.937,235.728Z" transform="translate(-137.515 -216.519)" opacity="0.5" fill="url(#linear-gradient)"/>
          <g id="Group_1180" data-name="Group 1180" opacity="0.11">
            <path id="Path_35076" data-name="Path 35076" d="M226.479,218.216a12.668,12.668,0,0,0-12.655-.006l-75.418,43.442a1.781,1.781,0,0,0,0,3.085l31.2,17.94a11.166,11.166,0,0,0,11.167,0l76.164-43.864a1.782,1.782,0,0,0,0-3.085Z" transform="translate(-137.515 -216.519)" fill="url(#linear-gradient)"/>
          </g>
          <path id="Path_35077" data-name="Path 35077" d="M256.937,231.439,180.773,275.3a11.166,11.166,0,0,1-11.167,0l-31.2-17.94a1.757,1.757,0,0,1-.661-.665,1.782,1.782,0,0,0,.661,2.42l31.2,17.94a11.166,11.166,0,0,0,11.167,0l76.164-43.864a1.783,1.783,0,0,0,.659-2.42A1.754,1.754,0,0,1,256.937,231.439Z" transform="translate(-137.515 -210.901)" fill="url(#linear-gradient)"/>
          <g id="Group_1212" data-name="Group 1212" transform="translate(17.787 31.065)">
            <path id="Path_35141" data-name="Path 35141" d="M173.009,264.178l-20.427-11.793,20.426-11.793,20.427,11.793Z" transform="translate(-151.478 -239.489)" fill="#42e8e0" opacity="0.7"/>
            <path id="Path_35142" data-name="Path 35142" d="M173.377,265.65a1.121,1.121,0,0,1-.553-.148L152.4,253.709a1.106,1.106,0,0,1,0-1.913L172.822,240a1.119,1.119,0,0,1,1.106,0L194.355,251.8a1.106,1.106,0,0,1,0,1.913L173.929,265.5A1.121,1.121,0,0,1,173.377,265.65Zm-18.217-12.9,18.217,10.518,18.216-10.518-18.217-10.516Z" transform="translate(-151.845 -239.855)" fill="#42e8e0"/>
          </g>
          <g id="Group_1213" data-name="Group 1213" transform="translate(61.406 7.592)">
            <path id="Path_35143" data-name="Path 35143" d="M202.122,248.511,181.7,236.718l20.426-11.793,20.427,11.793Z" transform="translate(-180.59 -223.822)" fill="#42e8e0" opacity="0.7"/>
            <path id="Path_35144" data-name="Path 35144" d="M202.49,249.983a1.12,1.12,0,0,1-.553-.148l-20.427-11.793a1.106,1.106,0,0,1,0-1.913l20.427-11.793a1.112,1.112,0,0,1,1.106,0l20.426,11.793a1.106,1.106,0,0,1,0,1.913l-20.426,11.793A1.121,1.121,0,0,1,202.49,249.983Zm-18.217-12.9L202.49,247.6l18.216-10.518L202.49,226.568Z" transform="translate(-180.958 -224.189)" fill="#42e8e0"/>
          </g>
        </g>
      </g>
      <g id="Group_1172" data-name="Group 1172" transform="translate(262.072 120.074)">
        <g id="Group_1171" data-name="Group 1171">
          <path id="Path_35059" data-name="Path 35059" d="M158.242,249.067,119.31,226.589l38.931-22.477,38.932,22.478Z" transform="translate(-118.204 -156.36)" fill="#42e8e0" opacity="0.3"/>
          <path id="Path_35060" data-name="Path 35060" d="M158.242,231.785,119.31,209.308l38.931-22.477,38.932,22.478Z" transform="translate(-118.204 -164.971)" fill="#42e8e0" opacity="0.5"/>
          <path id="Path_35061" data-name="Path 35061" d="M158.242,217.932,119.31,195.455l38.931-22.477,38.932,22.478Z" transform="translate(-118.204 -171.873)" fill="#42e8e0" opacity="0.7"/>
          <path id="Path_35062" data-name="Path 35062" d="M158.61,219.405a1.105,1.105,0,0,1-.553-.148L119.125,196.78a1.105,1.105,0,0,1,0-1.915l38.931-22.477a1.112,1.112,0,0,1,1.106,0L198.1,194.866a1.107,1.107,0,0,1,0,1.915l-38.932,22.476A1.105,1.105,0,0,1,158.61,219.405Zm-36.724-23.583,36.724,21.2,36.723-21.2-36.724-21.2Z" transform="translate(-118.572 -172.241)" fill="#42e8e0"/>
        </g>
      </g>
      <g id="Group_1461" data-name="Group 1461" transform="translate(262.775 352.313)">
        <g id="Group_1460" data-name="Group 1460" transform="translate(0)">
          <g id="Group_1455" data-name="Group 1455" transform="translate(0 39.768)" opacity="0.11">
            <path id="Path_36487" data-name="Path 36487" d="M370.431,340.865a13.217,13.217,0,0,0-13.2-.007L326.6,358.281a1.858,1.858,0,0,0,0,3.218l32.552,18.718a11.65,11.65,0,0,0,11.651,0l31.408-17.862a1.857,1.857,0,0,0,0-3.218Z" transform="translate(-325.67 -339.095)" fill="url(#linear-gradient)"/>
          </g>
          <g id="Group_1456" data-name="Group 1456" transform="translate(0 26.512)" opacity="0.11">
            <path id="Path_36488" data-name="Path 36488" d="M370.431,331.753a13.213,13.213,0,0,0-13.2-.007L326.6,349.168a1.858,1.858,0,0,0,0,3.218L359.151,371.1a11.65,11.65,0,0,0,11.651,0l31.408-17.863a1.858,1.858,0,0,0,0-3.219Z" transform="translate(-325.67 -329.981)" fill="url(#linear-gradient)"/>
          </g>
          <g id="Group_1457" data-name="Group 1457" transform="translate(0 13.256)" opacity="0.11">
            <path id="Path_36489" data-name="Path 36489" d="M370.431,322.638a13.217,13.217,0,0,0-13.2-.006L326.6,340.054a1.859,1.859,0,0,0,0,3.219l32.552,18.718a11.65,11.65,0,0,0,11.651,0l31.408-17.862a1.858,1.858,0,0,0,0-3.219Z" transform="translate(-325.67 -320.868)" fill="url(#linear-gradient)"/>
          </g>
          <g id="Group_1458" data-name="Group 1458" opacity="0.11">
            <path id="Path_36490" data-name="Path 36490" d="M370.431,313.525a13.213,13.213,0,0,0-13.2-.006L326.6,330.941a1.859,1.859,0,0,0,0,3.219l32.552,18.718a11.65,11.65,0,0,0,11.651,0l31.408-17.862a1.858,1.858,0,0,0,0-3.219Z" transform="translate(-325.67 -311.755)" fill="url(#linear-gradient)"/>
          </g>
          <path id="Path_36491" data-name="Path 36491" d="M402.209,331.8l-31.779-18.271a13.214,13.214,0,0,0-13.2-.006L326.6,330.941a1.84,1.84,0,0,0-.928,1.61v39.767a1.839,1.839,0,0,0,.928,1.609l32.552,18.718a11.65,11.65,0,0,0,11.651,0l31.408-17.862a1.841,1.841,0,0,0,.93-1.609V333.405h0A1.841,1.841,0,0,0,402.209,331.8Z" transform="translate(-325.67 -311.755)" opacity="0.5" fill="url(#linear-gradient)"/>
          <g id="Group_1459" data-name="Group 1459">
            <g transform="matrix(1, 0, 0, 1, -80, -380.75)" filter="url(#Path_36492)">
              <path id="Path_36492-2" data-name="Path 36492" d="M370.431,313.525a13.213,13.213,0,0,0-13.2-.006L326.6,330.941a1.859,1.859,0,0,0,0,3.219l32.552,18.718a11.65,11.65,0,0,0,11.651,0l31.408-17.862a1.858,1.858,0,0,0,0-3.219Z" transform="translate(-245.67 69)" fill="url(#radial-gradient)"/>
            </g>
          </g>
          <path id="Path_36493" data-name="Path 36493" d="M402.209,326.971,370.8,344.834a11.65,11.65,0,0,1-11.651,0L326.6,326.116a1.844,1.844,0,0,1-.69-.694,1.86,1.86,0,0,0,.69,2.525l32.552,18.718a11.65,11.65,0,0,0,11.651,0L402.209,328.8a1.861,1.861,0,0,0,.689-2.525A1.844,1.844,0,0,1,402.209,326.971Z" transform="translate(-325.67 -305.542)" fill="url(#linear-gradient)"/>
        </g>
        <g id="Group_1463" data-name="Group 1463" transform="translate(-169.546 -144.568)">
          <g transform="matrix(1, 0, 0, 1, 89.55, -236.18)" filter="url(#Path_36494)">
            <path id="Path_36494-2" data-name="Path 36494" d="M227.288,171.212q-.07.037-.144.072t-.153.067q-.079.032-.161.062t-.169.057l-6.546,2.037q-.062-.054-.131-.106t-.144-.1q-.075-.05-.157-.1t-.17-.092c-.107-.054-.221-.105-.34-.152s-.243-.09-.372-.13-.262-.074-.4-.105-.277-.057-.419-.079-.279-.038-.421-.051-.286-.021-.431-.025-.289,0-.434,0-.289.013-.432.026l-6.085-6.244.018-.009.018-.009.018-.009.018-.009a2.438,2.438,0,0,0,.805-.63,1.142,1.142,0,0,0,.266-.71,1.128,1.128,0,0,0-.271-.7,2.388,2.388,0,0,0-.8-.612,4.794,4.794,0,0,0-1.209-.4,7.026,7.026,0,0,0-2.753.022,4.9,4.9,0,0,0-1.213.419l-.014.007-.014.008-.016.009-.018.01-12.066-2.981a1.013,1.013,0,0,0,.052-.214.95.95,0,0,0,0-.215.982.982,0,0,0-.046-.212,1.111,1.111,0,0,0-.094-.207,1.37,1.37,0,0,0-.147-.205,1.805,1.805,0,0,0-.2-.194,2.356,2.356,0,0,0-.242-.18,3,3,0,0,0-.284-.163,3.84,3.84,0,0,0-.384-.168c-.135-.051-.278-.1-.426-.137s-.3-.075-.462-.1-.324-.052-.492-.07q.1-.13.206-.26t.225-.257q.117-.128.242-.253t.259-.249q.277-.256.593-.5t.669-.482q.353-.236.742-.46t.812-.436q.2-.1.418-.2t.434-.2q.221-.1.449-.19t.461-.182q.562-.215,1.125-.41t1.125-.37q.562-.175,1.121-.329t1.113-.287q.8-.191,1.566-.334t1.512-.237q.742-.094,1.454-.14t1.392-.043q.518,0,1.04.028t1.046.074q.524.048,1.049.119t1.048.165q.433.077.866.171t.865.2q.432.108.861.232t.855.261q.516.167,1.021.355t1,.393q.493.206.971.431t.941.467a8.018,8.018,0,0,0,1.044.435c.42.147.9.291,1.414.423s1.058.251,1.6.346a16.235,16.235,0,0,0,1.612.2l.794.058q.385.029.742.061t.683.067q.326.035.619.076c.222.031.422.065.6.1s.338.074.477.115a2.666,2.666,0,0,1,.36.131,1.2,1.2,0,0,1,.251.149,1.135,1.135,0,0,1,.368.448.575.575,0,0,1,.009.4,1.159,1.159,0,0,1-.223.369,4.708,4.708,0,0,1-.328.34c-.093.09-.182.177-.257.262a.968.968,0,0,0-.17.248.318.318,0,0,0-.015.24.518.518,0,0,0,.209.237l3.294,2.347q.145.1.271.212a3.015,3.015,0,0,1,.232.222,2.466,2.466,0,0,1,.192.231,2.05,2.05,0,0,1,.151.239,1.753,1.753,0,0,1,.105.236,1.552,1.552,0,0,1,.065.239,1.457,1.457,0,0,1,.009.485,1.619,1.619,0,0,1-.153.48,2.156,2.156,0,0,1-.309.456,3.068,3.068,0,0,1-.455.422,4.339,4.339,0,0,1-.592.377q-.141.075-.293.145t-.314.134q-.162.064-.334.122t-.353.109l-.011,0-.011,0-.011,0-.011,0-.012,0-.011,0-.011,0-.011,0-.011,0q-.1.029-.2.061t-.186.066q-.09.035-.172.072t-.157.077a1.965,1.965,0,0,0-.333.22,1.315,1.315,0,0,0-.238.255,1.032,1.032,0,0,0-.143.288,1.053,1.053,0,0,0-.046.321,1.336,1.336,0,0,0,.032.278,1.8,1.8,0,0,0,.093.294,2.523,2.523,0,0,0,.153.31,3.549,3.549,0,0,0,.213.324,1.165,1.165,0,0,1,.129.221.93.93,0,0,1,.068.226.843.843,0,0,1,.006.228.9.9,0,0,1-.057.228,1.087,1.087,0,0,1-.117.218,1.415,1.415,0,0,1-.173.206,1.893,1.893,0,0,1-.227.191A2.522,2.522,0,0,1,227.288,171.212Z" transform="translate(-89.55 236.18)" fill="#fff"/>
          </g>
          <path id="Path_36495" data-name="Path 36495" d="M28.441,8.118l-.016.008-.015.008-.015.008-.015.008L16.315,5.17a.974.974,0,0,0,.055-.428,1.04,1.04,0,0,0-.14-.42,1.563,1.563,0,0,0-.336-.394,2.646,2.646,0,0,0-.533-.348,4.616,4.616,0,0,0-1.183-.392,6.772,6.772,0,0,0-1.358-.123,6.977,6.977,0,0,0-1.37.144,5.061,5.061,0,0,0-1.217.411,2.584,2.584,0,0,0-.826.613,1.171,1.171,0,0,0-.3.694,1.052,1.052,0,0,0,.231.692,2.2,2.2,0,0,0,.769.605,3.79,3.79,0,0,0,.372.165c.13.05.266.094.406.134s.285.074.433.1.3.053.454.071l.246,4.351q-.185.036-.365.082t-.351.1q-.171.056-.334.123t-.313.143a2.629,2.629,0,0,0-.839.633,1.221,1.221,0,0,0-.305.718,1.1,1.1,0,0,0,.235.716,2.251,2.251,0,0,0,.783.626,4.4,4.4,0,0,0,.964.356,6.313,6.313,0,0,0,1.108.169,7.217,7.217,0,0,0,1.158-.018,6.489,6.489,0,0,0,1.115-.2L21.1,17.729a1.534,1.534,0,0,0-.393.584,1.047,1.047,0,0,0-.032.608,1.344,1.344,0,0,0,.333.585,2.55,2.55,0,0,0,.7.513,4.735,4.735,0,0,0,1.232.421,6.818,6.818,0,0,0,1.412.132,6.925,6.925,0,0,0,1.417-.155,4.966,4.966,0,0,0,1.247-.441q.15-.079.28-.165a2.728,2.728,0,0,0,.239-.176,2.186,2.186,0,0,0,.2-.185,1.757,1.757,0,0,0,.158-.192l8.742.172a1.427,1.427,0,0,0,.153.245,1.849,1.849,0,0,0,.216.234,2.449,2.449,0,0,0,.28.22,3.24,3.24,0,0,0,.344.2,4.881,4.881,0,0,0,1.247.421,7.022,7.022,0,0,0,2.829-.023,4.815,4.815,0,0,0,1.233-.441,2.427,2.427,0,0,0,.809-.655A1.182,1.182,0,0,0,44,18.9a1.21,1.21,0,0,0-.29-.732,2.512,2.512,0,0,0-.833-.636,4.448,4.448,0,0,0-.722-.286,5.879,5.879,0,0,0-.807-.181,6.935,6.935,0,0,0-.854-.077,7.208,7.208,0,0,0-.864.027l-6.085-6.244.018-.009.018-.009.018-.009.018-.009a2.438,2.438,0,0,0,.805-.63,1.142,1.142,0,0,0,.266-.71,1.128,1.128,0,0,0-.271-.7,2.388,2.388,0,0,0-.8-.612,4.794,4.794,0,0,0-1.209-.4,7.026,7.026,0,0,0-2.753.022A4.9,4.9,0,0,0,28.441,8.118Zm-5.766,8.791-6.232-3.223a1.829,1.829,0,0,0,.21-.236,1.4,1.4,0,0,0,.146-.244,1.126,1.126,0,0,0,.083-.25A1,1,0,0,0,16.9,12.7l11.172-2.133.08.052.084.051.088.05.092.049.089.043.091.041.093.04.095.038-4.155,5.737c-.167,0-.334,0-.5.007s-.333.022-.5.042-.327.045-.487.076S22.828,16.866,22.676,16.909Zm4.733-7.765q-.016.048-.027.1t-.018.1a.964.964,0,0,0-.008.1.941.941,0,0,0,0,.1L16.207,11.658l-.078-.053-.082-.051-.087-.05-.091-.049a3.859,3.859,0,0,0-.378-.169c-.132-.051-.269-.1-.411-.137s-.288-.075-.438-.1-.3-.054-.458-.072l-.266-4.35q.183-.035.361-.08t.347-.1q.169-.055.329-.12t.308-.14l.016-.008.015-.008.015-.008.015-.008Zm10.265,8.389-.018.009-.018.009-.018.009-.018.009q-.148.078-.275.163a2.641,2.641,0,0,0-.235.174,2.114,2.114,0,0,0-.194.184,1.7,1.7,0,0,0-.154.191l-8.721-.171a1.383,1.383,0,0,0-.148-.243,1.785,1.785,0,0,0-.211-.232,2.364,2.364,0,0,0-.274-.218,3.135,3.135,0,0,0-.338-.2l-.09-.045-.092-.043-.094-.041-.1-.039L30.814,11.3h.2l.2,0,.2-.01.2-.015Z" transform="translate(176.633 155.582)" fill="#000128"/>
        </g>
      </g>
    </g>
  </g>
</svg>
